Blinker-Bold_15.ufo
<glyph name="exclam" format="1">
  <advance width="244.0"/>
  <unicode hex="0021"/>
  <outline>
    <contour>
      <point x="37" y="627" type="line"/>
      <point x="207" y="627" type="line"/>
      <point x="188" y="202" type="line"/>
      <point x="56" y="202" type="line"/>
    </contour>
    <contour>
      <point x="199" y="134" type="line"/>
      <point x="199" y="0" type="line"/>
      <point x="45" y="0" type="line"/>
      <point x="45" y="134" type="line"/>
    </contour>
  </outline>
</glyph>
<glyph name="quotedbl" format="1">
  <advance width="323.0"/>
  <unicode hex="0022"/>
  <outline>
    <contour>
      <point x="32" y="627" type="line"/>
      <point x="131" y="627" type="line"/>
      <point x="131" y="399" type="line"/>
      <point x="32" y="399" type="line"/>
    </contour>
    <contour>
      <point x="192" y="627" type="line"/>
      <point x="291" y="627" type="line"/>
      <point x="291" y="399" type="line"/>
      <point x="192" y="399" type="line"/>
    </contour>
  </outline>
</glyph>
<glyph name="numbersign" format="1">
  <advance width="553.0"/>
  <unicode hex="0023"/>
  <outline>
    <contour>
      <point x="536" y="493" type="line"/>
      <point x="536" y="395" type="line"/>
      <point x="439" y="395" type="line"/>
      <point x="416" y="242" type="line"/>
      <point x="501" y="242" type="line"/>
      <point x="501" y="144" type="line"/>
      <point x="400" y="144" type="line"/>
      <point x="376" y="0" type="line"/>
      <point x="274" y="0" type="line"/>
      <point x="297" y="144" type="line"/>
      <point x="202" y="144" type="line"/>
      <point x="179" y="0" type="line"/>
      <point x="76" y="0" type="line"/>
      <point x="100" y="144" type="line"/>
      <point x="17" y="144" type="line"/>
      <point x="17" y="242" type="line"/>
      <point x="116" y="242" type="line"/>
      <point x="140" y="395" type="line"/>
      <point x="52" y="395" type="line"/>
      <point x="52" y="493" type="line"/>
      <point x="158" y="493" type="line"/>
      <point x="180" y="627" type="line"/>
      <point x="282" y="627" type="line"/>
      <point x="260" y="493" type="line"/>
      <point x="354" y="493" type="line"/>
      <point x="377" y="627" type="line"/>
      <point x="479" y="627" type="line"/>
      <point x="457" y="493" type="line"/>
    </contour>
    <contour>
      <point x="313" y="242" type="line"/>
      <point x="337" y="395" type="line"/>
      <point x="243" y="395" type="line"/>
      <point x="218" y="242" type="line"/>
    </contour>
  </outline>
</glyph>
<glyph name="dollar" format="1">
  <advance width="480.0"/>
  <unicode hex="0024"/>
  <outline>
    <contour>
      <point x="284" y="-7" type="qcurve"/>
      <point x="284" y="-90" type="line"/>
      <point x="193" y="-90" type="line"/>
      <point x="193" y="-9" type="line"/>
      <point x="143" y="-7"/>
      <point x="54" y="7"/>
      <point x="29" y="16" type="qcurve"/>
      <point x="29" y="163" type="line"/>
      <point x="68" y="150"/>
      <point x="175" y="135"/>
      <point x="229" y="135" type="qcurve" smooth="yes"/>
      <point x="271" y="135"/>
      <point x="303" y="157"/>
      <point x="303" y="190" type="qcurve" smooth="yes"/>
      <point x="303" y="211"/>
      <point x="291" y="230"/>
      <point x="270" y="235" type="qcurve"/>
      <point x="158" y="264" type="line" smooth="yes"/>
      <point x="80" y="285"/>
      <point x="27" y="357"/>
      <point x="27" y="425" type="qcurve" smooth="yes"/>
      <point x="27" y="518"/>
      <point x="109" y="619"/>
      <point x="193" y="632" type="qcurve"/>
      <point x="193" y="717" type="line"/>
      <point x="284" y="717" type="line"/>
      <point x="284" y="637" type="line"/>
      <point x="325" y="636"/>
      <point x="388" y="627"/>
      <point x="415" y="619" type="qcurve"/>
      <point x="415" y="480" type="line"/>
      <point x="341" y="493"/>
      <point x="285" y="497"/>
      <point x="255" y="497" type="qcurve" smooth="yes"/>
      <point x="215" y="497"/>
      <point x="180" y="469"/>
      <point x="180" y="436" type="qcurve" smooth="yes"/>
      <point x="180" y="420"/>
      <point x="193" y="404"/>
      <point x="209" y="400" type="qcurve"/>
      <point x="320" y="371" type="line" smooth="yes"/>
      <point x="376" y="356"/>
      <point x="419" y="334"/>
      <point x="432" y="318" type="qcurve" smooth="yes"/>
      <point x="448" y="298"/>
      <point x="463" y="239"/>
      <point x="463" y="196" type="qcurve" smooth="yes"/>
      <point x="463" y="99"/>
      <point x="375" y="3"/>
    </contour>
  </outline>
</glyph>
<glyph name="ampersand" format="1">
  <advance width="675.0"/>
  <unicode hex="0026"/>
  <outline>
    <contour>
      <point x="555" y="246" type="line"/>
      <point x="555" y="55" type="line"/>
      <point x="526" y="27"/>
      <point x="393" y="-10"/>
      <point x="319" y="-10" type="qcurve" smooth="yes"/>
      <point x="165" y="-10"/>
      <point x="26" y="150"/>
      <point x="26" y="325" type="qcurve"/>
      <point x="26" y="479"/>
      <point x="166" y="637"/>
      <point x="303" y="637" type="qcurve" smooth="yes"/>
      <point x="406" y="637"/>
      <point x="517" y="540"/>
      <point x="517" y="452" type="qcurve"/>
      <point x="517" y="429"/>
      <point x="508" y="389"/>
      <point x="498" y="371" type="qcurve"/>
      <point x="666" y="371" type="line"/>
      <point x="666" y="246" type="line"/>
    </contour>
    <contour>
      <point x="371" y="442" type="qcurve"/>
      <point x="371" y="472"/>
      <point x="331" y="502"/>
      <point x="292" y="502" type="qcurve" smooth="yes"/>
      <point x="235" y="502"/>
      <point x="185" y="436"/>
      <point x="183" y="356" type="qcurve"/>
      <point x="283" y="359"/>
      <point x="371" y="398"/>
    </contour>
    <contour>
      <point x="321" y="129" type="qcurve"/>
      <point x="349" y="129"/>
      <point x="403" y="137"/>
      <point x="410" y="142" type="qcurve"/>
      <point x="410" y="289" type="line"/>
      <point x="369" y="269"/>
      <point x="257" y="247"/>
      <point x="189" y="245" type="qcurve"/>
      <point x="198" y="182"/>
      <point x="258" y="129"/>
    </contour>
  </outline>
</glyph>
<glyph name="parenleft" format="1">
  <advance width="220.0"/>
  <unicode hex="0028"/>
  <outline>
    <contour>
      <point x="139" y="313" type="qcurve"/>
      <point x="139" y="205"/>
      <point x="173" y="10"/>
      <point x="204" y="-53" type="qcurve"/>
      <point x="118" y="-80" type="line"/>
      <point x="73" y="-2"/>
      <point x="26" y="200"/>
      <point x="26" y="313" type="qcurve"/>
      <point x="26" y="430"/>
      <point x="73" y="631"/>
      <point x="118" y="707" type="qcurve"/>
      <point x="202" y="680" type="line"/>
      <point x="171" y="620"/>
      <point x="139" y="427"/>
    </contour>
  </outline>
</glyph>
<glyph name="parenright" format="1">
  <advance width="220.0"/>
  <unicode hex="0029"/>
  <outline>
    <contour>
      <point x="81" y="313" type="qcurve"/>
      <point x="81" y="427"/>
      <point x="49" y="620"/>
      <point x="18" y="680" type="qcurve"/>
      <point x="102" y="707" type="line"/>
      <point x="147" y="631"/>
      <point x="194" y="430"/>
      <point x="194" y="313" type="qcurve"/>
      <point x="194" y="200"/>
      <point x="147" y="-2"/>
      <point x="102" y="-80" type="qcurve"/>
      <point x="16" y="-53" type="line"/>
      <point x="47" y="10"/>
      <point x="81" y="205"/>
    </contour>
  </outline>
</glyph>
<glyph name="asterisk" format="1">
  <advance width="368.0"/>
  <unicode hex="002A"/>
  <outline>
    <contour>
      <point x="258" y="443" type="line"/>
      <point x="320" y="364" type="line"/>
      <point x="237" y="305" type="line"/>
      <point x="184" y="388" type="line"/>
      <point x="128" y="305" type="line"/>
      <point x="47" y="366" type="line"/>
      <point x="110" y="442" type="line"/>
      <point x="14" y="470" type="line"/>
      <point x="47" y="565" type="line"/>
      <point x="137" y="528" type="line"/>
      <point x="132" y="627" type="line"/>
      <point x="233" y="627" type="line"/>
      <point x="228" y="529" type="line"/>
      <point x="322" y="564" type="line"/>
      <point x="353" y="468" type="line"/>
    </contour>
  </outline>
</glyph>
<glyph name="comma" format="1">
  <advance width="195.0"/>
  <unicode hex="002C"/>
  <outline>
    <contour>
      <point x="174" y="138" type="line"/>
      <point x="144" y="-40" type="line" smooth="yes"/>
      <point x="140" y="-63"/>
      <point x="108" y="-90"/>
      <point x="83" y="-90" type="qcurve"/>
      <point x="30" y="-90" type="line"/>
      <point x="30" y="138" type="line"/>
    </contour>
  </outline>
</glyph>
<glyph name="zero" format="1">
  <advance width="567.0"/>
  <unicode hex="0030"/>
  <outline>
    <contour>
      <point x="536" y="314" type="qcurve"/>
      <point x="536" y="136"/>
      <point x="426" y="-10"/>
      <point x="284" y="-10" type="qcurve"/>
      <point x="196" y="-10"/>
      <point x="97" y="30"/>
      <point x="71" y="76" type="qcurve" smooth="yes"/>
      <point x="50" y="112"/>
      <point x="31" y="226"/>
      <point x="31" y="314" type="qcurve"/>
      <point x="31" y="491"/>
      <point x="142" y="637"/>
      <point x="284" y="637" type="qcurve"/>
      <point x="372" y="637"/>
      <point x="471" y="597"/>
      <point x="497" y="551" type="qcurve" smooth="yes"/>
      <point x="517" y="516"/>
      <point x="536" y="402"/>
    </contour>
    <contour>
      <point x="379" y="314" type="qcurve"/>
      <point x="379" y="428"/>
      <point x="344" y="497"/>
      <point x="284" y="497" type="qcurve"/>
      <point x="224" y="497"/>
      <point x="188" y="427"/>
      <point x="188" y="314" type="qcurve"/>
      <point x="188" y="204"/>
      <point x="224" y="135"/>
      <point x="284" y="135" type="qcurve"/>
      <point x="344" y="135"/>
      <point x="379" y="203"/>
    </contour>
  </outline>
</glyph>
<glyph name="one" format="1">
  <advance width="368.0"/>
  <unicode hex="0031"/>
  <outline>
    <contour>
      <point x="313" y="0" type="line"/>
      <point x="158" y="0" type="line"/>
      <point x="158" y="489" type="line"/>
      <point x="9" y="472" type="line"/>
      <point x="9" y="602" type="line"/>
      <point x="313" y="637" type="line"/>
    </contour>
  </outline>
</glyph>
<glyph name="two" format="1">
  <advance width="460.0"/>
  <unicode hex="0032"/>
  <outline>
    <contour>
      <point x="427" y="145" type="line"/>
      <point x="427" y="0" type="line"/>
      <point x="21" y="0" type="line"/>
      <point x="21" y="145" type="line"/>
      <point x="234" y="370" type="line" smooth="yes"/>
      <point x="255" y="391"/>
      <point x="272" y="428"/>
      <point x="272" y="450" type="qcurve"/>
      <point x="272" y="473"/>
      <point x="246" y="497"/>
      <point x="221" y="497" type="qcurve" smooth="yes"/>
      <point x="189" y="497"/>
      <point x="103" y="488"/>
      <point x="50" y="478" type="qcurve"/>
      <point x="50" y="613" type="line"/>
      <point x="88" y="624"/>
      <point x="197" y="637"/>
      <point x="250" y="637" type="qcurve"/>
      <point x="334" y="637"/>
      <point x="427" y="550"/>
      <point x="427" y="473" type="qcurve"/>
      <point x="427" y="421"/>
      <point x="396" y="344"/>
      <point x="359" y="306" type="qcurve"/>
      <point x="205" y="145" type="line"/>
    </contour>
  </outline>
</glyph>
<glyph name="three" format="1">
  <advance width="453.0"/>
  <unicode hex="0033"/>
  <outline>
    <contour>
      <point x="403" y="475" type="qcurve" smooth="yes"/>
      <point x="403" y="417"/>
      <point x="355" y="345"/>
      <point x="307" y="331" type="qcurve"/>
      <point x="307" y="329" type="line"/>
      <point x="366" y="325"/>
      <point x="426" y="249"/>
      <point x="426" y="180" type="qcurve"/>
      <point x="426" y="88"/>
      <point x="315" y="-10"/>
      <point x="211" y="-10" type="qcurve"/>
      <point x="152" y="-10"/>
      <point x="51" y="1"/>
      <point x="25" y="11" type="qcurve"/>
      <point x="25" y="143" type="line"/>
      <point x="62" y="136"/>
      <point x="136" y="130"/>
      <point x="183" y="130" type="qcurve" smooth="yes"/>
      <point x="238" y="130"/>
      <point x="281" y="158"/>
      <point x="281" y="194" type="qcurve" smooth="yes"/>
      <point x="281" y="227"/>
      <point x="243" y="257"/>
      <point x="203" y="257" type="qcurve"/>
      <point x="90" y="257" type="line"/>
      <point x="90" y="385" type="line"/>
      <point x="179" y="385" type="line" smooth="yes"/>
      <point x="220" y="385"/>
      <point x="258" y="413"/>
      <point x="258" y="444" type="qcurve" smooth="yes"/>
      <point x="258" y="476"/>
      <point x="225" y="502"/>
      <point x="186" y="502" type="qcurve"/>
      <point x="162" y="502"/>
      <point x="88" y="494"/>
      <point x="38" y="486" type="qcurve"/>
      <point x="38" y="611" type="line"/>
      <point x="70" y="622"/>
      <point x="183" y="637"/>
      <point x="233" y="637" type="qcurve" smooth="yes"/>
      <point x="317" y="637"/>
      <point x="403" y="555"/>
    </contour>
  </outline>
</glyph>
<glyph name="four" format="1">
  <advance width="522.0"/>
  <unicode hex="0034"/>
  <outline>
    <contour>
      <point x="505" y="277" type="line"/>
      <point x="505" y="142" type="line"/>
      <point x="437" y="142" type="line"/>
      <point x="437" y="0" type="line"/>
      <point x="282" y="0" type="line"/>
      <point x="282" y="142" type="line"/>
      <point x="23" y="142" type="line"/>
      <point x="23" y="277" type="line"/>
      <point x="94" y="627" type="line"/>
      <point x="243" y="627" type="line"/>
      <point x="180" y="277" type="line"/>
      <point x="282" y="277" type="line"/>
      <point x="282" y="517" type="line"/>
      <point x="437" y="517" type="line"/>
      <point x="437" y="277" type="line"/>
    </contour>
  </outline>
</glyph>
<glyph name="five" format="1">
  <advance width="459.0"/>
  <unicode hex="0035"/>
  <outline>
    <contour>
      <point x="436" y="189" type="qcurve"/>
      <point x="436" y="93"/>
      <point x="330" y="-10"/>
      <point x="233" y="-10" type="qcurve"/>
      <point x="159" y="-10"/>
      <point x="57" y="1"/>
      <point x="29" y="11" type="qcurve"/>
      <point x="29" y="148" type="line"/>
      <point x="65" y="141"/>
      <point x="142" y="135"/>
      <point x="189" y="135" type="qcurve"/>
      <point x="239" y="135"/>
      <point x="281" y="161"/>
      <point x="281" y="191" type="qcurve"/>
      <point x="281" y="228"/>
      <point x="242" y="253"/>
      <point x="185" y="253" type="qcurve"/>
      <point x="130" y="252"/>
      <point x="77" y="247"/>
      <point x="55" y="243" type="qcurve"/>
      <point x="55" y="627" type="line"/>
      <point x="396" y="627" type="line"/>
      <point x="396" y="487" type="line"/>
      <point x="210" y="487" type="line"/>
      <point x="210" y="377" type="line"/>
      <point x="224" y="378"/>
      <point x="259" y="380"/>
      <point x="275" y="380" type="qcurve" smooth="yes"/>
      <point x="361" y="380"/>
      <point x="436" y="287"/>
    </contour>
  </outline>
</glyph>
<glyph name="six" format="1">
  <advance width="509.0"/>
  <unicode hex="0036"/>
  <outline>
    <contour>
      <point x="270" y="-10" type="qcurve"/>
      <point x="135" y="-10"/>
      <point x="30" y="124"/>
      <point x="30" y="297" type="qcurve"/>
      <point x="30" y="473"/>
      <point x="173" y="637"/>
      <point x="326" y="637" type="qcurve"/>
      <point x="355" y="637"/>
      <point x="416" y="632"/>
      <point x="429" y="628" type="qcurve"/>
      <point x="429" y="499" type="line"/>
      <point x="405" y="501"/>
      <point x="352" y="504"/>
      <point x="326" y="504" type="qcurve"/>
      <point x="257" y="504"/>
      <point x="199" y="452"/>
      <point x="190" y="384" type="qcurve"/>
      <point x="224" y="402"/>
      <point x="287" y="416"/>
      <point x="324" y="416" type="qcurve"/>
      <point x="407" y="416"/>
      <point x="489" y="316"/>
      <point x="489" y="214" type="qcurve"/>
      <point x="489" y="109"/>
      <point x="373" y="-10"/>
    </contour>
    <contour>
      <point x="339" y="206" type="qcurve"/>
      <point x="339" y="253"/>
      <point x="311" y="287"/>
      <point x="268" y="287" type="qcurve"/>
      <point x="249" y="287"/>
      <point x="201" y="277"/>
      <point x="185" y="271" type="qcurve"/>
      <point x="186" y="180"/>
      <point x="217" y="126"/>
      <point x="265" y="126" type="qcurve"/>
      <point x="302" y="126"/>
      <point x="339" y="165"/>
    </contour>
  </outline>
</glyph>
<glyph name="seven" format="1">
  <advance width="449.0"/>
  <unicode hex="0037"/>
  <outline>
    <contour>
      <point x="431" y="627" type="line"/>
      <point x="431" y="487" type="line"/>
      <point x="190" y="0" type="line"/>
      <point x="15" y="0" type="line"/>
      <point x="265" y="487" type="line"/>
      <point x="24" y="487" type="line"/>
      <point x="24" y="627" type="line"/>
    </contour>
  </outline>
</glyph>
<glyph name="eight" format="1">
  <advance width="515.0"/>
  <unicode hex="0038"/>
  <outline>
    <contour>
      <point x="486" y="171" type="qcurve"/>
      <point x="486" y="76"/>
      <point x="377" y="-10"/>
      <point x="257" y="-10" type="qcurve"/>
      <point x="133" y="-10"/>
      <point x="29" y="73"/>
      <point x="29" y="171" type="qcurve"/>
      <point x="29" y="230"/>
      <point x="84" y="310"/>
      <point x="135" y="324" type="qcurve"/>
      <point x="86" y="340"/>
      <point x="39" y="413"/>
      <point x="40" y="470" type="qcurve"/>
      <point x="40" y="557"/>
      <point x="144" y="637"/>
      <point x="257" y="637" type="qcurve"/>
      <point x="375" y="637"/>
      <point x="475" y="561"/>
      <point x="475" y="470" type="qcurve"/>
      <point x="475" y="413"/>
      <point x="428" y="340"/>
      <point x="380" y="324" type="qcurve"/>
      <point x="431" y="310"/>
      <point x="486" y="230"/>
    </contour>
    <contour>
      <point x="337" y="447" type="qcurve"/>
      <point x="337" y="481"/>
      <point x="301" y="510"/>
      <point x="257" y="510" type="qcurve"/>
      <point x="214" y="510"/>
      <point x="178" y="482"/>
      <point x="178" y="447" type="qcurve"/>
      <point x="178" y="410"/>
      <point x="214" y="379"/>
      <point x="257" y="379" type="qcurve"/>
      <point x="300" y="379"/>
      <point x="337" y="410"/>
    </contour>
    <contour>
      <point x="341" y="192" type="qcurve"/>
      <point x="341" y="227"/>
      <point x="303" y="257"/>
      <point x="257" y="257" type="qcurve"/>
      <point x="212" y="257"/>
      <point x="174" y="228"/>
      <point x="174" y="192" type="qcurve"/>
      <point x="174" y="154"/>
      <point x="211" y="122"/>
      <point x="257" y="122" type="qcurve"/>
      <point x="303" y="122"/>
      <point x="341" y="154"/>
    </contour>
  </outline>
</glyph>
<glyph name="nine" format="1">
  <advance width="511.0"/>
  <unicode hex="0039"/>
  <outline>
    <contour>
      <point x="246" y="637" type="qcurve"/>
      <point x="379" y="637"/>
      <point x="481" y="503"/>
      <point x="481" y="330" type="qcurve"/>
      <point x="481" y="154"/>
      <point x="337" y="-10"/>
      <point x="184" y="-10" type="qcurve"/>
      <point x="154" y="-10"/>
      <point x="90" y="-5"/>
      <point x="76" y="-1" type="qcurve"/>
      <point x="76" y="130" type="line"/>
      <point x="94" y="128"/>
      <point x="150" y="125"/>
      <point x="184" y="125" type="qcurve"/>
      <point x="253" y="125"/>
      <point x="312" y="177"/>
      <point x="321" y="244" type="qcurve"/>
      <point x="285" y="226"/>
      <point x="223" y="211"/>
      <point x="190" y="211" type="qcurve"/>
      <point x="104" y="211"/>
      <point x="20" y="311"/>
      <point x="20" y="413" type="qcurve"/>
      <point x="20" y="519"/>
      <point x="139" y="637"/>
    </contour>
    <contour>
      <point x="246" y="501" type="qcurve"/>
      <point x="208" y="501"/>
      <point x="171" y="462"/>
      <point x="171" y="421" type="qcurve"/>
      <point x="171" y="374"/>
      <point x="200" y="340"/>
      <point x="243" y="340" type="qcurve"/>
      <point x="268" y="340"/>
      <point x="309" y="349"/>
      <point x="326" y="358" type="qcurve"/>
      <point x="325" y="447"/>
      <point x="294" y="501"/>
    </contour>
  </outline>
</glyph>
<glyph name="question" format="1">
  <advance width="371.0"/>
  <unicode hex="003F"/>
  <outline>
    <contour>
      <point x="185" y="637" type="qcurve" smooth="yes"/>
      <point x="264" y="637"/>
      <point x="355" y="565"/>
      <point x="355" y="499" type="qcurve" smooth="yes"/>
      <point x="355" y="443"/>
      <point x="296" y="347"/>
      <point x="229" y="300" type="qcurve"/>
      <point x="229" y="203" type="line"/>
      <point x="93" y="203" type="line"/>
      <point x="93" y="346" type="line"/>
      <point x="158" y="384"/>
      <point x="210" y="438"/>
      <point x="210" y="463" type="qcurve" smooth="yes"/>
      <point x="210" y="484"/>
      <point x="187" y="504"/>
      <point x="160" y="504" type="qcurve"/>
      <point x="130" y="504"/>
      <point x="45" y="489"/>
      <point x="18" y="479" type="qcurve"/>
      <point x="18" y="609" type="line"/>
      <point x="56" y="624"/>
      <point x="134" y="637"/>
    </contour>
    <contour>
      <point x="238" y="134" type="line"/>
      <point x="238" y="0" type="line"/>
      <point x="83" y="0" type="line"/>
      <point x="83" y="134" type="line"/>
    </contour>
  </outline>
</glyph>
<glyph name="at" format="1">
  <advance width="617.0"/>
  <unicode hex="0040"/>
  <outline>
    <contour>
      <point x="281" y="82" type="qcurve"/>
      <point x="234" y="82"/>
      <point x="190" y="130"/>
      <point x="190" y="180" type="qcurve"/>
      <point x="190" y="232"/>
      <point x="241" y="274"/>
      <point x="305" y="274" type="qcurve"/>
      <point x="316" y="274"/>
      <point x="341" y="272"/>
      <point x="359" y="269" type="qcurve"/>
      <point x="359" y="285" type="line" smooth="yes"/>
      <point x="359" y="299"/>
      <point x="336" y="313"/>
      <point x="311" y="313" type="qcurve" smooth="yes"/>
      <point x="280" y="313"/>
      <point x="233" y="310"/>
      <point x="216" y="306" type="qcurve"/>
      <point x="216" y="390" type="line"/>
      <point x="239" y="396"/>
      <point x="299" y="401"/>
      <point x="339" y="401" type="qcurve"/>
      <point x="394" y="401"/>
      <point x="450" y="350"/>
      <point x="450" y="300" type="qcurve"/>
      <point x="450" y="183" type="line" smooth="yes"/>
      <point x="450" y="174"/>
      <point x="455" y="166"/>
      <point x="461" y="166" type="qcurve"/>
      <point x="477" y="166"/>
      <point x="502" y="235"/>
      <point x="502" y="287" type="qcurve" smooth="yes"/>
      <point x="502" y="372"/>
      <point x="414" y="462"/>
      <point x="329" y="462" type="qcurve"/>
      <point x="217" y="462"/>
      <point x="131" y="361"/>
      <point x="131" y="235" type="qcurve" smooth="yes"/>
      <point x="131" y="124"/>
      <point x="235" y="23"/>
      <point x="356" y="23" type="qcurve"/>
      <point x="398" y="23"/>
      <point x="483" y="42"/>
      <point x="514" y="59" type="qcurve"/>
      <point x="514" y="-36" type="line"/>
      <point x="480" y="-56"/>
      <point x="387" y="-76"/>
      <point x="329" y="-76" type="qcurve"/>
      <point x="179" y="-76"/>
      <point x="25" y="82"/>
      <point x="25" y="236" type="qcurve" smooth="yes"/>
      <point x="25" y="393"/>
      <point x="180" y="557"/>
      <point x="328" y="557" type="qcurve"/>
      <point x="460" y="557"/>
      <point x="600" y="424"/>
      <point x="600" y="299" type="qcurve" smooth="yes"/>
      <point x="600" y="204"/>
      <point x="514" y="82"/>
      <point x="446" y="82" type="qcurve"/>
      <point x="424" y="82"/>
      <point x="393" y="102"/>
      <point x="385" y="121" type="qcurve"/>
      <point x="367" y="103"/>
      <point x="310" y="82"/>
    </contour>
    <contour>
      <point x="320" y="210" type="qcurve"/>
      <point x="296" y="210"/>
      <point x="281" y="201"/>
      <point x="281" y="186" type="qcurve" smooth="yes"/>
      <point x="281" y="172"/>
      <point x="293" y="162"/>
      <point x="309" y="162" type="qcurve"/>
      <point x="321" y="162"/>
      <point x="348" y="169"/>
      <point x="359" y="174" type="qcurve"/>
      <point x="359" y="207" type="line"/>
      <point x="353" y="209"/>
      <point x="334" y="210"/>
    </contour>
  </outline>
</glyph>
<glyph name="A" format="1">
  <advance width="615.0"/>
  <unicode hex="0041"/>
  <outline>
    <contour>
      <point x="160" y="0" type="line"/>
      <point x="-3" y="0" type="line"/>
      <point x="229" y="627" type="line"/>
      <point x="390" y="627" type="line"/>
      <point x="616" y="0" type="line"/>
      <point x="454" y="0" type="line"/>
      <point x="421" y="105" type="line"/>
      <point x="193" y="105" type="line"/>
    </contour>
    <contour>
      <point x="306" y="473" type="qcurve"/>
      <point x="298" y="445"/>
      <point x="279" y="382"/>
      <point x="257" y="311" type="qcurve"/>
      <point x="231" y="228" type="line"/>
      <point x="382" y="228" type="line"/>
      <point x="356" y="311" type="line" smooth="yes"/>
      <point x="343" y="349"/>
      <point x="317" y="434"/>
    </contour>
    <contour>
      <point x="308.0" y="645" type="move" name="top"/>
    </contour>
    <contour>
      <point x="613.0" y="0" type="move" name="ogonek"/>
    </contour>
  </outline>
</glyph>
<glyph name="B" format="1">
  <advance width="557.0"/>
  <unicode hex="0042"/>
  <outline>
    <contour>
      <point x="537" y="184" type="qcurve"/>
      <point x="537" y="89"/>
      <point x="426" y="0"/>
      <point x="307" y="0" type="qcurve"/>
      <point x="48" y="0" type="line"/>
      <point x="48" y="627" type="line"/>
      <point x="307" y="627" type="line" smooth="yes"/>
      <point x="415" y="627"/>
      <point x="506" y="552"/>
      <point x="506" y="464" type="qcurve"/>
      <point x="506" y="408"/>
      <point x="476" y="349"/>
      <point x="431" y="333" type="qcurve"/>
      <point x="485" y="322"/>
      <point x="537" y="248"/>
    </contour>
    <contour>
      <point x="363" y="441" type="qcurve"/>
      <point x="363" y="474"/>
      <point x="338" y="500"/>
      <point x="307" y="500" type="qcurve"/>
      <point x="203" y="500" type="line"/>
      <point x="203" y="373" type="line"/>
      <point x="307" y="373" type="line" smooth="yes"/>
      <point x="338" y="373"/>
      <point x="363" y="404"/>
    </contour>
    <contour>
      <point x="387" y="194" type="qcurve"/>
      <point x="387" y="230"/>
      <point x="351" y="259"/>
      <point x="307" y="259" type="qcurve"/>
      <point x="203" y="259" type="line"/>
      <point x="203" y="132" type="line"/>
      <point x="307" y="132" type="line" smooth="yes"/>
      <point x="351" y="132"/>
      <point x="387" y="160"/>
    </contour>
  </outline>
</glyph>
<glyph name="C" format="1">
  <advance width="508.0"/>
  <unicode hex="0043"/>
  <outline>
    <contour>
      <point x="320" y="135" type="qcurve"/>
      <point x="360" y="135"/>
      <point x="454" y="152"/>
      <point x="491" y="166" type="qcurve"/>
      <point x="491" y="29" type="line"/>
      <point x="436" y="7"/>
      <point x="348" y="-10"/>
      <point x="300" y="-10" type="qcurve"/>
      <point x="213" y="-10"/>
      <point x="109" y="30"/>
      <point x="78" y="74" type="qcurve" smooth="yes"/>
      <point x="52" y="112"/>
      <point x="27" y="230"/>
      <point x="27" y="314" type="qcurve" smooth="yes"/>
      <point x="27" y="482"/>
      <point x="172" y="637"/>
      <point x="330" y="637" type="qcurve"/>
      <point x="376" y="637"/>
      <point x="448" y="633"/>
      <point x="477" y="628" type="qcurve"/>
      <point x="477" y="493" type="line"/>
      <point x="444" y="495"/>
      <point x="373" y="497"/>
      <point x="330" y="497" type="qcurve"/>
      <point x="275" y="497"/>
      <point x="222" y="476"/>
      <point x="209" y="450" type="qcurve" smooth="yes"/>
      <point x="197" y="430"/>
      <point x="187" y="364"/>
      <point x="187" y="314" type="qcurve" smooth="yes"/>
      <point x="187" y="267"/>
      <point x="196" y="204"/>
      <point x="206" y="183" type="qcurve" smooth="yes"/>
      <point x="219" y="157"/>
      <point x="269" y="135"/>
    </contour>
    <contour>
      <point x="299.0" y="655.0" type="move" name="top"/>
    </contour>
    <contour>
      <point x="293.0" y="0.0" type="move" name="bottom"/>
    </contour>
  </outline>
</glyph>
<glyph name="D" format="1">
  <advance width="602.0"/>
  <unicode hex="0044"/>
  <outline>
    <contour>
      <point x="267" y="0" type="qcurve"/>
      <point x="48" y="0" type="line"/>
      <point x="48" y="627" type="line"/>
      <point x="267" y="627" type="line" smooth="yes"/>
      <point x="363" y="627"/>
      <point x="476" y="595"/>
      <point x="510" y="560" type="qcurve" smooth="yes"/>
      <point x="544" y="525"/>
      <point x="575" y="406"/>
      <point x="575" y="314" type="qcurve"/>
      <point x="575" y="151"/>
      <point x="429" y="0"/>
    </contour>
    <contour>
      <point x="390" y="447" type="qcurve" smooth="yes"/>
      <point x="376" y="468"/>
      <point x="322" y="487"/>
      <point x="267" y="487" type="qcurve"/>
      <point x="203" y="487" type="line"/>
      <point x="203" y="145" type="line"/>
      <point x="267" y="145" type="line" smooth="yes"/>
      <point x="321" y="145"/>
      <point x="375" y="163"/>
      <point x="390" y="183" type="qcurve" smooth="yes"/>
      <point x="403" y="202"/>
      <point x="415" y="265"/>
      <point x="415" y="314" type="qcurve"/>
      <point x="415" y="364"/>
      <point x="403" y="427"/>
    </contour>
    <contour>
      <point x="283.0" y="645" type="move" name="top"/>
    </contour>
  </outline>
</glyph>
<glyph name="E" format="1">
  <advance width="505.0"/>
  <unicode hex="0045"/>
  <outline>
    <contour>
      <point x="480" y="145" type="line"/>
      <point x="480" y="0" type="line"/>
      <point x="48" y="0" type="line"/>
      <point x="48" y="627" type="line"/>
      <point x="471" y="627" type="line"/>
      <point x="471" y="487" type="line"/>
      <point x="203" y="487" type="line"/>
      <point x="203" y="383" type="line"/>
      <point x="434" y="383" type="line"/>
      <point x="434" y="253" type="line"/>
      <point x="203" y="253" type="line"/>
      <point x="203" y="145" type="line"/>
    </contour>
    <contour>
      <point x="270.0" y="645" type="move" name="top"/>
    </contour>
    <contour>
      <point x="444.0" y="0" type="move" name="ogonek"/>
    </contour>
  </outline>
</glyph>
<glyph name="F" format="1">
  <advance width="489.0"/>
  <unicode hex="0046"/>
  <outline>
    <contour>
      <point x="203" y="228" type="line"/>
      <point x="203" y="0" type="line"/>
      <point x="48" y="0" type="line"/>
      <point x="48" y="627" type="line"/>
      <point x="471" y="627" type="line"/>
      <point x="471" y="487" type="line"/>
      <point x="203" y="487" type="line"/>
      <point x="203" y="358" type="line"/>
      <point x="434" y="358" type="line"/>
      <point x="434" y="228" type="line"/>
    </contour>
  </outline>
</glyph>
<glyph name="G" format="1">
  <advance width="578.0"/>
  <unicode hex="0047"/>
  <outline>
    <contour>
      <point x="403" y="233" type="line"/>
      <point x="295" y="233" type="line"/>
      <point x="295" y="358" type="line"/>
      <point x="548" y="358" type="line"/>
      <point x="548" y="28" type="line"/>
      <point x="520" y="15"/>
      <point x="376" y="-10"/>
      <point x="317" y="-10" type="qcurve"/>
      <point x="154" y="-10"/>
      <point x="27" y="140"/>
      <point x="27" y="314" type="qcurve" smooth="yes"/>
      <point x="27" y="482"/>
      <point x="175" y="637"/>
      <point x="337" y="637" type="qcurve"/>
      <point x="396" y="637"/>
      <point x="489" y="632"/>
      <point x="514" y="627" type="qcurve"/>
      <point x="514" y="491" type="line"/>
      <point x="481" y="494"/>
      <point x="390" y="497"/>
      <point x="337" y="497" type="qcurve"/>
      <point x="280" y="497"/>
      <point x="225" y="477"/>
      <point x="211" y="452" type="qcurve" smooth="yes"/>
      <point x="198" y="432"/>
      <point x="187" y="365"/>
      <point x="187" y="314" type="qcurve" smooth="yes"/>
      <point x="187" y="265"/>
      <point x="197" y="199"/>
      <point x="208" y="179" type="qcurve" smooth="yes"/>
      <point x="222" y="152"/>
      <point x="273" y="130"/>
      <point x="327" y="130" type="qcurve"/>
      <point x="345" y="130"/>
      <point x="384" y="133"/>
      <point x="403" y="136" type="qcurve"/>
    </contour>
    <contour>
      <point x="319.0" y="0" type="move" name="bottom"/>
    </contour>
    <contour>
      <point x="323.0" y="655" type="move" name="top"/>
    </contour>
  </outline>
</glyph>
<glyph name="H" format="1">
  <advance width="626.0"/>
  <unicode hex="0048"/>
  <outline>
    <contour>
      <point x="203" y="0" type="line"/>
      <point x="48" y="0" type="line"/>
      <point x="48" y="627" type="line"/>
      <point x="203" y="627" type="line"/>
      <point x="203" y="388" type="line"/>
      <point x="423" y="388" type="line"/>
      <point x="423" y="627" type="line"/>
      <point x="578" y="627" type="line"/>
      <point x="578" y="0" type="line"/>
      <point x="423" y="0" type="line"/>
      <point x="423" y="248" type="line"/>
      <point x="203" y="248" type="line"/>
    </contour>
    <contour>
      <point x="314.0" y="645" type="move" name="top"/>
    </contour>
  </outline>
</glyph>
<glyph name="J" format="1">
  <advance width="416.0"/>
  <unicode hex="004A"/>
  <outline>
    <contour>
      <point x="217" y="244" type="qcurve"/>
      <point x="217" y="627" type="line"/>
      <point x="372" y="627" type="line"/>
      <point x="372" y="234" type="line"/>
      <point x="372" y="103"/>
      <point x="258" y="-10"/>
      <point x="125" y="-10" type="qcurve"/>
      <point x="91" y="-10"/>
      <point x="36" y="-5"/>
      <point x="12" y="1" type="qcurve"/>
      <point x="12" y="142" type="line"/>
      <point x="32" y="138"/>
      <point x="78" y="135"/>
      <point x="107" y="135" type="qcurve"/>
      <point x="176" y="135"/>
      <point x="217" y="177"/>
    </contour>
    <contour>
      <point x="295.0" y="645" type="move" name="top"/>
    </contour>
  </outline>
</glyph>
<glyph name="K" format="1">
  <advance width="600.0"/>
  <unicode hex="004B"/>
  <outline>
    <contour>
      <point x="377" y="323" type="line"/>
      <point x="612" y="0" type="line"/>
      <point x="416" y="0" type="line"/>
      <point x="245" y="256" type="line"/>
      <point x="203" y="256" type="line"/>
      <point x="203" y="0" type="line"/>
      <point x="48" y="0" type="line"/>
      <point x="48" y="627" type="line"/>
      <point x="203" y="627" type="line"/>
      <point x="203" y="380" type="line"/>
      <point x="245" y="380" type="line"/>
      <point x="418" y="627" type="line"/>
      <point x="604" y="627" type="line"/>
    </contour>
    <contour>
      <point x="291.0" y="0" type="move" name="bottom"/>
    </contour>
  </outline>
</glyph>
<glyph name="L" format="1">
  <advance width="461.0"/>
  <unicode hex="004C"/>
  <outline>
    <contour>
      <point x="448" y="145" type="line"/>
      <point x="448" y="0" type="line"/>
      <point x="48" y="0" type="line"/>
      <point x="48" y="627" type="line"/>
      <point x="203" y="627" type="line"/>
      <point x="203" y="145" type="line"/>
    </contour>
    <contour>
      <point x="126.0" y="645" type="move" name="top"/>
    </contour>
    <contour>
      <point x="303.0" y="627" type="move" name="caronalt"/>
    </contour>
    <contour>
      <point x="261.0" y="0" type="move" name="bottom"/>
    </contour>
  </outline>
</glyph>
<glyph name="M" format="1">
  <advance width="724.0"/>
  <unicode hex="004D"/>
  <outline>
    <contour>
      <point x="676" y="627" type="line"/>
      <point x="676" y="0" type="line"/>
      <point x="531" y="0" type="line"/>
      <point x="531" y="376" type="line"/>
      <point x="424" y="120" type="line"/>
      <point x="298" y="120" type="line"/>
      <point x="193" y="376" type="line"/>
      <point x="193" y="0" type="line"/>
      <point x="48" y="0" type="line"/>
      <point x="48" y="627" type="line"/>
      <point x="237" y="627" type="line"/>
      <point x="364" y="311" type="line"/>
      <point x="494" y="627" type="line"/>
    </contour>
  </outline>
</glyph>
<glyph name="N" format="1">
  <advance width="637.0"/>
  <unicode hex="004E"/>
  <outline>
    <contour>
      <point x="589" y="627" type="line"/>
      <point x="589" y="0" type="line"/>
      <point x="441" y="0" type="line"/>
      <point x="193" y="362" type="line"/>
      <point x="193" y="0" type="line"/>
      <point x="48" y="0" type="line"/>
      <point x="48" y="627" type="line"/>
      <point x="195" y="627" type="line"/>
      <point x="444" y="251" type="line"/>
      <point x="444" y="627" type="line"/>
    </contour>
    <contour>
      <point x="325.0" y="645" type="move" name="top"/>
    </contour>
    <contour>
      <point x="316.0" y="0" type="move" name="bottom"/>
    </contour>
  </outline>
</glyph>
<glyph name="O" format="1">
  <advance width="644.0"/>
  <unicode hex="004F"/>
  <outline>
    <contour>
      <point x="617" y="314" type="qcurve"/>
      <point x="617" y="143"/>
      <point x="478" y="-10"/>
      <point x="322" y="-10" type="qcurve"/>
      <point x="159" y="-10"/>
      <point x="27" y="134"/>
      <point x="27" y="314" type="qcurve"/>
      <point x="27" y="485"/>
      <point x="166" y="637"/>
      <point x="322" y="637" type="qcurve"/>
      <point x="485" y="637"/>
      <point x="617" y="493"/>
    </contour>
    <contour>
      <point x="203" y="180" type="qcurve" smooth="yes"/>
      <point x="216" y="155"/>
      <point x="267" y="135"/>
      <point x="322" y="135" type="qcurve"/>
      <point x="377" y="135"/>
      <point x="428" y="155"/>
      <point x="441" y="180" type="qcurve" smooth="yes"/>
      <point x="451" y="200"/>
      <point x="460" y="264"/>
      <point x="460" y="314" type="qcurve"/>
      <point x="460" y="365"/>
      <point x="451" y="430"/>
      <point x="441" y="450" type="qcurve" smooth="yes"/>
      <point x="429" y="476"/>
      <point x="378" y="497"/>
      <point x="322" y="497" type="qcurve"/>
      <point x="266" y="497"/>
      <point x="215" y="476"/>
      <point x="203" y="450" type="qcurve" smooth="yes"/>
      <point x="193" y="430"/>
      <point x="184" y="365"/>
      <point x="184" y="314" type="qcurve"/>
      <point x="184" y="264"/>
      <point x="193" y="200"/>
    </contour>
    <contour>
      <point x="322.0" y="655.0" type="move" name="top"/>
    </contour>
  </outline>
</glyph>
<glyph name="P" format="1">
  <advance width="561.0"/>
  <unicode hex="0050"/>
  <outline>
    <contour>
      <point x="203" y="176" type="line"/>
      <point x="203" y="0" type="line"/>
      <point x="48" y="0" type="line"/>
      <point x="48" y="627" type="line"/>
      <point x="277" y="627" type="line" smooth="yes"/>
      <point x="422" y="627"/>
      <point x="544" y="526"/>
      <point x="544" y="407" type="qcurve"/>
      <point x="544" y="289"/>
      <point x="415" y="176"/>
      <point x="280" y="176" type="qcurve"/>
    </contour>
    <contour>
      <point x="387" y="407" type="qcurve"/>
      <point x="387" y="451"/>
      <point x="339" y="487"/>
      <point x="277" y="487" type="qcurve"/>
      <point x="203" y="487" type="line"/>
      <point x="203" y="312" type="line"/>
      <point x="277" y="312" type="line" smooth="yes"/>
      <point x="340" y="312"/>
      <point x="387" y="354"/>
    </contour>
  </outline>
</glyph>
<glyph name="Q" format="1">
  <advance width="644.0"/>
  <unicode hex="0051"/>
  <outline>
    <contour>
      <point x="322" y="-10" type="qcurve"/>
      <point x="159" y="-10"/>
      <point x="27" y="134"/>
      <point x="27" y="314" type="qcurve"/>
      <point x="27" y="485"/>
      <point x="166" y="637"/>
      <point x="322" y="637" type="qcurve"/>
      <point x="485" y="637"/>
      <point x="617" y="493"/>
      <point x="617" y="314" type="qcurve"/>
      <point x="617" y="200"/>
      <point x="558" y="60"/>
      <point x="495" y="26" type="qcurve"/>
      <point x="617" y="-128" type="line"/>
      <point x="439" y="-128" type="line"/>
      <point x="348" y="-9" type="line"/>
      <point x="344" y="-10"/>
      <point x="333" y="-10"/>
    </contour>
    <contour>
      <point x="203" y="180" type="qcurve" smooth="yes"/>
      <point x="216" y="155"/>
      <point x="267" y="135"/>
      <point x="322" y="135" type="qcurve"/>
      <point x="377" y="135"/>
      <point x="428" y="155"/>
      <point x="441" y="180" type="qcurve" smooth="yes"/>
      <point x="451" y="200"/>
      <point x="460" y="264"/>
      <point x="460" y="314" type="qcurve"/>
      <point x="460" y="365"/>
      <point x="451" y="430"/>
      <point x="441" y="450" type="qcurve" smooth="yes"/>
      <point x="429" y="476"/>
      <point x="378" y="497"/>
      <point x="322" y="497" type="qcurve"/>
      <point x="266" y="497"/>
      <point x="215" y="476"/>
      <point x="203" y="450" type="qcurve" smooth="yes"/>
      <point x="193" y="430"/>
      <point x="184" y="365"/>
      <point x="184" y="314" type="qcurve"/>
      <point x="184" y="264"/>
      <point x="193" y="200"/>
    </contour>
  </outline>
</glyph>
<glyph name="R" format="1">
  <advance width="577.0"/>
  <unicode hex="0052"/>
  <outline>
    <contour>
      <point x="203" y="202" type="line"/>
      <point x="203" y="0" type="line"/>
      <point x="48" y="0" type="line"/>
      <point x="48" y="627" type="line"/>
      <point x="277" y="627" type="line" smooth="yes"/>
      <point x="422" y="627"/>
      <point x="544" y="529"/>
      <point x="544" y="415" type="qcurve"/>
      <point x="544" y="338"/>
      <point x="479" y="241"/>
      <point x="413" y="219" type="qcurve"/>
      <point x="566" y="0" type="line"/>
      <point x="380" y="0" type="line"/>
      <point x="250" y="202" type="line"/>
    </contour>
    <contour>
      <point x="387" y="415" type="qcurve"/>
      <point x="387" y="455"/>
      <point x="339" y="487"/>
      <point x="277" y="487" type="qcurve"/>
      <point x="203" y="487" type="line"/>
      <point x="203" y="327" type="line"/>
      <point x="277" y="327" type="line" smooth="yes"/>
      <point x="339" y="327"/>
      <point x="387" y="366"/>
    </contour>
    <contour>
      <point x="287.0" y="0" type="move" name="bottom"/>
    </contour>
    <contour>
      <point x="271.0" y="645" type="move" name="top"/>
    </contour>
  </outline>
</glyph>
<glyph name="S" format="1">
  <advance width="489.0"/>
  <unicode hex="0053"/>
  <outline>
    <contour>
      <point x="286" y="234" type="qcurve"/>
      <point x="159" y="264" type="line" smooth="yes"/>
      <point x="83" y="282"/>
      <point x="28" y="356"/>
      <point x="28" y="425" type="qcurve" smooth="yes"/>
      <point x="28" y="534"/>
      <point x="143" y="637"/>
      <point x="264" y="637" type="qcurve" smooth="yes"/>
      <point x="314" y="637"/>
      <point x="392" y="629"/>
      <point x="425" y="619" type="qcurve"/>
      <point x="425" y="480" type="line"/>
      <point x="349" y="493"/>
      <point x="292" y="497"/>
      <point x="261" y="497" type="qcurve" smooth="yes"/>
      <point x="219" y="497"/>
      <point x="181" y="469"/>
      <point x="181" y="436" type="qcurve" smooth="yes"/>
      <point x="181" y="420"/>
      <point x="193" y="403"/>
      <point x="210" y="399" type="qcurve"/>
      <point x="330" y="371" type="line" smooth="yes"/>
      <point x="382" y="359"/>
      <point x="428" y="336"/>
      <point x="442" y="318" type="qcurve" smooth="yes"/>
      <point x="458" y="299"/>
      <point x="473" y="239"/>
      <point x="473" y="196" type="qcurve" smooth="yes"/>
      <point x="473" y="87"/>
      <point x="357" y="-10"/>
      <point x="235" y="-10" type="qcurve" smooth="yes"/>
      <point x="173" y="-10"/>
      <point x="61" y="5"/>
      <point x="30" y="16" type="qcurve"/>
      <point x="30" y="163" type="line"/>
      <point x="70" y="150"/>
      <point x="180" y="135"/>
      <point x="235" y="135" type="qcurve" smooth="yes"/>
      <point x="279" y="135"/>
      <point x="313" y="157"/>
      <point x="313" y="190" type="qcurve" smooth="yes"/>
      <point x="313" y="211"/>
      <point x="302" y="230"/>
    </contour>
    <contour>
      <point x="248.0" y="655.0" type="move" name="top"/>
    </contour>
    <contour>
      <point x="234.0" y="0.0" type="move" name="bottom"/>
    </contour>
  </outline>
</glyph>
<glyph name="U" format="1">
  <advance width="624.0"/>
  <unicode hex="0055"/>
  <outline>
    <contour>
      <point x="426" y="264" type="qcurve"/>
      <point x="426" y="627" type="line"/>
      <point x="581" y="627" type="line"/>
      <point x="581" y="264" type="line" smooth="yes"/>
      <point x="581" y="127"/>
      <point x="447" y="-10"/>
      <point x="313" y="-10" type="qcurve"/>
      <point x="172" y="-10"/>
      <point x="43" y="120"/>
      <point x="43" y="264" type="qcurve"/>
      <point x="43" y="627" type="line"/>
      <point x="198" y="627" type="line"/>
      <point x="198" y="264" type="line" smooth="yes"/>
      <point x="198" y="188"/>
      <point x="245" y="135"/>
      <point x="313" y="135" type="qcurve"/>
      <point x="380" y="135"/>
      <point x="426" y="188"/>
    </contour>
    <contour>
      <point x="312.0" y="645.0" type="move" name="top"/>
    </contour>
    <contour>
      <point x="485.0" y="34" type="move" name="ogonekalt"/>
    </contour>
  </outline>
</glyph>
<glyph name="V" format="1">
  <advance width="615.0"/>
  <unicode hex="0056"/>
  <outline>
    <contour>
      <point x="215" y="0" type="line"/>
      <point x="-2" y="627" type="line"/>
      <point x="171" y="627" type="line"/>
      <point x="264" y="317" type="line" smooth="yes"/>
      <point x="273" y="286"/>
      <point x="299" y="183"/>
      <point x="311" y="132" type="qcurve"/>
      <point x="333" y="223"/>
      <point x="352" y="297"/>
      <point x="357" y="316" type="qcurve"/>
      <point x="449" y="627" type="line"/>
      <point x="617" y="627" type="line"/>
      <point x="401" y="0" type="line"/>
    </contour>
  </outline>
</glyph>
<glyph name="W" format="1">
  <advance width="849.0"/>
  <unicode hex="0057"/>
  <outline>
    <contour>
      <point x="165" y="0" type="line"/>
      <point x="0" y="627" type="line"/>
      <point x="168" y="627" type="line"/>
      <point x="234" y="317" type="line" smooth="yes"/>
      <point x="238" y="301"/>
      <point x="247" y="247"/>
      <point x="258" y="170" type="qcurve"/>
      <point x="261" y="189"/>
      <point x="278" y="297"/>
      <point x="282" y="316" type="qcurve"/>
      <point x="346" y="627" type="line"/>
      <point x="508" y="627" type="line"/>
      <point x="574" y="317" type="line" smooth="yes"/>
      <point x="578" y="301"/>
      <point x="587" y="247"/>
      <point x="598" y="170" type="qcurve"/>
      <point x="601" y="189"/>
      <point x="618" y="297"/>
      <point x="622" y="316" type="qcurve"/>
      <point x="686" y="627" type="line"/>
      <point x="849" y="627" type="line"/>
      <point x="685" y="0" type="line"/>
      <point x="506" y="0" type="line"/>
      <point x="466" y="190" type="line" smooth="yes"/>
      <point x="456" y="238"/>
      <point x="436" y="344"/>
      <point x="425" y="408" type="qcurve"/>
      <point x="409" y="319"/>
      <point x="391" y="229"/>
      <point x="383" y="190" type="qcurve"/>
      <point x="343" y="0" type="line"/>
    </contour>
    <contour>
      <point x="425.0" y="645" type="move" name="top"/>
    </contour>
  </outline>
</glyph>
<glyph name="X" format="1">
  <advance width="575.0"/>
  <unicode hex="0058"/>
  <outline>
    <contour>
      <point x="380" y="326" type="line"/>
      <point x="588" y="0" type="line"/>
      <point x="399" y="0" type="line"/>
      <point x="277" y="200" type="line"/>
      <point x="160" y="0" type="line"/>
      <point x="-10" y="0" type="line"/>
      <point x="196" y="320" type="line"/>
      <point x="2" y="627" type="line"/>
      <point x="191" y="627" type="line"/>
      <point x="296" y="448" type="line"/>
      <point x="402" y="627" type="line"/>
      <point x="567" y="627" type="line"/>
    </contour>
    <contour>
      <point x="295.0" y="645" type="move" name="top"/>
    </contour>
  </outline>
</glyph>
<glyph name="Y" format="1">
  <advance width="597.0"/>
  <unicode hex="0059"/>
  <outline>
    <contour>
      <point x="437" y="627" type="line"/>
      <point x="597" y="627" type="line"/>
      <point x="378" y="228" type="line"/>
      <point x="378" y="0" type="line"/>
      <point x="223" y="0" type="line"/>
      <point x="223" y="228" type="line"/>
      <point x="-2" y="627" type="line"/>
      <point x="175" y="627" type="line"/>
      <point x="301" y="365" type="line"/>
    </contour>
    <contour>
      <point x="303.0" y="645" type="move" name="top"/>
    </contour>
  </outline>
</glyph>
<glyph name="Z" format="1">
  <advance width="504.0"/>
  <unicode hex="005A"/>
  <outline>
    <contour>
      <point x="485" y="145" type="line"/>
      <point x="485" y="0" type="line"/>
      <point x="18" y="0" type="line"/>
      <point x="18" y="145" type="line"/>
      <point x="291" y="487" type="line"/>
      <point x="47" y="487" type="line"/>
      <point x="47" y="627" type="line"/>
      <point x="466" y="627" type="line"/>
      <point x="466" y="487" type="line"/>
      <point x="194" y="145" type="line"/>
    </contour>
    <contour>
      <point x="260.0" y="645" type="move" name="top"/>
    </contour>
  </outline>
</glyph>
<glyph name="bracketright" format="1">
  <advance width="242.0"/>
  <unicode hex="005D"/>
  <outline>
    <contour>
      <point x="195" y="-82" type="line"/>
      <point x="20" y="-82" type="line"/>
      <point x="20" y="12" type="line"/>
      <point x="92" y="12" type="line"/>
      <point x="92" y="616" type="line"/>
      <point x="20" y="616" type="line"/>
      <point x="20" y="707" type="line"/>
      <point x="195" y="707" type="line"/>
    </contour>
  </outline>
</glyph>
<glyph name="asciicircum" format="1">
  <advance width="500.0"/>
  <unicode hex="005E"/>
  <outline>
    <contour>
      <point x="203" y="365" type="line"/>
      <point x="69" y="365" type="line"/>
      <point x="190" y="627" type="line"/>
      <point x="310" y="627" type="line"/>
      <point x="431" y="365" type="line"/>
      <point x="300" y="365" type="line"/>
      <point x="252" y="489" type="line"/>
    </contour>
  </outline>
</glyph>
<glyph name="grave" format="1">
  <advance width="362.0"/>
  <unicode hex="0060"/>
  <outline>
    <contour>
      <point x="196" y="551" type="line"/>
      <point x="50" y="682" type="line"/>
      <point x="207" y="682" type="line"/>
      <point x="312" y="551" type="line"/>
    </contour>
    <contour>
      <point x="219" y="530" type="move" name="_top"/>
    </contour>
  </outline>
</glyph>
<glyph name="a" format="1">
  <advance width="490.0"/>
  <unicode hex="0061"/>
  <outline>
    <contour>
      <point x="163" y="-10" type="qcurve"/>
      <point x="87" y="-10"/>
      <point x="16" y="66"/>
      <point x="16" y="148" type="qcurve"/>
      <point x="16" y="232"/>
      <point x="101" y="300"/>
      <point x="205" y="300" type="qcurve"/>
      <point x="229" y="300"/>
      <point x="280" y="295"/>
      <point x="299" y="291" type="qcurve"/>
      <point x="299" y="327" type="line" smooth="yes"/>
      <point x="299" y="351"/>
      <point x="258" y="374"/>
      <point x="216" y="374" type="qcurve" smooth="yes"/>
      <point x="168" y="374"/>
      <point x="93" y="369"/>
      <point x="62" y="363" type="qcurve"/>
      <point x="62" y="486" type="line"/>
      <point x="99" y="495"/>
      <point x="197" y="504"/>
      <point x="262" y="504" type="qcurve"/>
      <point x="354" y="504"/>
      <point x="449" y="422"/>
      <point x="449" y="342" type="qcurve"/>
      <point x="449" y="0" type="line"/>
      <point x="309" y="0" type="line"/>
      <point x="304" y="42" type="line"/>
      <point x="301" y="42" type="line"/>
      <point x="270" y="18"/>
      <point x="196" y="-10"/>
    </contour>
    <contour>
      <point x="225" y="201" type="qcurve"/>
      <point x="185" y="201"/>
      <point x="157" y="184"/>
      <point x="157" y="157" type="qcurve" smooth="yes"/>
      <point x="157" y="132"/>
      <point x="180" y="113"/>
      <point x="209" y="113" type="qcurve"/>
      <point x="231" y="113"/>
      <point x="279" y="125"/>
      <point x="299" y="134" type="qcurve"/>
      <point x="299" y="195" type="line"/>
      <point x="287" y="198"/>
      <point x="251" y="201"/>
    </contour>
    <contour>
      <point x="249.0" y="530" type="move" name="top"/>
    </contour>
    <contour>
      <point x="449.0" y="0" type="move" name="ogonek"/>
    </contour>
  </outline>
</glyph>
<glyph name="b" format="1">
  <advance width="541.0"/>
  <unicode hex="0062"/>
  <outline>
    <contour>
      <point x="335" y="504" type="qcurve"/>
      <point x="434" y="504"/>
      <point x="516" y="389"/>
      <point x="516" y="251" type="qcurve"/>
      <point x="516" y="114"/>
      <point x="406" y="-10"/>
      <point x="283" y="-10" type="qcurve"/>
      <point x="212" y="-10"/>
      <point x="90" y="4"/>
      <point x="43" y="18" type="qcurve"/>
      <point x="43" y="665" type="line"/>
      <point x="193" y="665" type="line"/>
      <point x="193" y="468" type="line"/>
      <point x="227" y="485"/>
      <point x="300" y="504"/>
    </contour>
    <contour>
      <point x="366" y="251" type="qcurve"/>
      <point x="366" y="324"/>
      <point x="336" y="369"/>
      <point x="281" y="369" type="qcurve" smooth="yes"/>
      <point x="258" y="369"/>
      <point x="213" y="361"/>
      <point x="193" y="354" type="qcurve"/>
      <point x="193" y="135" type="line"/>
      <point x="208" y="132"/>
      <point x="246" y="129"/>
      <point x="272" y="129" type="qcurve"/>
      <point x="332" y="129"/>
      <point x="366" y="174"/>
    </contour>
  </outline>
</glyph>
<glyph name="c" format="1">
  <advance width="429.0"/>
  <unicode hex="0063"/>
  <outline>
    <contour>
      <point x="410" y="151" type="qcurve"/>
      <point x="410" y="27" type="line"/>
      <point x="386" y="12"/>
      <point x="278" y="-10"/>
      <point x="221" y="-10" type="qcurve" smooth="yes"/>
      <point x="113" y="-10"/>
      <point x="26" y="105"/>
      <point x="26" y="247" type="qcurve" smooth="yes"/>
      <point x="26" y="389"/>
      <point x="138" y="504"/>
      <point x="278" y="504" type="qcurve" smooth="yes"/>
      <point x="312" y="504"/>
      <point x="366" y="501"/>
      <point x="397" y="497" type="qcurve"/>
      <point x="397" y="364" type="line"/>
      <point x="348" y="368"/>
      <point x="304" y="369"/>
      <point x="278" y="369" type="qcurve" smooth="yes"/>
      <point x="209" y="369"/>
      <point x="176" y="330"/>
      <point x="176" y="247" type="qcurve" smooth="yes"/>
      <point x="176" y="172"/>
      <point x="203" y="130"/>
      <point x="252" y="130" type="qcurve" smooth="yes"/>
      <point x="292" y="130"/>
      <point x="379" y="142"/>
    </contour>
    <contour>
      <point x="245.0" y="0.0" type="move" name="bottom"/>
    </contour>
    <contour>
      <point x="260.0" y="530.0" type="move" name="top"/>
    </contour>
  </outline>
</glyph>
<glyph name="d" format="1">
  <advance width="541.0"/>
  <unicode hex="0064"/>
  <outline>
    <contour>
      <point x="348" y="665" type="line"/>
      <point x="498" y="665" type="line"/>
      <point x="498" y="0" type="line"/>
      <point x="365" y="0" type="line"/>
      <point x="357" y="46" type="line"/>
      <point x="354" y="46" type="line"/>
      <point x="327" y="18"/>
      <point x="253" y="-10"/>
      <point x="206" y="-10" type="qcurve"/>
      <point x="108" y="-10"/>
      <point x="25" y="108"/>
      <point x="25" y="247" type="qcurve"/>
      <point x="25" y="382"/>
      <point x="130" y="504"/>
      <point x="248" y="504" type="qcurve"/>
      <point x="277" y="504"/>
      <point x="328" y="497"/>
      <point x="348" y="491" type="qcurve"/>
    </contour>
    <contour>
      <point x="269" y="369" type="qcurve"/>
      <point x="209" y="369"/>
      <point x="175" y="324"/>
      <point x="175" y="247" type="qcurve"/>
      <point x="175" y="174"/>
      <point x="205" y="129"/>
      <point x="260" y="129" type="qcurve" smooth="yes"/>
      <point x="286" y="129"/>
      <point x="331" y="137"/>
      <point x="348" y="145" type="qcurve"/>
      <point x="348" y="356" type="line"/>
      <point x="333" y="363"/>
      <point x="294" y="369"/>
    </contour>
    <contour>
      <point x="548.0" y="665" type="move" name="caronalt"/>
    </contour>
  </outline>
</glyph>
<glyph name="e" format="1">
  <advance width="499.0"/>
  <unicode hex="0065"/>
  <outline>
    <contour>
      <point x="452" y="146" type="qcurve"/>
      <point x="452" y="27" type="line"/>
      <point x="428" y="12"/>
      <point x="314" y="-10"/>
      <point x="251" y="-10" type="qcurve"/>
      <point x="131" y="-10"/>
      <point x="25" y="111"/>
      <point x="25" y="247" type="qcurve" smooth="yes"/>
      <point x="25" y="380"/>
      <point x="137" y="504"/>
      <point x="258" y="504" type="qcurve"/>
      <point x="376" y="504"/>
      <point x="473" y="411"/>
      <point x="473" y="293" type="qcurve" smooth="yes"/>
      <point x="473" y="261"/>
      <point x="471" y="223"/>
      <point x="468" y="198" type="qcurve"/>
      <point x="176" y="198" type="line"/>
      <point x="177" y="157"/>
      <point x="219" y="125"/>
      <point x="275" y="125" type="qcurve"/>
      <point x="323" y="125"/>
      <point x="423" y="138"/>
    </contour>
    <contour>
      <point x="258" y="376" type="qcurve"/>
      <point x="210" y="376"/>
      <point x="176" y="343"/>
      <point x="176" y="295" type="qcurve"/>
      <point x="337" y="295" type="line"/>
      <point x="337" y="317" type="line"/>
      <point x="336" y="352"/>
      <point x="305" y="376"/>
    </contour>
    <contour>
      <point x="258.0" y="530.0" type="move" name="top"/>
    </contour>
    <contour>
      <point x="415" y="12" type="move" name="ogonekalt"/>
    </contour>
  </outline>
</glyph>
<glyph name="f" format="1">
  <advance width="362.0"/>
  <unicode hex="0066"/>
  <outline>
    <contour>
      <point x="80" y="369" type="line"/>
      <point x="22" y="369" type="line"/>
      <point x="22" y="494" type="line"/>
      <point x="80" y="494" type="line"/>
      <point x="81" y="584"/>
      <point x="178" y="675"/>
      <point x="272" y="675" type="qcurve"/>
      <point x="294" y="675"/>
      <point x="345" y="670"/>
      <point x="368" y="665" type="qcurve"/>
      <point x="368" y="550" type="line"/>
      <point x="355" y="552"/>
      <point x="317" y="555"/>
      <point x="302" y="555" type="qcurve"/>
      <point x="254" y="555"/>
      <point x="230" y="537"/>
      <point x="230" y="508" type="qcurve"/>
      <point x="230" y="494" type="line"/>
      <point x="353" y="494" type="line"/>
      <point x="353" y="369" type="line"/>
      <point x="230" y="369" type="line"/>
      <point x="230" y="0" type="line"/>
      <point x="80" y="0" type="line"/>
    </contour>
  </outline>
</glyph>
<glyph name="g" format="1">
  <advance width="542.0"/>
  <unicode hex="0067"/>
  <outline>
    <contour>
      <point x="266" y="-162" type="qcurve"/>
      <point x="213" y="-162"/>
      <point x="116" y="-148"/>
      <point x="85" y="-137" type="qcurve"/>
      <point x="85" y="-10" type="line"/>
      <point x="109" y="-17"/>
      <point x="206" y="-27"/>
      <point x="254" y="-27" type="qcurve"/>
      <point x="308" y="-27"/>
      <point x="348" y="5"/>
      <point x="349" y="48" type="qcurve"/>
      <point x="349" y="72" type="line"/>
      <point x="309" y="53"/>
      <point x="235" y="34"/>
      <point x="200" y="34" type="qcurve" smooth="yes"/>
      <point x="105" y="34"/>
      <point x="26" y="141"/>
      <point x="26" y="269" type="qcurve" smooth="yes"/>
      <point x="26" y="396"/>
      <point x="139" y="504"/>
      <point x="273" y="504" type="qcurve" smooth="yes"/>
      <point x="326" y="504"/>
      <point x="465" y="492"/>
      <point x="499" y="485" type="qcurve"/>
      <point x="499" y="95" type="line" smooth="yes"/>
      <point x="499" y="-48"/>
      <point x="395" y="-162"/>
    </contour>
    <contour>
      <point x="273" y="369" type="qcurve" smooth="yes"/>
      <point x="206" y="369"/>
      <point x="176" y="339"/>
      <point x="176" y="269" type="qcurve" smooth="yes"/>
      <point x="176" y="206"/>
      <point x="202" y="173"/>
      <point x="252" y="173" type="qcurve" smooth="yes"/>
      <point x="271" y="173"/>
      <point x="320" y="181"/>
      <point x="349" y="188" type="qcurve"/>
      <point x="349" y="363" type="line"/>
      <point x="334" y="366"/>
      <point x="296" y="369"/>
    </contour>
    <contour>
      <point x="279.0" y="530.0" type="move" name="top"/>
    </contour>
  </outline>
</glyph>
<glyph name="h" format="1">
  <advance width="553.0"/>
  <unicode hex="0068"/>
  <outline>
    <contour>
      <point x="193" y="0" type="line"/>
      <point x="43" y="0" type="line"/>
      <point x="43" y="665" type="line"/>
      <point x="193" y="665" type="line"/>
      <point x="193" y="459" type="line"/>
      <point x="230" y="480"/>
      <point x="309" y="504"/>
      <point x="345" y="504" type="qcurve" smooth="yes"/>
      <point x="429" y="504"/>
      <point x="512" y="424"/>
      <point x="512" y="342" type="qcurve"/>
      <point x="512" y="0" type="line"/>
      <point x="362" y="0" type="line"/>
      <point x="362" y="322" type="line" smooth="yes"/>
      <point x="362" y="347"/>
      <point x="332" y="369"/>
      <point x="299" y="369" type="qcurve" smooth="yes"/>
      <point x="274" y="369"/>
      <point x="218" y="360"/>
      <point x="193" y="353" type="qcurve"/>
    </contour>
    <contour>
      <point x="118.0" y="682" type="move" name="top"/>
    </contour>
  </outline>
</glyph>
<glyph name="i" format="1">
  <advance width="236.0"/>
  <unicode hex="0069"/>
  <outline>
    <contour>
      <point x="197" y="548" type="line"/>
      <point x="39" y="548" type="line"/>
      <point x="39" y="665" type="line"/>
      <point x="197" y="665" type="line"/>
    </contour>
    <contour>
      <point x="193" y="0" type="line"/>
      <point x="43" y="0" type="line"/>
      <point x="43" y="494" type="line"/>
      <point x="193" y="494" type="line"/>
    </contour>
    <contour>
      <point x="193.0" y="0.0" type="move" name="ogonek"/>
    </contour>
  </outline>
</glyph>
<glyph name="k" format="1">
  <advance width="519.0"/>
  <unicode hex="006B"/>
  <outline>
    <contour>
      <point x="193" y="192" type="line"/>
      <point x="193" y="0" type="line"/>
      <point x="43" y="0" type="line"/>
      <point x="43" y="665" type="line"/>
      <point x="193" y="665" type="line"/>
      <point x="193" y="308" type="line"/>
      <point x="216" y="308" type="line"/>
      <point x="341" y="494" type="line"/>
      <point x="519" y="494" type="line"/>
      <point x="345" y="256" type="line"/>
      <point x="529" y="0" type="line"/>
      <point x="346" y="0" type="line"/>
      <point x="216" y="192" type="line"/>
    </contour>
    <contour>
      <point x="118.0" y="682" type="move" name="top"/>
    </contour>
    <contour>
      <point x="264.0" y="0" type="move" name="bottom"/>
    </contour>
  </outline>
</glyph>
<glyph name="m" format="1">
  <advance width="790.0"/>
  <unicode hex="006D"/>
  <outline>
    <contour>
      <point x="193" y="0" type="line"/>
      <point x="43" y="0" type="line"/>
      <point x="43" y="494" type="line"/>
      <point x="183" y="494" type="line"/>
      <point x="188" y="457" type="line"/>
      <point x="191" y="457" type="line"/>
      <point x="228" y="480"/>
      <point x="296" y="504"/>
      <point x="327" y="504" type="qcurve" smooth="yes"/>
      <point x="368" y="504"/>
      <point x="426" y="479"/>
      <point x="443" y="454" type="qcurve"/>
      <point x="447" y="454" type="line"/>
      <point x="481" y="477"/>
      <point x="566" y="504"/>
      <point x="605" y="504" type="qcurve" smooth="yes"/>
      <point x="678" y="504"/>
      <point x="749" y="424"/>
      <point x="749" y="342" type="qcurve"/>
      <point x="749" y="0" type="line"/>
      <point x="599" y="0" type="line"/>
      <point x="599" y="322" type="line" smooth="yes"/>
      <point x="599" y="347"/>
      <point x="571" y="369"/>
      <point x="541" y="369" type="qcurve" smooth="yes"/>
      <point x="525" y="369"/>
      <point x="489" y="363"/>
      <point x="471" y="357" type="qcurve"/>
      <point x="471" y="353"/>
      <point x="471" y="346"/>
      <point x="471" y="342" type="qcurve"/>
      <point x="471" y="0" type="line"/>
      <point x="321" y="0" type="line"/>
      <point x="321" y="322" type="line" smooth="yes"/>
      <point x="321" y="347"/>
      <point x="293" y="369"/>
      <point x="263" y="369" type="qcurve" smooth="yes"/>
      <point x="247" y="369"/>
      <point x="211" y="363"/>
      <point x="193" y="357" type="qcurve"/>
    </contour>
  </outline>
</glyph>
<glyph name="n" format="1">
  <advance width="553.0"/>
  <unicode hex="006E"/>
  <outline>
    <contour>
      <point x="193" y="0" type="line"/>
      <point x="43" y="0" type="line"/>
      <point x="43" y="494" type="line"/>
      <point x="173" y="494" type="line"/>
      <point x="179" y="442" type="line"/>
      <point x="182" y="442" type="line"/>
      <point x="214" y="475"/>
      <point x="289" y="504"/>
      <point x="342" y="504" type="qcurve"/>
      <point x="426" y="504"/>
      <point x="512" y="422"/>
      <point x="512" y="342" type="qcurve"/>
      <point x="512" y="0" type="line"/>
      <point x="362" y="0" type="line"/>
      <point x="362" y="322" type="line" smooth="yes"/>
      <point x="362" y="345"/>
      <point x="325" y="369"/>
      <point x="289" y="369" type="qcurve" smooth="yes"/>
      <point x="262" y="369"/>
      <point x="212" y="357"/>
      <point x="193" y="346" type="qcurve"/>
    </contour>
    <contour>
      <point x="278.0" y="530" type="move" name="top"/>
    </contour>
    <contour>
      <point x="277.0" y="0" type="move" name="bottom"/>
    </contour>
    <contour>
      <point x="-81.0" y="665" type="move" name="caronalt"/>
    </contour>
  </outline>
</glyph>
<glyph name="o" format="1">
  <advance width="538.0"/>
  <unicode hex="006F"/>
  <outline>
    <contour>
      <point x="513" y="247" type="qcurve"/>
      <point x="513" y="108"/>
      <point x="401" y="-10"/>
      <point x="269" y="-10" type="qcurve"/>
      <point x="137" y="-10"/>
      <point x="25" y="108"/>
      <point x="25" y="247" type="qcurve"/>
      <point x="25" y="386"/>
      <point x="137" y="504"/>
      <point x="269" y="504" type="qcurve"/>
      <point x="401" y="504"/>
      <point x="513" y="386"/>
    </contour>
    <contour>
      <point x="175" y="249" type="qcurve"/>
      <point x="175" y="173"/>
      <point x="208" y="129"/>
      <point x="269" y="129" type="qcurve"/>
      <point x="330" y="129"/>
      <point x="363" y="173"/>
      <point x="363" y="249" type="qcurve"/>
      <point x="363" y="325"/>
      <point x="330" y="369"/>
      <point x="269" y="369" type="qcurve"/>
      <point x="208" y="369"/>
      <point x="175" y="325"/>
    </contour>
    <contour>
      <point x="269.0" y="530" type="move" name="top"/>
    </contour>
  </outline>
</glyph>
<glyph name="q" format="1">
  <advance width="541.0"/>
  <unicode hex="0071"/>
  <outline>
    <contour>
      <point x="498" y="485" type="qcurve"/>
      <point x="498" y="-152" type="line"/>
      <point x="348" y="-152" type="line"/>
      <point x="348" y="28" type="line"/>
      <point x="308" y="9"/>
      <point x="234" y="-10"/>
      <point x="199" y="-10" type="qcurve" smooth="yes"/>
      <point x="104" y="-10"/>
      <point x="25" y="106"/>
      <point x="25" y="247" type="qcurve" smooth="yes"/>
      <point x="25" y="386"/>
      <point x="138" y="504"/>
      <point x="272" y="504" type="qcurve" smooth="yes"/>
      <point x="325" y="504"/>
      <point x="464" y="492"/>
    </contour>
    <contour>
      <point x="272" y="369" type="qcurve" smooth="yes"/>
      <point x="205" y="369"/>
      <point x="175" y="332"/>
      <point x="175" y="247" type="qcurve" smooth="yes"/>
      <point x="175" y="169"/>
      <point x="201" y="129"/>
      <point x="251" y="129" type="qcurve" smooth="yes"/>
      <point x="270" y="129"/>
      <point x="319" y="137"/>
      <point x="348" y="144" type="qcurve"/>
      <point x="348" y="363" type="line"/>
      <point x="333" y="366"/>
      <point x="295" y="369"/>
    </contour>
  </outline>
</glyph>
<glyph name="r" format="1">
  <advance width="355.0"/>
  <unicode hex="0072"/>
  <outline>
    <contour>
      <point x="193" y="0" type="line"/>
      <point x="43" y="0" type="line"/>
      <point x="43" y="494" type="line"/>
      <point x="183" y="494" type="line"/>
      <point x="188" y="456" type="line"/>
      <point x="190" y="456" type="line"/>
      <point x="226" y="478"/>
      <point x="301" y="501"/>
      <point x="334" y="501" type="qcurve"/>
      <point x="342" y="501" type="line"/>
      <point x="342" y="356" type="line"/>
      <point x="333" y="358"/>
      <point x="312" y="359"/>
      <point x="296" y="359" type="qcurve" smooth="yes"/>
      <point x="267" y="359"/>
      <point x="215" y="352"/>
      <point x="193" y="345" type="qcurve"/>
    </contour>
    <contour>
      <point x="192.0" y="520" type="move" name="top"/>
    </contour>
    <contour>
      <point x="117.0" y="0" type="move" name="bottom"/>
    </contour>
  </outline>
</glyph>
<glyph name="s" format="1">
  <advance width="440.0"/>
  <unicode hex="0073"/>
  <outline>
    <contour>
      <point x="244" y="377" type="qcurve" smooth="yes"/>
      <point x="202" y="377"/>
      <point x="173" y="364"/>
      <point x="173" y="341" type="qcurve"/>
      <point x="173" y="332"/>
      <point x="184" y="321"/>
      <point x="194" y="320" type="qcurve"/>
      <point x="313" y="304" type="line" smooth="yes"/>
      <point x="371" y="296"/>
      <point x="418" y="237"/>
      <point x="418" y="173" type="qcurve" smooth="yes"/>
      <point x="418" y="77"/>
      <point x="332" y="-10"/>
      <point x="225" y="-10" type="qcurve" smooth="yes"/>
      <point x="166" y="-10"/>
      <point x="71" y="-1"/>
      <point x="38" y="7" type="qcurve"/>
      <point x="38" y="137" type="line"/>
      <point x="63" y="131"/>
      <point x="152" y="122"/>
      <point x="198" y="122" type="qcurve" smooth="yes"/>
      <point x="239" y="122"/>
      <point x="268" y="139"/>
      <point x="268" y="163" type="qcurve" smooth="yes"/>
      <point x="268" y="171"/>
      <point x="258" y="182"/>
      <point x="250" y="183" type="qcurve"/>
      <point x="127" y="199" type="line" smooth="yes"/>
      <point x="73" y="206"/>
      <point x="24" y="271"/>
      <point x="24" y="335" type="qcurve" smooth="yes"/>
      <point x="24" y="419"/>
      <point x="130" y="504"/>
      <point x="234" y="504" type="qcurve" smooth="yes"/>
      <point x="275" y="504"/>
      <point x="345" y="500"/>
      <point x="384" y="494" type="qcurve"/>
      <point x="384" y="369" type="line"/>
      <point x="359" y="373"/>
      <point x="285" y="377"/>
    </contour>
    <contour>
      <point x="220.0" y="530.0" type="move" name="top"/>
    </contour>
    <contour>
      <point x="216.0" y="0" type="move" name="bottom"/>
    </contour>
  </outline>
</glyph>
<glyph name="t" format="1">
  <advance width="381.0"/>
  <unicode hex="0074"/>
  <outline>
    <contour>
      <point x="75" y="369" type="line"/>
      <point x="17" y="369" type="line"/>
      <point x="17" y="494" type="line"/>
      <point x="80" y="494" type="line"/>
      <point x="99" y="609" type="line"/>
      <point x="225" y="609" type="line"/>
      <point x="225" y="494" type="line"/>
      <point x="365" y="494" type="line"/>
      <point x="365" y="369" type="line"/>
      <point x="225" y="369" type="line"/>
      <point x="225" y="177" type="line" smooth="yes"/>
      <point x="225" y="149"/>
      <point x="254" y="130"/>
      <point x="297" y="130" type="qcurve" smooth="yes"/>
      <point x="312" y="130"/>
      <point x="356" y="135"/>
      <point x="371" y="138" type="qcurve"/>
      <point x="371" y="10" type="line"/>
      <point x="355" y="3"/>
      <point x="288" y="-10"/>
      <point x="262" y="-10" type="qcurve"/>
      <point x="162" y="-10"/>
      <point x="75" y="75"/>
      <point x="75" y="171" type="qcurve"/>
    </contour>
    <contour>
      <point x="231.0" y="0" type="move" name="bottom"/>
    </contour>
    <contour>
      <point x="275.0" y="725" type="move" name="caronalt"/>
    </contour>
  </outline>
</glyph>
<glyph name="u" format="1">
  <advance width="531.0"/>
  <unicode hex="0075"/>
  <outline>
    <contour>
      <point x="208" y="-10" type="qcurve" smooth="yes"/>
      <point x="124" y="-10"/>
      <point x="41" y="73"/>
      <point x="41" y="157" type="qcurve"/>
      <point x="41" y="494" type="line"/>
      <point x="191" y="494" type="line"/>
      <point x="191" y="177" type="line" smooth="yes"/>
      <point x="191" y="152"/>
      <point x="221" y="130"/>
      <point x="254" y="130" type="qcurve" smooth="yes"/>
      <point x="273" y="130"/>
      <point x="316" y="136"/>
      <point x="338" y="142" type="qcurve"/>
      <point x="338" y="494" type="line"/>
      <point x="488" y="494" type="line"/>
      <point x="488" y="0" type="line"/>
      <point x="348" y="0" type="line"/>
      <point x="344" y="27" type="line"/>
      <point x="342" y="27" type="line"/>
      <point x="307" y="10"/>
      <point x="236" y="-10"/>
    </contour>
    <contour>
      <point x="271.0" y="520" type="move" name="top"/>
    </contour>
    <contour>
      <point x="488.0" y="0" type="move" name="ogonek"/>
    </contour>
  </outline>
</glyph>
<glyph name="v" format="1">
  <advance width="514.0"/>
  <unicode hex="0076"/>
  <outline>
    <contour>
      <point x="350" y="494" type="line"/>
      <point x="513" y="494" type="line"/>
      <point x="343" y="0" type="line"/>
      <point x="171" y="0" type="line"/>
      <point x="0" y="494" type="line"/>
      <point x="165" y="494" type="line"/>
      <point x="258" y="136" type="line"/>
    </contour>
  </outline>
</glyph>
<glyph name="w" format="1">
  <advance width="744.0"/>
  <unicode hex="0077"/>
  <outline>
    <contour>
      <point x="577" y="494" type="line"/>
      <point x="741" y="494" type="line"/>
      <point x="609" y="0" type="line"/>
      <point x="433" y="0" type="line"/>
      <point x="365" y="282" type="line"/>
      <point x="307" y="0" type="line"/>
      <point x="135" y="0" type="line"/>
      <point x="2" y="494" type="line"/>
      <point x="167" y="494" type="line"/>
      <point x="225" y="136" type="line"/>
      <point x="302" y="494" type="line"/>
      <point x="441" y="494" type="line"/>
      <point x="519" y="136" type="line"/>
    </contour>
    <contour>
      <point x="369.0" y="520" type="move" name="top"/>
    </contour>
  </outline>
</glyph>
<glyph name="x" format="1">
  <advance width="473.0"/>
  <unicode hex="0078"/>
  <outline>
    <contour>
      <point x="324" y="257" type="line"/>
      <point x="475" y="0" type="line"/>
      <point x="311" y="0" type="line"/>
      <point x="232" y="153" type="line"/>
      <point x="153" y="0" type="line"/>
      <point x="-2" y="0" type="line"/>
      <point x="150" y="257" type="line"/>
      <point x="0" y="494" type="line"/>
      <point x="175" y="494" type="line"/>
      <point x="245" y="355" type="line"/>
      <point x="318" y="494" type="line"/>
      <point x="473" y="494" type="line"/>
    </contour>
    <contour>
      <point x="245.0" y="520" type="move" name="top"/>
    </contour>
  </outline>
</glyph>
<glyph name="y" format="1">
  <advance width="511.0"/>
  <unicode hex="0079"/>
  <outline>
    <contour>
      <point x="110" y="-34" type="qcurve" smooth="yes"/>
      <point x="145" y="-34"/>
      <point x="178" y="-15"/>
      <point x="184" y="10" type="qcurve"/>
      <point x="-2" y="494" type="line"/>
      <point x="165" y="494" type="line"/>
      <point x="260" y="156" type="line"/>
      <point x="350" y="494" type="line"/>
      <point x="511" y="494" type="line"/>
      <point x="335" y="-10" type="line" smooth="yes"/>
      <point x="307" y="-91"/>
      <point x="216" y="-162"/>
      <point x="141" y="-162" type="qcurve" smooth="yes"/>
      <point x="120" y="-162"/>
      <point x="75" y="-158"/>
      <point x="57" y="-154" type="qcurve"/>
      <point x="57" y="-32" type="line"/>
      <point x="65" y="-33"/>
      <point x="85" y="-34"/>
    </contour>
    <contour>
      <point x="261.0" y="520" type="move" name="top"/>
    </contour>
  </outline>
</glyph>
<glyph name="z" format="1">
  <advance width="425.0"/>
  <unicode hex="007A"/>
  <outline>
    <contour>
      <point x="406" y="130" type="line"/>
      <point x="406" y="0" type="line"/>
      <point x="22" y="0" type="line"/>
      <point x="22" y="130" type="line"/>
      <point x="221" y="369" type="line"/>
      <point x="40" y="369" type="line"/>
      <point x="40" y="494" type="line"/>
      <point x="389" y="494" type="line"/>
      <point x="389" y="369" type="line"/>
      <point x="193" y="130" type="line"/>
    </contour>
    <contour>
      <point x="211.0" y="520" type="move" name="top"/>
    </contour>
  </outline>
</glyph>
<glyph name="braceleft" format="1">
  <advance width="294.0"/>
  <unicode hex="007B"/>
  <outline>
    <contour>
      <point x="116" y="317" type="qcurve"/>
      <point x="117" y="313" type="line"/>
      <point x="156" y="305"/>
      <point x="206" y="222"/>
      <point x="206" y="157" type="qcurve"/>
      <point x="206" y="55" type="line" smooth="yes"/>
      <point x="206" y="21"/>
      <point x="236" y="1"/>
      <point x="278" y="1" type="qcurve"/>
      <point x="278" y="-92" type="line"/>
      <point x="190" y="-92"/>
      <point x="103" y="-21"/>
      <point x="103" y="51" type="qcurve"/>
      <point x="103" y="157" type="line" smooth="yes"/>
      <point x="103" y="211"/>
      <point x="53" y="274"/>
      <point x="19" y="274" type="qcurve"/>
      <point x="2" y="274" type="line"/>
      <point x="2" y="356" type="line"/>
      <point x="19" y="356" type="line" smooth="yes"/>
      <point x="53" y="356"/>
      <point x="103" y="419"/>
      <point x="103" y="473" type="qcurve"/>
      <point x="103" y="575" type="line" smooth="yes"/>
      <point x="103" y="647"/>
      <point x="190" y="718"/>
      <point x="278" y="718" type="qcurve"/>
      <point x="278" y="625" type="line"/>
      <point x="236" y="625"/>
      <point x="206" y="606"/>
      <point x="206" y="571" type="qcurve"/>
      <point x="206" y="473" type="line" smooth="yes"/>
      <point x="206" y="408"/>
      <point x="156" y="325"/>
    </contour>
  </outline>
</glyph>
<glyph name="bar" format="1">
  <advance width="197.0"/>
  <unicode hex="007C"/>
  <outline>
    <contour>
      <point x="150" y="707" type="line"/>
      <point x="150" y="-80" type="line"/>
      <point x="47" y="-80" type="line"/>
      <point x="47" y="707" type="line"/>
    </contour>
  </outline>
</glyph>
<glyph name="braceright" format="1">
  <advance width="294.0"/>
  <unicode hex="007D"/>
  <outline>
    <contour>
      <point x="177" y="313" type="qcurve"/>
      <point x="178" y="317" type="line"/>
      <point x="138" y="325"/>
      <point x="88" y="408"/>
      <point x="88" y="473" type="qcurve"/>
      <point x="88" y="571" type="line" smooth="yes"/>
      <point x="88" y="606"/>
      <point x="58" y="625"/>
      <point x="16" y="625" type="qcurve"/>
      <point x="16" y="718" type="line"/>
      <point x="104" y="718"/>
      <point x="191" y="647"/>
      <point x="191" y="575" type="qcurve"/>
      <point x="191" y="473" type="line" smooth="yes"/>
      <point x="191" y="419"/>
      <point x="241" y="356"/>
      <point x="275" y="356" type="qcurve"/>
      <point x="292" y="356" type="line"/>
      <point x="292" y="274" type="line"/>
      <point x="275" y="274" type="line" smooth="yes"/>
      <point x="241" y="274"/>
      <point x="191" y="211"/>
      <point x="191" y="157" type="qcurve"/>
      <point x="191" y="51" type="line" smooth="yes"/>
      <point x="191" y="-21"/>
      <point x="104" y="-92"/>
      <point x="16" y="-92" type="qcurve"/>
      <point x="16" y="1" type="line"/>
      <point x="58" y="1"/>
      <point x="88" y="21"/>
      <point x="88" y="55" type="qcurve"/>
      <point x="88" y="157" type="line" smooth="yes"/>
      <point x="88" y="222"/>
      <point x="138" y="305"/>
    </contour>
  </outline>
</glyph>
<glyph name="asciitilde" format="1">
  <advance width="618.0"/>
  <unicode hex="007E"/>
  <outline>
    <contour>
      <point x="445" y="448" type="qcurve"/>
      <point x="596" y="448" type="line"/>
      <point x="596" y="327"/>
      <point x="515" y="194"/>
      <point x="439" y="194" type="qcurve" smooth="yes"/>
      <point x="408" y="194"/>
      <point x="341" y="221"/>
      <point x="285" y="260" type="qcurve" smooth="yes"/>
      <point x="252" y="282"/>
      <point x="226" y="295"/>
      <point x="217" y="295" type="qcurve"/>
      <point x="196" y="295"/>
      <point x="173" y="246"/>
      <point x="173" y="201" type="qcurve"/>
      <point x="23" y="201" type="line"/>
      <point x="23" y="321"/>
      <point x="104" y="456"/>
      <point x="180" y="456" type="qcurve" smooth="yes"/>
      <point x="211" y="456"/>
      <point x="278" y="430"/>
      <point x="334" y="392" type="qcurve" smooth="yes"/>
      <point x="367" y="370"/>
      <point x="394" y="357"/>
      <point x="403" y="357" type="qcurve"/>
      <point x="423" y="357"/>
      <point x="445" y="405"/>
    </contour>
  </outline>
</glyph>
<glyph name="exclamdown" format="1">
  <advance width="240.0"/>
  <unicode hex="00A1"/>
  <outline>
    <contour>
      <point x="43" y="494" type="line"/>
      <point x="197" y="494" type="line"/>
      <point x="197" y="360" type="line"/>
      <point x="43" y="360" type="line"/>
    </contour>
    <contour>
      <point x="186" y="292" type="line"/>
      <point x="205" y="-133" type="line"/>
      <point x="35" y="-133" type="line"/>
      <point x="54" y="292" type="line"/>
    </contour>
  </outline>
</glyph>
<glyph name="cent" format="1">
  <advance width="431.0"/>
  <unicode hex="00A2"/>
  <outline>
    <contour>
      <point x="291" y="64" type="qcurve"/>
      <point x="291" y="-20" type="line"/>
      <point x="201" y="-20" type="line"/>
      <point x="201" y="60" type="line"/>
      <point x="104" y="64"/>
      <point x="25" y="180"/>
      <point x="25" y="317" type="qcurve" smooth="yes"/>
      <point x="25" y="440"/>
      <point x="106" y="556"/>
      <point x="201" y="569" type="qcurve"/>
      <point x="201" y="654" type="line"/>
      <point x="291" y="654" type="line"/>
      <point x="291" y="574" type="line"/>
      <point x="324" y="573"/>
      <point x="374" y="570"/>
      <point x="396" y="567" type="qcurve"/>
      <point x="396" y="434" type="line"/>
      <point x="347" y="438"/>
      <point x="303" y="439"/>
      <point x="277" y="439" type="qcurve" smooth="yes"/>
      <point x="208" y="439"/>
      <point x="175" y="400"/>
      <point x="175" y="317" type="qcurve" smooth="yes"/>
      <point x="175" y="242"/>
      <point x="202" y="200"/>
      <point x="251" y="200" type="qcurve" smooth="yes"/>
      <point x="291" y="200"/>
      <point x="378" y="212"/>
      <point x="409" y="221" type="qcurve"/>
      <point x="409" y="97" type="line"/>
      <point x="393" y="87"/>
      <point x="329" y="69"/>
    </contour>
  </outline>
</glyph>
<glyph name="sterling" format="1">
  <advance width="479.0"/>
  <unicode hex="00A3"/>
  <outline>
    <contour>
      <point x="30" y="259" type="line"/>
      <point x="30" y="351" type="line"/>
      <point x="98" y="351" type="line"/>
      <point x="98" y="452" type="line" smooth="yes"/>
      <point x="98" y="543"/>
      <point x="200" y="637"/>
      <point x="297" y="637" type="qcurve" smooth="yes"/>
      <point x="333" y="637"/>
      <point x="393" y="630"/>
      <point x="440" y="620" type="qcurve"/>
      <point x="440" y="487" type="line"/>
      <point x="407" y="494"/>
      <point x="346" y="501"/>
      <point x="323" y="501" type="qcurve" smooth="yes"/>
      <point x="287" y="501"/>
      <point x="253" y="466"/>
      <point x="253" y="428" type="qcurve"/>
      <point x="253" y="351" type="line"/>
      <point x="406" y="351" type="line"/>
      <point x="406" y="259" type="line"/>
      <point x="253" y="259" type="line" smooth="yes"/>
      <point x="253" y="218"/>
      <point x="214" y="161"/>
      <point x="177" y="148" type="qcurve"/>
      <point x="177" y="145" type="line"/>
      <point x="456" y="145" type="line"/>
      <point x="456" y="0" type="line"/>
      <point x="30" y="0" type="line"/>
      <point x="30" y="146" type="line"/>
      <point x="59" y="163"/>
      <point x="98" y="229"/>
      <point x="98" y="259" type="qcurve"/>
    </contour>
  </outline>
</glyph>
<glyph name="currency" format="1">
  <advance width="603.0"/>
  <unicode hex="00A4"/>
  <outline>
    <contour>
      <point x="89" y="38" type="line"/>
      <point x="23" y="104" type="line"/>
      <point x="85" y="167" type="line"/>
      <point x="63" y="199"/>
      <point x="41" y="275"/>
      <point x="41" y="316" type="qcurve" smooth="yes"/>
      <point x="41" y="358"/>
      <point x="64" y="434"/>
      <point x="86" y="466" type="qcurve"/>
      <point x="24" y="528" type="line"/>
      <point x="90" y="594" type="line"/>
      <point x="152" y="531" type="line"/>
      <point x="184" y="553"/>
      <point x="260" y="575"/>
      <point x="300" y="575" type="qcurve" smooth="yes"/>
      <point x="340" y="575"/>
      <point x="416" y="553"/>
      <point x="450" y="532" type="qcurve"/>
      <point x="512" y="594" type="line"/>
      <point x="578" y="527" type="line"/>
      <point x="517" y="466" type="line"/>
      <point x="540" y="433"/>
      <point x="563" y="356"/>
      <point x="563" y="315" type="qcurve" smooth="yes"/>
      <point x="563" y="275"/>
      <point x="540" y="199"/>
      <point x="518" y="166" type="qcurve"/>
      <point x="580" y="104" type="line"/>
      <point x="514" y="38" type="line"/>
      <point x="452" y="100" type="line"/>
      <point x="420" y="79"/>
      <point x="343" y="56"/>
      <point x="302" y="56" type="qcurve" smooth="yes"/>
      <point x="260" y="56"/>
      <point x="184" y="79"/>
      <point x="152" y="101" type="qcurve"/>
    </contour>
    <contour>
      <point x="303" y="445" type="qcurve" smooth="yes"/>
      <point x="246" y="444"/>
      <point x="179" y="375"/>
      <point x="178" y="318" type="qcurve" smooth="yes"/>
      <point x="179" y="260"/>
      <point x="246" y="191"/>
      <point x="302" y="192" type="qcurve" smooth="yes"/>
      <point x="359" y="191"/>
      <point x="426" y="260"/>
      <point x="426" y="319" type="qcurve" smooth="yes"/>
      <point x="426" y="374"/>
      <point x="359" y="443"/>
    </contour>
  </outline>
</glyph>
<glyph name="yen" format="1">
  <advance width="562.0"/>
  <unicode hex="00A5"/>
  <outline>
    <contour>
      <point x="70" y="101" type="line"/>
      <point x="70" y="181" type="line"/>
      <point x="206" y="181" type="line"/>
      <point x="206" y="221" type="line"/>
      <point x="70" y="221" type="line"/>
      <point x="70" y="301" type="line"/>
      <point x="170" y="301" type="line"/>
      <point x="11" y="627" type="line"/>
      <point x="188" y="627" type="line"/>
      <point x="284" y="365" type="line"/>
      <point x="390" y="627" type="line"/>
      <point x="550" y="627" type="line"/>
      <point x="396" y="301" type="line"/>
      <point x="497" y="301" type="line"/>
      <point x="497" y="221" type="line"/>
      <point x="361" y="221" type="line"/>
      <point x="361" y="181" type="line"/>
      <point x="497" y="181" type="line"/>
      <point x="497" y="101" type="line"/>
      <point x="361" y="101" type="line"/>
      <point x="361" y="0" type="line"/>
      <point x="206" y="0" type="line"/>
      <point x="206" y="101" type="line"/>
    </contour>
  </outline>
</glyph>
<glyph name="section" format="1">
  <advance width="459.0"/>
  <unicode hex="00A7"/>
  <outline>
    <contour>
      <point x="267" y="526" type="qcurve" smooth="yes"/>
      <point x="234" y="526"/>
      <point x="203" y="514"/>
      <point x="203" y="501" type="qcurve" smooth="yes"/>
      <point x="203" y="492"/>
      <point x="218" y="478"/>
      <point x="247" y="466" type="qcurve"/>
      <point x="358" y="421" type="line" smooth="yes"/>
      <point x="397" y="405"/>
      <point x="439" y="352"/>
      <point x="439" y="317" type="qcurve" smooth="yes"/>
      <point x="439" y="282"/>
      <point x="411" y="219"/>
      <point x="385" y="196" type="qcurve"/>
      <point x="396" y="182"/>
      <point x="406" y="148"/>
      <point x="406" y="126" type="qcurve" smooth="yes"/>
      <point x="406" y="63"/>
      <point x="315" y="-10"/>
      <point x="234" y="-10" type="qcurve"/>
      <point x="183" y="-10"/>
      <point x="107" y="-2"/>
      <point x="74" y="8" type="qcurve"/>
      <point x="74" y="120" type="line"/>
      <point x="109" y="109"/>
      <point x="164" y="101"/>
      <point x="192" y="101" type="qcurve"/>
      <point x="225" y="101"/>
      <point x="256" y="113"/>
      <point x="256" y="126" type="qcurve" smooth="yes"/>
      <point x="256" y="135"/>
      <point x="241" y="149"/>
      <point x="212" y="161" type="qcurve"/>
      <point x="101" y="205" type="line" smooth="yes"/>
      <point x="62" y="220"/>
      <point x="20" y="274"/>
      <point x="20" y="310" type="qcurve" smooth="yes"/>
      <point x="20" y="345"/>
      <point x="48" y="408"/>
      <point x="74" y="431" type="qcurve"/>
      <point x="63" y="445"/>
      <point x="53" y="479"/>
      <point x="53" y="501" type="qcurve" smooth="yes"/>
      <point x="53" y="564"/>
      <point x="144" y="637"/>
      <point x="225" y="637" type="qcurve" smooth="yes"/>
      <point x="276" y="637"/>
      <point x="352" y="629"/>
      <point x="385" y="619" type="qcurve"/>
      <point x="385" y="507" type="line"/>
      <point x="350" y="518"/>
      <point x="295" y="526"/>
    </contour>
    <contour>
      <point x="158" y="338" type="qcurve" smooth="yes"/>
      <point x="158" y="320"/>
      <point x="173" y="301"/>
      <point x="196" y="291" type="qcurve"/>
      <point x="290" y="252" type="line"/>
      <point x="295" y="260"/>
      <point x="301" y="281"/>
      <point x="301" y="289" type="qcurve" smooth="yes"/>
      <point x="301" y="307"/>
      <point x="286" y="326"/>
      <point x="263" y="336" type="qcurve"/>
      <point x="169" y="375" type="line"/>
      <point x="164" y="367"/>
      <point x="158" y="346"/>
    </contour>
  </outline>
</glyph>
<glyph name="copyright" format="1">
  <advance width="674.0"/>
  <unicode hex="00A9"/>
  <outline>
    <contour>
      <point x="649" y="314" type="qcurve"/>
      <point x="649" y="159"/>
      <point x="486" y="-10"/>
      <point x="338" y="-10" type="qcurve"/>
      <point x="184" y="-10"/>
      <point x="25" y="155"/>
      <point x="25" y="314" type="qcurve"/>
      <point x="25" y="469"/>
      <point x="188" y="637"/>
      <point x="338" y="637" type="qcurve"/>
      <point x="491" y="637"/>
      <point x="649" y="473"/>
    </contour>
    <contour>
      <point x="558" y="313" type="qcurve"/>
      <point x="558" y="434"/>
      <point x="450" y="552"/>
      <point x="339" y="552" type="qcurve"/>
      <point x="227" y="552"/>
      <point x="117" y="434"/>
      <point x="117" y="313" type="qcurve"/>
      <point x="117" y="196"/>
      <point x="226" y="82"/>
      <point x="339" y="82" type="qcurve"/>
      <point x="450" y="82"/>
      <point x="558" y="196"/>
    </contour>
    <contour>
      <point x="362" y="236" type="qcurve"/>
      <point x="383" y="236"/>
      <point x="431" y="245"/>
      <point x="455" y="253" type="qcurve"/>
      <point x="455" y="159" type="line"/>
      <point x="435" y="149"/>
      <point x="375" y="137"/>
      <point x="343" y="137" type="qcurve"/>
      <point x="253" y="137"/>
      <point x="171" y="224"/>
      <point x="171" y="316" type="qcurve" smooth="yes"/>
      <point x="171" y="406"/>
      <point x="260" y="494"/>
      <point x="352" y="494" type="qcurve"/>
      <point x="378" y="494"/>
      <point x="421" y="489"/>
      <point x="446" y="483" type="qcurve"/>
      <point x="446" y="393" type="line"/>
      <point x="414" y="397"/>
      <point x="381" y="399"/>
      <point x="359" y="399" type="qcurve"/>
      <point x="322" y="399"/>
      <point x="291" y="360"/>
      <point x="291" y="316" type="qcurve" smooth="yes"/>
      <point x="291" y="275"/>
      <point x="325" y="236"/>
    </contour>
  </outline>
</glyph>
<glyph name="ordfeminine" format="1">
  <advance width="330.0"/>
  <unicode hex="00AA"/>
  <outline>
    <contour>
      <point x="291" y="354" type="line"/>
      <point x="201" y="354" type="line"/>
      <point x="198" y="376" type="line"/>
      <point x="196" y="376" type="line"/>
      <point x="176" y="361"/>
      <point x="139" y="348"/>
      <point x="119" y="348" type="qcurve"/>
      <point x="75" y="348"/>
      <point x="32" y="392"/>
      <point x="32" y="438" type="qcurve"/>
      <point x="32" y="484"/>
      <point x="83" y="523"/>
      <point x="144" y="523" type="qcurve"/>
      <point x="156" y="523"/>
      <point x="185" y="520"/>
      <point x="195" y="518" type="qcurve"/>
      <point x="195" y="531" type="line"/>
      <point x="195" y="543"/>
      <point x="175" y="553"/>
      <point x="150" y="553" type="qcurve" smooth="yes"/>
      <point x="124" y="553"/>
      <point x="81" y="551"/>
      <point x="59" y="548" type="qcurve"/>
      <point x="59" y="626" type="line"/>
      <point x="85" y="631"/>
      <point x="141" y="636"/>
      <point x="179" y="636" type="qcurve"/>
      <point x="234" y="636"/>
      <point x="291" y="591"/>
      <point x="291" y="547" type="qcurve"/>
    </contour>
    <contour>
      <point x="156" y="462" type="qcurve"/>
      <point x="136" y="462"/>
      <point x="122" y="454"/>
      <point x="122" y="443" type="qcurve" smooth="yes"/>
      <point x="122" y="433"/>
      <point x="135" y="425"/>
      <point x="149" y="425" type="qcurve"/>
      <point x="161" y="425"/>
      <point x="184" y="430"/>
      <point x="195" y="435" type="qcurve"/>
      <point x="195" y="459" type="line"/>
      <point x="188" y="461"/>
      <point x="169" y="462"/>
    </contour>
    <contour>
      <point x="295" y="231" type="line"/>
      <point x="32" y="231" type="line"/>
      <point x="32" y="314" type="line"/>
      <point x="295" y="314" type="line"/>
    </contour>
  </outline>
</glyph>
<glyph name="guillemotleft" format="1">
  <advance width="536.0"/>
  <unicode hex="00AB"/>
  <outline>
    <contour>
      <point x="301" y="64" type="line"/>
      <point x="161" y="64" type="line"/>
      <point x="12" y="281" type="line"/>
      <point x="161" y="494" type="line"/>
      <point x="301" y="494" type="line"/>
      <point x="153" y="282" type="line"/>
    </contour>
    <contour>
      <point x="521" y="64" type="line"/>
      <point x="381" y="64" type="line"/>
      <point x="232" y="281" type="line"/>
      <point x="381" y="494" type="line"/>
      <point x="521" y="494" type="line"/>
      <point x="373" y="282" type="line"/>
    </contour>
  </outline>
</glyph>
<glyph name="registered" format="1">
  <advance width="402.0"/>
  <unicode hex="00AE"/>
  <outline>
    <contour>
      <point x="382" y="454" type="qcurve"/>
      <point x="382" y="364"/>
      <point x="290" y="270"/>
      <point x="201" y="270" type="qcurve"/>
      <point x="110" y="270"/>
      <point x="20" y="362"/>
      <point x="20" y="454" type="qcurve"/>
      <point x="20" y="543"/>
      <point x="113" y="637"/>
      <point x="202" y="637" type="qcurve"/>
      <point x="292" y="637"/>
      <point x="382" y="545"/>
    </contour>
    <contour>
      <point x="323" y="454" type="qcurve"/>
      <point x="323" y="521"/>
      <point x="264" y="585"/>
      <point x="202" y="585" type="qcurve"/>
      <point x="140" y="585"/>
      <point x="80" y="521"/>
      <point x="80" y="454" type="qcurve"/>
      <point x="80" y="388"/>
      <point x="139" y="326"/>
      <point x="202" y="326" type="qcurve"/>
      <point x="264" y="326"/>
      <point x="323" y="388"/>
    </contour>
    <contour>
      <point x="180" y="419" type="line"/>
      <point x="180" y="355" type="line"/>
      <point x="126" y="355" type="line"/>
      <point x="126" y="557" type="line"/>
      <point x="200" y="557" type="line" smooth="yes"/>
      <point x="248" y="557"/>
      <point x="286" y="523"/>
      <point x="286" y="488" type="qcurve"/>
      <point x="286" y="463"/>
      <point x="266" y="432"/>
      <point x="246" y="425" type="qcurve"/>
      <point x="289" y="355" type="line"/>
      <point x="224" y="355" type="line"/>
      <point x="189" y="419" type="line"/>
    </contour>
    <contour>
      <point x="231" y="488" type="qcurve"/>
      <point x="231" y="499"/>
      <point x="218" y="508"/>
      <point x="200" y="508" type="qcurve"/>
      <point x="180" y="508" type="line"/>
      <point x="180" y="462" type="line"/>
      <point x="200" y="462" type="line" smooth="yes"/>
      <point x="219" y="462"/>
      <point x="231" y="474"/>
    </contour>
  </outline>
</glyph>
<glyph name="degree" format="1">
  <advance width="308.0"/>
  <unicode hex="00B0"/>
  <outline>
    <contour>
      <point x="291" y="499" type="qcurve" smooth="yes"/>
      <point x="291" y="438"/>
      <point x="216" y="366"/>
      <point x="154" y="366" type="qcurve" smooth="yes"/>
      <point x="92" y="366"/>
      <point x="17" y="438"/>
      <point x="17" y="499" type="qcurve" smooth="yes"/>
      <point x="17" y="560"/>
      <point x="92" y="634"/>
      <point x="154" y="634" type="qcurve" smooth="yes"/>
      <point x="216" y="634"/>
      <point x="291" y="560"/>
    </contour>
    <contour>
      <point x="112" y="501" type="qcurve" smooth="yes"/>
      <point x="112" y="480"/>
      <point x="134" y="457"/>
      <point x="154" y="457" type="qcurve" smooth="yes"/>
      <point x="174" y="457"/>
      <point x="197" y="480"/>
      <point x="197" y="501" type="qcurve" smooth="yes"/>
      <point x="197" y="521"/>
      <point x="174" y="543"/>
      <point x="154" y="543" type="qcurve" smooth="yes"/>
      <point x="134" y="543"/>
      <point x="112" y="521"/>
    </contour>
  </outline>
</glyph>
<glyph name="plusminus" format="1">
  <advance width="500.0"/>
  <unicode hex="00B1"/>
  <outline>
    <contour>
      <point x="463" y="481" type="line"/>
      <point x="463" y="341" type="line"/>
      <point x="323" y="341" type="line"/>
      <point x="323" y="219" type="line"/>
      <point x="178" y="219" type="line"/>
      <point x="178" y="341" type="line"/>
      <point x="37" y="341" type="line"/>
      <point x="37" y="481" type="line"/>
      <point x="178" y="481" type="line"/>
      <point x="178" y="601" type="line"/>
      <point x="323" y="601" type="line"/>
      <point x="323" y="481" type="line"/>
    </contour>
    <contour>
      <point x="463" y="170" type="line"/>
      <point x="463" y="30" type="line"/>
      <point x="37" y="30" type="line"/>
      <point x="37" y="170" type="line"/>
    </contour>
  </outline>
</glyph>
<glyph name="uni00B2" format="1">
  <advance width="294.0"/>
  <unicode hex="00B2"/>
  <outline>
    <contour>
      <point x="270" y="373" type="line"/>
      <point x="270" y="270" type="line"/>
      <point x="18" y="270" type="line"/>
      <point x="18" y="373" type="line"/>
      <point x="145" y="492" type="line" smooth="yes"/>
      <point x="154" y="500"/>
      <point x="162" y="513"/>
      <point x="162" y="520" type="qcurve"/>
      <point x="162" y="526"/>
      <point x="151" y="533"/>
      <point x="141" y="533" type="qcurve" smooth="yes"/>
      <point x="127" y="533"/>
      <point x="86" y="529"/>
      <point x="51" y="525" type="qcurve" smooth="yes"/>
      <point x="39" y="523"/>
      <point x="34" y="523"/>
      <point x="35" y="523" type="qcurve"/>
      <point x="35" y="619" type="line"/>
      <point x="60" y="625"/>
      <point x="129" y="633"/>
      <point x="162" y="633" type="qcurve"/>
      <point x="214" y="633"/>
      <point x="272" y="581"/>
      <point x="272" y="537" type="qcurve"/>
      <point x="272" y="507"/>
      <point x="255" y="467"/>
      <point x="234" y="448" type="qcurve"/>
      <point x="149" y="373" type="line"/>
    </contour>
  </outline>
</glyph>
<glyph name="uni00B3" format="1">
  <advance width="282.0"/>
  <unicode hex="00B3"/>
  <outline>
    <contour>
      <point x="250" y="539" type="qcurve" smooth="yes"/>
      <point x="250" y="506"/>
      <point x="221" y="465"/>
      <point x="193" y="458" type="qcurve"/>
      <point x="194" y="458" type="line"/>
      <point x="229" y="455"/>
      <point x="264" y="413"/>
      <point x="264" y="374" type="qcurve"/>
      <point x="264" y="321"/>
      <point x="196" y="264"/>
      <point x="132" y="264" type="qcurve"/>
      <point x="95" y="264"/>
      <point x="35" y="270"/>
      <point x="20" y="276" type="qcurve"/>
      <point x="20" y="368" type="line"/>
      <point x="43" y="364"/>
      <point x="86" y="361"/>
      <point x="111" y="361" type="qcurve" smooth="yes"/>
      <point x="143" y="361"/>
      <point x="162" y="370"/>
      <point x="162" y="385" type="qcurve" smooth="yes"/>
      <point x="162" y="397"/>
      <point x="144" y="408"/>
      <point x="125" y="408" type="qcurve"/>
      <point x="58" y="408" type="line"/>
      <point x="58" y="497" type="line"/>
      <point x="109" y="497" type="line" smooth="yes"/>
      <point x="129" y="497"/>
      <point x="149" y="507"/>
      <point x="149" y="518" type="qcurve" smooth="yes"/>
      <point x="149" y="530"/>
      <point x="132" y="539"/>
      <point x="112" y="539" type="qcurve"/>
      <point x="103" y="539"/>
      <point x="75" y="536"/>
      <point x="47" y="533" type="qcurve" smooth="yes"/>
      <point x="33" y="531"/>
      <point x="26" y="531"/>
      <point x="27" y="531" type="qcurve"/>
      <point x="27" y="617" type="line"/>
      <point x="46" y="624"/>
      <point x="115" y="633"/>
      <point x="146" y="633" type="qcurve" smooth="yes"/>
      <point x="197" y="633"/>
      <point x="250" y="585"/>
    </contour>
  </outline>
</glyph>
<glyph name="paragraph" format="1">
  <advance width="484.0"/>
  <unicode hex="00B6"/>
  <outline>
    <contour>
      <point x="437" y="627" type="qcurve"/>
      <point x="437" y="24" type="line" smooth="yes"/>
      <point x="437" y="-60"/>
      <point x="344" y="-162"/>
      <point x="270" y="-162" type="qcurve"/>
      <point x="255" y="-162"/>
      <point x="216" y="-159"/>
      <point x="192" y="-156" type="qcurve"/>
      <point x="192" y="-31" type="line"/>
      <point x="203" y="-32"/>
      <point x="216" y="-33"/>
      <point x="225" y="-33" type="qcurve"/>
      <point x="262" y="-33"/>
      <point x="287" y="-9"/>
      <point x="287" y="24" type="qcurve"/>
      <point x="287" y="135" type="line"/>
      <point x="268" y="133"/>
      <point x="230" y="130"/>
      <point x="211" y="130" type="qcurve" smooth="yes"/>
      <point x="103" y="130"/>
      <point x="16" y="242"/>
      <point x="16" y="382" type="qcurve" smooth="yes"/>
      <point x="16" y="524"/>
      <point x="128" y="639"/>
      <point x="268" y="639" type="qcurve" smooth="yes"/>
      <point x="306" y="639"/>
      <point x="382" y="634"/>
    </contour>
    <contour>
      <point x="257" y="504" type="qcurve"/>
      <point x="196" y="504"/>
      <point x="166" y="460"/>
      <point x="166" y="382" type="qcurve" smooth="yes"/>
      <point x="166" y="307"/>
      <point x="193" y="265"/>
      <point x="242" y="265" type="qcurve" smooth="yes"/>
      <point x="254" y="265"/>
      <point x="277" y="267"/>
      <point x="287" y="268" type="qcurve"/>
      <point x="287" y="502" type="line"/>
      <point x="279" y="503"/>
      <point x="265" y="504"/>
    </contour>
  </outline>
</glyph>
<glyph name="cedilla" format="1">
  <advance width="330.0"/>
  <unicode hex="00B8"/>
  <outline>
    <contour>
      <point x="280" y="-109" type="qcurve"/>
      <point x="280" y="-153"/>
      <point x="224" y="-195"/>
      <point x="163" y="-195" type="qcurve" smooth="yes"/>
      <point x="133" y="-195"/>
      <point x="69" y="-187"/>
      <point x="60" y="-184" type="qcurve"/>
      <point x="60" y="-116" type="line"/>
      <point x="66" y="-118"/>
      <point x="119" y="-126"/>
      <point x="137" y="-126" type="qcurve" smooth="yes"/>
      <point x="154" y="-126"/>
      <point x="167" y="-116"/>
      <point x="167" y="-103" type="qcurve"/>
      <point x="167" y="-93"/>
      <point x="149" y="-83"/>
      <point x="129" y="-83" type="qcurve"/>
      <point x="112" y="-83"/>
      <point x="93" y="-83"/>
      <point x="80" y="-84" type="qcurve"/>
      <point x="100" y="19" type="line"/>
      <point x="196" y="10" type="line"/>
      <point x="188" y="-40" type="line"/>
      <point x="231" y="-40"/>
      <point x="280" y="-76"/>
    </contour>
    <contour>
      <point x="151" y="0" type="move" name="_bottom"/>
    </contour>
  </outline>
</glyph>
<glyph name="uni00B9" format="1">
  <advance width="244.0"/>
  <unicode hex="00B9"/>
  <outline>
    <contour>
      <point x="209" y="270" type="line"/>
      <point x="98" y="270" type="line"/>
      <point x="98" y="529" type="line"/>
      <point x="97" y="528" type="line"/>
      <point x="9" y="518" type="line"/>
      <point x="9" y="610" type="line"/>
      <point x="209" y="633" type="line"/>
    </contour>
  </outline>
</glyph>
<glyph name="ordmasculine" format="1">
  <advance width="352.0"/>
  <unicode hex="00BA"/>
  <outline>
    <contour>
      <point x="322" y="492" type="qcurve"/>
      <point x="322" y="418"/>
      <point x="251" y="348"/>
      <point x="177" y="348" type="qcurve"/>
      <point x="102" y="348"/>
      <point x="31" y="418"/>
      <point x="31" y="492" type="qcurve"/>
      <point x="31" y="566"/>
      <point x="102" y="636"/>
      <point x="177" y="636" type="qcurve"/>
      <point x="251" y="636"/>
      <point x="322" y="566"/>
    </contour>
    <contour>
      <point x="127" y="493" type="qcurve"/>
      <point x="127" y="462"/>
      <point x="149" y="437"/>
      <point x="177" y="437" type="qcurve"/>
      <point x="204" y="437"/>
      <point x="226" y="462"/>
      <point x="226" y="493" type="qcurve"/>
      <point x="226" y="524"/>
      <point x="204" y="550"/>
      <point x="177" y="550" type="qcurve"/>
      <point x="149" y="550"/>
      <point x="127" y="525"/>
    </contour>
    <contour>
      <point x="315" y="231" type="line"/>
      <point x="36" y="231" type="line"/>
      <point x="36" y="314" type="line"/>
      <point x="315" y="314" type="line"/>
    </contour>
  </outline>
</glyph>
<glyph name="guillemotright" format="1">
  <advance width="536.0"/>
  <unicode hex="00BB"/>
  <outline>
    <contour>
      <point x="524" y="281" type="line"/>
      <point x="375" y="64" type="line"/>
      <point x="235" y="64" type="line"/>
      <point x="383" y="282" type="line"/>
      <point x="235" y="494" type="line"/>
      <point x="375" y="494" type="line"/>
    </contour>
    <contour>
      <point x="304" y="281" type="line"/>
      <point x="155" y="64" type="line"/>
      <point x="15" y="64" type="line"/>
      <point x="163" y="282" type="line"/>
      <point x="15" y="494" type="line"/>
      <point x="155" y="494" type="line"/>
    </contour>
  </outline>
</glyph>
<glyph name="questiondown" format="1">
  <advance width="370.0"/>
  <unicode hex="00BF"/>
  <outline>
    <contour>
      <point x="132" y="360" type="line"/>
      <point x="132" y="494" type="line"/>
      <point x="287" y="494" type="line"/>
      <point x="287" y="360" type="line"/>
    </contour>
    <contour>
      <point x="185" y="-143" type="qcurve" smooth="yes"/>
      <point x="106" y="-143"/>
      <point x="15" y="-71"/>
      <point x="15" y="-5" type="qcurve" smooth="yes"/>
      <point x="15" y="51"/>
      <point x="74" y="147"/>
      <point x="141" y="194" type="qcurve"/>
      <point x="141" y="291" type="line"/>
      <point x="277" y="291" type="line"/>
      <point x="277" y="148" type="line"/>
      <point x="212" y="110"/>
      <point x="160" y="56"/>
      <point x="160" y="31" type="qcurve" smooth="yes"/>
      <point x="160" y="10"/>
      <point x="183" y="-10"/>
      <point x="210" y="-10" type="qcurve"/>
      <point x="240" y="-10"/>
      <point x="325" y="5"/>
      <point x="352" y="15" type="qcurve"/>
      <point x="352" y="-115" type="line"/>
      <point x="314" y="-130"/>
      <point x="236" y="-143"/>
    </contour>
  </outline>
</glyph>
<glyph name="AE" format="1">
  <advance width="739.0"/>
  <unicode hex="00C6"/>
  <outline>
    <contour>
      <point x="160" y="0" type="line"/>
      <point x="-3" y="0" type="line"/>
      <point x="219" y="627" type="line"/>
      <point x="705" y="627" type="line"/>
      <point x="705" y="487" type="line"/>
      <point x="429" y="487" type="line"/>
      <point x="462" y="383" type="line"/>
      <point x="668" y="383" type="line"/>
      <point x="668" y="253" type="line"/>
      <point x="504" y="253" type="line"/>
      <point x="539" y="145" type="line"/>
      <point x="714" y="145" type="line"/>
      <point x="714" y="0" type="line"/>
      <point x="434" y="0" type="line"/>
      <point x="401" y="105" type="line"/>
      <point x="193" y="105" type="line"/>
    </contour>
    <contour>
      <point x="296" y="458" type="qcurve"/>
      <point x="285" y="415"/>
      <point x="264" y="335"/>
      <point x="257" y="311" type="qcurve"/>
      <point x="231" y="228" type="line"/>
      <point x="362" y="228" type="line"/>
      <point x="336" y="311" type="line" smooth="yes"/>
      <point x="330" y="330"/>
      <point x="311" y="403"/>
    </contour>
    <contour>
      <point x="428.0" y="645.0" type="move" name="top"/>
    </contour>
  </outline>
</glyph>
<glyph name="Ccedilla" format="1">
  <advance width="508.0"/>
  <unicode hex="00C7"/>
  <outline>
    <contour>
      <point x="422" y="-109" type="qcurve"/>
      <point x="422" y="-153"/>
      <point x="366" y="-195"/>
      <point x="305" y="-195" type="qcurve" smooth="yes"/>
      <point x="275" y="-195"/>
      <point x="211" y="-187"/>
      <point x="202" y="-184" type="qcurve"/>
      <point x="202" y="-116" type="line"/>
      <point x="208" y="-118"/>
      <point x="261" y="-126"/>
      <point x="279" y="-126" type="qcurve" smooth="yes"/>
      <point x="296" y="-126"/>
      <point x="309" y="-116"/>
      <point x="309" y="-103" type="qcurve"/>
      <point x="309" y="-93"/>
      <point x="291" y="-83"/>
      <point x="271" y="-83" type="qcurve"/>
      <point x="254" y="-83"/>
      <point x="235" y="-83"/>
      <point x="222" y="-84" type="qcurve"/>
      <point x="237" y="-7" type="line"/>
      <point x="122" y="6"/>
      <point x="27" y="154"/>
      <point x="27" y="314" type="qcurve" smooth="yes"/>
      <point x="27" y="482"/>
      <point x="172" y="637"/>
      <point x="330" y="637" type="qcurve"/>
      <point x="376" y="637"/>
      <point x="448" y="633"/>
      <point x="477" y="628" type="qcurve"/>
      <point x="477" y="493" type="line"/>
      <point x="444" y="495"/>
      <point x="373" y="497"/>
      <point x="330" y="497" type="qcurve"/>
      <point x="275" y="497"/>
      <point x="222" y="476"/>
      <point x="209" y="450" type="qcurve" smooth="yes"/>
      <point x="197" y="430"/>
      <point x="187" y="364"/>
      <point x="187" y="314" type="qcurve" smooth="yes"/>
      <point x="187" y="267"/>
      <point x="196" y="204"/>
      <point x="206" y="183" type="qcurve" smooth="yes"/>
      <point x="219" y="157"/>
      <point x="269" y="135"/>
      <point x="320" y="135" type="qcurve"/>
      <point x="360" y="135"/>
      <point x="454" y="152"/>
      <point x="491" y="166" type="qcurve"/>
      <point x="491" y="29" type="line"/>
      <point x="441" y="10"/>
      <point x="372" y="-6"/>
      <point x="335" y="-9" type="qcurve"/>
      <point x="330" y="-40" type="line"/>
      <point x="373" y="-40"/>
      <point x="422" y="-76"/>
    </contour>
  </outline>
</glyph>
<glyph name="Eth" format="1">
  <advance width="644.0"/>
  <unicode hex="00D0"/>
  <outline>
    <contour>
      <point x="20" y="269" type="line"/>
      <point x="20" y="372" type="line"/>
      <point x="90" y="372" type="line"/>
      <point x="90" y="627" type="line"/>
      <point x="309" y="627" type="line" smooth="yes"/>
      <point x="405" y="627"/>
      <point x="518" y="595"/>
      <point x="552" y="560" type="qcurve" smooth="yes"/>
      <point x="586" y="525"/>
      <point x="617" y="406"/>
      <point x="617" y="314" type="qcurve"/>
      <point x="617" y="151"/>
      <point x="471" y="0"/>
      <point x="309" y="0" type="qcurve"/>
      <point x="90" y="0" type="line"/>
      <point x="90" y="269" type="line"/>
    </contour>
    <contour>
      <point x="365" y="372" type="line"/>
      <point x="365" y="269" type="line"/>
      <point x="245" y="269" type="line"/>
      <point x="245" y="145" type="line"/>
      <point x="309" y="145" type="line" smooth="yes"/>
      <point x="363" y="145"/>
      <point x="417" y="163"/>
      <point x="432" y="183" type="qcurve" smooth="yes"/>
      <point x="445" y="202"/>
      <point x="457" y="265"/>
      <point x="457" y="314" type="qcurve"/>
      <point x="457" y="364"/>
      <point x="445" y="427"/>
      <point x="432" y="447" type="qcurve" smooth="yes"/>
      <point x="418" y="468"/>
      <point x="364" y="487"/>
      <point x="309" y="487" type="qcurve"/>
      <point x="245" y="487" type="line"/>
      <point x="245" y="372" type="line"/>
    </contour>
  </outline>
</glyph>
<glyph name="multiply" format="1">
  <advance width="500.0"/>
  <unicode hex="00D7"/>
  <outline>
    <contour>
      <point x="30" y="439" type="line"/>
      <point x="132" y="542" type="line"/>
      <point x="251" y="423" type="line"/>
      <point x="370" y="542" type="line"/>
      <point x="469" y="443" type="line"/>
      <point x="350" y="324" type="line"/>
      <point x="471" y="203" type="line"/>
      <point x="368" y="101" type="line"/>
      <point x="248" y="222" type="line"/>
      <point x="128" y="102" type="line"/>
      <point x="29" y="201" type="line"/>
      <point x="149" y="321" type="line"/>
    </contour>
  </outline>
</glyph>
<glyph name="Oslash" format="1">
  <advance width="644.0"/>
  <unicode hex="00D8"/>
  <outline>
    <contour>
      <point x="122" y="-69" type="line"/>
      <point x="39" y="-14" type="line"/>
      <point x="91" y="64" type="line"/>
      <point x="58" y="101"/>
      <point x="27" y="223"/>
      <point x="27" y="314" type="qcurve"/>
      <point x="27" y="485"/>
      <point x="166" y="637"/>
      <point x="322" y="637" type="qcurve"/>
      <point x="364" y="637"/>
      <point x="435" y="628"/>
      <point x="463" y="619" type="qcurve"/>
      <point x="519" y="703" type="line"/>
      <point x="603" y="649" type="line"/>
      <point x="549" y="568" type="line"/>
      <point x="584" y="531"/>
      <point x="617" y="408"/>
      <point x="617" y="314" type="qcurve"/>
      <point x="617" y="143"/>
      <point x="478" y="-10"/>
      <point x="322" y="-10" type="qcurve"/>
      <point x="276" y="-10"/>
      <point x="204" y="0"/>
      <point x="175" y="10" type="qcurve"/>
    </contour>
    <contour>
      <point x="203" y="450" type="qcurve" smooth="yes"/>
      <point x="193" y="430"/>
      <point x="184" y="365"/>
      <point x="184" y="314" type="qcurve"/>
      <point x="184" y="278"/>
      <point x="188" y="231"/>
      <point x="192" y="214" type="qcurve"/>
      <point x="379" y="493" type="line"/>
      <point x="368" y="495"/>
      <point x="340" y="497"/>
      <point x="322" y="497" type="qcurve"/>
      <point x="266" y="497"/>
      <point x="215" y="476"/>
    </contour>
    <contour>
      <point x="322" y="135" type="qcurve"/>
      <point x="377" y="135"/>
      <point x="428" y="155"/>
      <point x="441" y="180" type="qcurve" smooth="yes"/>
      <point x="451" y="200"/>
      <point x="460" y="264"/>
      <point x="460" y="314" type="qcurve"/>
      <point x="460" y="349"/>
      <point x="456" y="402"/>
      <point x="451" y="422" type="qcurve"/>
      <point x="262" y="139" type="line"/>
      <point x="274" y="137"/>
      <point x="303" y="135"/>
    </contour>
    <contour>
      <point x="322.0" y="655" type="move" name="top"/>
    </contour>
  </outline>
</glyph>
<glyph name="Thorn" format="1">
  <advance width="567.0"/>
  <unicode hex="00DE"/>
  <outline>
    <contour>
      <point x="203" y="90" type="line"/>
      <point x="203" y="0" type="line"/>
      <point x="48" y="0" type="line"/>
      <point x="48" y="627" type="line"/>
      <point x="203" y="627" type="line"/>
      <point x="203" y="541" type="line"/>
      <point x="277" y="541" type="line" smooth="yes"/>
      <point x="422" y="541"/>
      <point x="544" y="440"/>
      <point x="544" y="321" type="qcurve"/>
      <point x="544" y="203"/>
      <point x="415" y="90"/>
      <point x="280" y="90" type="qcurve"/>
    </contour>
    <contour>
      <point x="387" y="321" type="qcurve"/>
      <point x="387" y="365"/>
      <point x="339" y="401"/>
      <point x="277" y="401" type="qcurve"/>
      <point x="203" y="401" type="line"/>
      <point x="203" y="226" type="line"/>
      <point x="277" y="226" type="line" smooth="yes"/>
      <point x="340" y="226"/>
      <point x="387" y="268"/>
    </contour>
  </outline>
</glyph>
<glyph name="germandbls" format="1">
  <advance width="579.0"/>
  <unicode hex="00DF"/>
  <outline>
    <contour>
      <point x="255" y="677" type="qcurve"/>
      <point x="360" y="677"/>
      <point x="460" y="609"/>
      <point x="460" y="535" type="qcurve" smooth="yes"/>
      <point x="460" y="521"/>
      <point x="455" y="481"/>
      <point x="451" y="464" type="qcurve"/>
      <point x="425" y="341" type="line"/>
      <point x="469" y="329" type="line"/>
      <point x="519" y="315"/>
      <point x="556" y="248"/>
      <point x="556" y="176" type="qcurve"/>
      <point x="556" y="83"/>
      <point x="471" y="-10"/>
      <point x="385" y="-10" type="qcurve" smooth="yes"/>
      <point x="345" y="-10"/>
      <point x="281" y="-3"/>
      <point x="261" y="3" type="qcurve"/>
      <point x="261" y="131" type="line"/>
      <point x="293" y="126"/>
      <point x="336" y="122"/>
      <point x="356" y="122" type="qcurve" smooth="yes"/>
      <point x="387" y="122"/>
      <point x="414" y="146"/>
      <point x="414" y="176" type="qcurve" smooth="yes"/>
      <point x="414" y="198"/>
      <point x="402" y="215"/>
      <point x="384" y="219" type="qcurve"/>
      <point x="270" y="247" type="line"/>
      <point x="307" y="468" type="line"/>
      <point x="309" y="478"/>
      <point x="310" y="489"/>
      <point x="310" y="499" type="qcurve" smooth="yes"/>
      <point x="310" y="520"/>
      <point x="283" y="542"/>
      <point x="255" y="542" type="qcurve"/>
      <point x="221" y="542"/>
      <point x="193" y="516"/>
      <point x="193" y="485" type="qcurve"/>
      <point x="193" y="0" type="line"/>
      <point x="43" y="0" type="line"/>
      <point x="43" y="486" type="line"/>
      <point x="43" y="582"/>
      <point x="148" y="677"/>
    </contour>
  </outline>
</glyph>
<glyph name="ae" format="1">
  <advance width="733.0"/>
  <unicode hex="00E6"/>
  <outline>
    <contour>
      <point x="163" y="-10" type="qcurve"/>
      <point x="87" y="-10"/>
      <point x="16" y="66"/>
      <point x="16" y="148" type="qcurve"/>
      <point x="16" y="229"/>
      <point x="104" y="295"/>
      <point x="210" y="295" type="qcurve"/>
      <point x="284" y="295" type="line"/>
      <point x="284" y="327" type="line" smooth="yes"/>
      <point x="284" y="351"/>
      <point x="248" y="374"/>
      <point x="211" y="374" type="qcurve" smooth="yes"/>
      <point x="165" y="374"/>
      <point x="92" y="369"/>
      <point x="62" y="363" type="qcurve"/>
      <point x="62" y="486" type="line"/>
      <point x="99" y="495"/>
      <point x="194" y="504"/>
      <point x="257" y="504" type="qcurve"/>
      <point x="295" y="504"/>
      <point x="351" y="483"/>
      <point x="369" y="463" type="qcurve"/>
      <point x="396" y="483"/>
      <point x="462" y="504"/>
      <point x="502" y="504" type="qcurve"/>
      <point x="615" y="504"/>
      <point x="707" y="411"/>
      <point x="707" y="293" type="qcurve" smooth="yes"/>
      <point x="707" y="261"/>
      <point x="705" y="223"/>
      <point x="702" y="198" type="qcurve"/>
      <point x="430" y="198" type="line"/>
      <point x="431" y="157"/>
      <point x="468" y="125"/>
      <point x="519" y="125" type="qcurve"/>
      <point x="564" y="125"/>
      <point x="658" y="137"/>
      <point x="686" y="146" type="qcurve"/>
      <point x="686" y="27" type="line"/>
      <point x="662" y="12"/>
      <point x="553" y="-10"/>
      <point x="495" y="-10" type="qcurve"/>
      <point x="436" y="-10"/>
      <point x="355" y="22"/>
      <point x="330" y="55" type="qcurve"/>
      <point x="292" y="24"/>
      <point x="206" y="-10"/>
    </contour>
    <contour>
      <point x="502" y="376" type="qcurve"/>
      <point x="460" y="376"/>
      <point x="430" y="343"/>
      <point x="430" y="295" type="qcurve"/>
      <point x="571" y="295" type="line"/>
      <point x="571" y="317" type="line"/>
      <point x="570" y="352"/>
      <point x="543" y="376"/>
    </contour>
    <contour>
      <point x="157" y="156" type="qcurve" smooth="yes"/>
      <point x="157" y="132"/>
      <point x="178" y="113"/>
      <point x="204" y="113" type="qcurve"/>
      <point x="227" y="113"/>
      <point x="277" y="128"/>
      <point x="294" y="139" type="qcurve"/>
      <point x="291" y="154"/>
      <point x="287" y="183"/>
      <point x="286" y="198" type="qcurve"/>
      <point x="220" y="198" type="line"/>
      <point x="183" y="198"/>
      <point x="157" y="182"/>
    </contour>
    <contour>
      <point x="376.0" y="530" type="move" name="top"/>
    </contour>
  </outline>
</glyph>
<glyph name="ccedilla" format="1">
  <advance width="429.0"/>
  <unicode hex="00E7"/>
  <outline>
    <contour>
      <point x="374" y="-109" type="qcurve"/>
      <point x="374" y="-153"/>
      <point x="318" y="-195"/>
      <point x="257" y="-195" type="qcurve" smooth="yes"/>
      <point x="227" y="-195"/>
      <point x="163" y="-187"/>
      <point x="154" y="-184" type="qcurve"/>
      <point x="154" y="-116" type="line"/>
      <point x="160" y="-118"/>
      <point x="213" y="-126"/>
      <point x="231" y="-126" type="qcurve" smooth="yes"/>
      <point x="248" y="-126"/>
      <point x="261" y="-116"/>
      <point x="261" y="-103" type="qcurve"/>
      <point x="261" y="-93"/>
      <point x="243" y="-83"/>
      <point x="223" y="-83" type="qcurve"/>
      <point x="206" y="-83"/>
      <point x="187" y="-83"/>
      <point x="174" y="-84" type="qcurve"/>
      <point x="189" y="-9" type="line"/>
      <point x="100" y="-2"/>
      <point x="26" y="114"/>
      <point x="26" y="247" type="qcurve" smooth="yes"/>
      <point x="26" y="389"/>
      <point x="138" y="504"/>
      <point x="278" y="504" type="qcurve" smooth="yes"/>
      <point x="312" y="504"/>
      <point x="366" y="501"/>
      <point x="397" y="497" type="qcurve"/>
      <point x="397" y="364" type="line"/>
      <point x="348" y="368"/>
      <point x="304" y="369"/>
      <point x="278" y="369" type="qcurve" smooth="yes"/>
      <point x="209" y="369"/>
      <point x="176" y="330"/>
      <point x="176" y="247" type="qcurve" smooth="yes"/>
      <point x="176" y="172"/>
      <point x="203" y="130"/>
      <point x="252" y="130" type="qcurve" smooth="yes"/>
      <point x="292" y="130"/>
      <point x="379" y="142"/>
      <point x="410" y="151" type="qcurve"/>
      <point x="410" y="27" type="line"/>
      <point x="392" y="16"/>
      <point x="325" y="-2"/>
      <point x="287" y="-6" type="qcurve"/>
      <point x="282" y="-40" type="line"/>
      <point x="325" y="-40"/>
      <point x="374" y="-76"/>
    </contour>
  </outline>
</glyph>
<glyph name="eth" format="1">
  <advance width="540.0"/>
  <unicode hex="00F0"/>
  <outline>
    <contour>
      <point x="513" y="232" type="qcurve"/>
      <point x="513" y="101"/>
      <point x="401" y="-10"/>
      <point x="269" y="-10" type="qcurve"/>
      <point x="137" y="-10"/>
      <point x="25" y="101"/>
      <point x="25" y="232" type="qcurve"/>
      <point x="25" y="363"/>
      <point x="137" y="474"/>
      <point x="269" y="474" type="qcurve"/>
      <point x="288" y="474"/>
      <point x="318" y="472"/>
      <point x="332" y="470" type="qcurve"/>
      <point x="326" y="485"/>
      <point x="312" y="514"/>
      <point x="304" y="529" type="qcurve"/>
      <point x="148" y="494" type="line"/>
      <point x="148" y="577" type="line"/>
      <point x="257" y="602" type="line"/>
      <point x="249" y="613"/>
      <point x="228" y="639"/>
      <point x="206" y="665" type="qcurve"/>
      <point x="366" y="665" type="line"/>
      <point x="371" y="659"/>
      <point x="383" y="646"/>
      <point x="394" y="632" type="qcurve"/>
      <point x="513" y="659" type="line"/>
      <point x="513" y="576" type="line"/>
      <point x="442" y="560" type="line"/>
      <point x="479" y="495"/>
      <point x="513" y="335"/>
    </contour>
    <contour>
      <point x="175" y="234" type="qcurve"/>
      <point x="175" y="167"/>
      <point x="208" y="129"/>
      <point x="269" y="129" type="qcurve"/>
      <point x="330" y="129"/>
      <point x="363" y="167"/>
      <point x="363" y="234" type="qcurve"/>
      <point x="363" y="301"/>
      <point x="330" y="339"/>
      <point x="269" y="339" type="qcurve"/>
      <point x="208" y="339"/>
      <point x="175" y="301"/>
    </contour>
  </outline>
</glyph>
<glyph name="oslash" format="1">
  <advance width="538.0"/>
  <unicode hex="00F8"/>
  <outline>
    <contour>
      <point x="106" y="-81" type="line"/>
      <point x="24" y="-24" type="line"/>
      <point x="77" y="53" type="line"/>
      <point x="50" y="83"/>
      <point x="25" y="178"/>
      <point x="25" y="247" type="qcurve"/>
      <point x="25" y="386"/>
      <point x="137" y="504"/>
      <point x="269" y="504" type="qcurve"/>
      <point x="302" y="504"/>
      <point x="356" y="498"/>
      <point x="378" y="491" type="qcurve"/>
      <point x="434" y="572" type="line"/>
      <point x="516" y="516" type="line"/>
      <point x="463" y="438" type="line"/>
      <point x="489" y="408"/>
      <point x="513" y="315"/>
      <point x="513" y="247" type="qcurve"/>
      <point x="513" y="108"/>
      <point x="401" y="-10"/>
      <point x="269" y="-10" type="qcurve"/>
      <point x="238" y="-10"/>
      <point x="186" y="-4"/>
      <point x="163" y="2" type="qcurve"/>
    </contour>
    <contour>
      <point x="269" y="369" type="qcurve"/>
      <point x="208" y="369"/>
      <point x="175" y="325"/>
      <point x="175" y="249" type="qcurve"/>
      <point x="175" y="232"/>
      <point x="176" y="204"/>
      <point x="178" y="192" type="qcurve"/>
      <point x="299" y="368" type="line"/>
      <point x="294" y="369"/>
      <point x="282" y="369"/>
    </contour>
    <contour>
      <point x="269" y="129" type="qcurve"/>
      <point x="330" y="129"/>
      <point x="363" y="173"/>
      <point x="363" y="249" type="qcurve"/>
      <point x="363" y="260"/>
      <point x="362" y="283"/>
      <point x="361" y="299" type="qcurve"/>
      <point x="245" y="130" type="line"/>
      <point x="249" y="129"/>
      <point x="258" y="129"/>
    </contour>
    <contour>
      <point x="269.0" y="530" type="move" name="top"/>
    </contour>
  </outline>
</glyph>
<glyph name="thorn" format="1">
  <advance width="541.0"/>
  <unicode hex="00FE"/>
  <outline>
    <contour>
      <point x="193" y="-152" type="line"/>
      <point x="43" y="-152" type="line"/>
      <point x="43" y="665" type="line"/>
      <point x="193" y="665" type="line"/>
      <point x="193" y="464" type="line"/>
      <point x="221" y="483"/>
      <point x="294" y="504"/>
      <point x="335" y="504" type="qcurve" smooth="yes"/>
      <point x="433" y="504"/>
      <point x="516" y="386"/>
      <point x="516" y="247" type="qcurve"/>
      <point x="516" y="112"/>
      <point x="411" y="-10"/>
      <point x="293" y="-10" type="qcurve" smooth="yes"/>
      <point x="264" y="-10"/>
      <point x="213" y="-3"/>
      <point x="193" y="3" type="qcurve"/>
    </contour>
    <contour>
      <point x="366" y="247" type="qcurve"/>
      <point x="366" y="322"/>
      <point x="334" y="369"/>
      <point x="281" y="369" type="qcurve" smooth="yes"/>
      <point x="255" y="369"/>
      <point x="210" y="361"/>
      <point x="193" y="353" type="qcurve"/>
      <point x="193" y="142" type="line"/>
      <point x="208" y="135"/>
      <point x="247" y="129"/>
      <point x="272" y="129" type="qcurve" smooth="yes"/>
      <point x="333" y="129"/>
      <point x="366" y="172"/>
    </contour>
  </outline>
</glyph>
<glyph name="Aogonek" format="1">
  <advance width="615.0"/>
  <unicode hex="0104"/>
  <outline>
    <contour>
      <point x="160" y="0" type="line"/>
      <point x="-3" y="0" type="line"/>
      <point x="229" y="627" type="line"/>
      <point x="390" y="627" type="line"/>
      <point x="616" y="0" type="line"/>
      <point x="613" y="0" type="line"/>
      <point x="548" y="-12"/>
      <point x="485" y="-51"/>
      <point x="485" y="-78" type="qcurve" smooth="yes"/>
      <point x="485" y="-98"/>
      <point x="509" y="-115"/>
      <point x="537" y="-115" type="qcurve" smooth="yes"/>
      <point x="546" y="-115"/>
      <point x="570" y="-112"/>
      <point x="583" y="-110" type="qcurve"/>
      <point x="583" y="-193" type="line"/>
      <point x="564" y="-199"/>
      <point x="523" y="-204"/>
      <point x="501" y="-204" type="qcurve" smooth="yes"/>
      <point x="444" y="-204"/>
      <point x="386" y="-154"/>
      <point x="386" y="-105" type="qcurve"/>
      <point x="386" y="-69"/>
      <point x="420" y="-16"/>
      <point x="454" y="1" type="qcurve"/>
      <point x="421" y="105" type="line"/>
      <point x="193" y="105" type="line"/>
    </contour>
    <contour>
      <point x="306" y="473" type="qcurve"/>
      <point x="298" y="445"/>
      <point x="279" y="382"/>
      <point x="257" y="311" type="qcurve"/>
      <point x="231" y="228" type="line"/>
      <point x="382" y="228" type="line"/>
      <point x="356" y="311" type="line" smooth="yes"/>
      <point x="343" y="349"/>
      <point x="317" y="434"/>
    </contour>
  </outline>
</glyph>
<glyph name="aogonek" format="1">
  <advance width="490.0"/>
  <unicode hex="0105"/>
  <outline>
    <contour>
      <point x="163" y="-10" type="qcurve"/>
      <point x="87" y="-10"/>
      <point x="16" y="66"/>
      <point x="16" y="148" type="qcurve"/>
      <point x="16" y="232"/>
      <point x="101" y="300"/>
      <point x="205" y="300" type="qcurve"/>
      <point x="229" y="300"/>
      <point x="280" y="295"/>
      <point x="299" y="291" type="qcurve"/>
      <point x="299" y="327" type="line" smooth="yes"/>
      <point x="299" y="351"/>
      <point x="258" y="374"/>
      <point x="216" y="374" type="qcurve" smooth="yes"/>
      <point x="168" y="374"/>
      <point x="93" y="369"/>
      <point x="62" y="363" type="qcurve"/>
      <point x="62" y="486" type="line"/>
      <point x="99" y="495"/>
      <point x="197" y="504"/>
      <point x="262" y="504" type="qcurve"/>
      <point x="354" y="504"/>
      <point x="449" y="422"/>
      <point x="449" y="342" type="qcurve"/>
      <point x="449" y="0" type="line"/>
      <point x="384" y="-12"/>
      <point x="321" y="-51"/>
      <point x="321" y="-78" type="qcurve" smooth="yes"/>
      <point x="321" y="-98"/>
      <point x="345" y="-115"/>
      <point x="373" y="-115" type="qcurve" smooth="yes"/>
      <point x="382" y="-115"/>
      <point x="406" y="-112"/>
      <point x="419" y="-110" type="qcurve"/>
      <point x="419" y="-193" type="line"/>
      <point x="400" y="-199"/>
      <point x="359" y="-204"/>
      <point x="337" y="-204" type="qcurve" smooth="yes"/>
      <point x="280" y="-204"/>
      <point x="222" y="-154"/>
      <point x="222" y="-105" type="qcurve"/>
      <point x="222" y="-64"/>
      <point x="265" y="-7"/>
      <point x="308" y="9" type="qcurve"/>
      <point x="304" y="42" type="line"/>
      <point x="301" y="42" type="line"/>
      <point x="270" y="18"/>
      <point x="196" y="-10"/>
    </contour>
    <contour>
      <point x="225" y="201" type="qcurve"/>
      <point x="185" y="201"/>
      <point x="157" y="184"/>
      <point x="157" y="157" type="qcurve" smooth="yes"/>
      <point x="157" y="132"/>
      <point x="180" y="113"/>
      <point x="209" y="113" type="qcurve"/>
      <point x="231" y="113"/>
      <point x="279" y="125"/>
      <point x="299" y="134" type="qcurve"/>
      <point x="299" y="195" type="line"/>
      <point x="287" y="198"/>
      <point x="251" y="201"/>
    </contour>
  </outline>
</glyph>
<glyph name="dcroat" format="1">
  <advance width="541.0"/>
  <unicode hex="0111"/>
  <outline>
    <contour>
      <point x="568" y="619" type="line"/>
      <point x="568" y="536" type="line"/>
      <point x="498" y="536" type="line"/>
      <point x="498" y="0" type="line"/>
      <point x="365" y="0" type="line"/>
      <point x="357" y="46" type="line"/>
      <point x="354" y="46" type="line"/>
      <point x="327" y="18"/>
      <point x="253" y="-10"/>
      <point x="206" y="-10" type="qcurve"/>
      <point x="108" y="-10"/>
      <point x="25" y="103"/>
      <point x="25" y="237" type="qcurve"/>
      <point x="25" y="367"/>
      <point x="130" y="484"/>
      <point x="248" y="484" type="qcurve"/>
      <point x="277" y="484"/>
      <point x="328" y="477"/>
      <point x="348" y="471" type="qcurve"/>
      <point x="348" y="536" type="line"/>
      <point x="203" y="536" type="line"/>
      <point x="203" y="619" type="line"/>
      <point x="348" y="619" type="line"/>
      <point x="348" y="665" type="line"/>
      <point x="498" y="665" type="line"/>
      <point x="498" y="619" type="line"/>
    </contour>
    <contour>
      <point x="269" y="349" type="qcurve"/>
      <point x="209" y="349"/>
      <point x="175" y="308"/>
      <point x="175" y="237" type="qcurve"/>
      <point x="175" y="171"/>
      <point x="205" y="129"/>
      <point x="260" y="129" type="qcurve" smooth="yes"/>
      <point x="286" y="129"/>
      <point x="331" y="137"/>
      <point x="348" y="145" type="qcurve"/>
      <point x="348" y="336" type="line"/>
      <point x="333" y="343"/>
      <point x="294" y="349"/>
    </contour>
  </outline>
</glyph>
<glyph name="Eogonek" format="1">
  <advance width="505.0"/>
  <unicode hex="0118"/>
  <outline>
    <contour>
      <point x="480" y="0" type="line"/>
      <point x="444" y="0" type="line"/>
      <point x="379" y="-12"/>
      <point x="316" y="-51"/>
      <point x="316" y="-78" type="qcurve" smooth="yes"/>
      <point x="316" y="-98"/>
      <point x="340" y="-115"/>
      <point x="368" y="-115" type="qcurve" smooth="yes"/>
      <point x="377" y="-115"/>
      <point x="401" y="-112"/>
      <point x="414" y="-110" type="qcurve"/>
      <point x="414" y="-193" type="line"/>
      <point x="395" y="-199"/>
      <point x="354" y="-204"/>
      <point x="332" y="-204" type="qcurve" smooth="yes"/>
      <point x="275" y="-204"/>
      <point x="217" y="-154"/>
      <point x="217" y="-105" type="qcurve"/>
      <point x="217" y="-70"/>
      <point x="251" y="-17"/>
      <point x="283" y="0" type="qcurve"/>
      <point x="48" y="0" type="line"/>
      <point x="48" y="627" type="line"/>
      <point x="471" y="627" type="line"/>
      <point x="471" y="487" type="line"/>
      <point x="203" y="487" type="line"/>
      <point x="203" y="383" type="line"/>
      <point x="434" y="383" type="line"/>
      <point x="434" y="253" type="line"/>
      <point x="203" y="253" type="line"/>
      <point x="203" y="145" type="line"/>
      <point x="480" y="145" type="line"/>
    </contour>
  </outline>
</glyph>
<glyph name="eogonek" format="1">
  <advance width="499.0"/>
  <unicode hex="0119"/>
  <outline>
    <contour>
      <point x="452" y="146" type="qcurve"/>
      <point x="452" y="27" type="line"/>
      <point x="446" y="23"/>
      <point x="427" y="15"/>
      <point x="413" y="11" type="qcurve"/>
      <point x="340" y="-39"/>
      <point x="309" y="-76"/>
      <point x="309" y="-93" type="qcurve"/>
      <point x="309" y="-111"/>
      <point x="332" y="-127"/>
      <point x="359" y="-127" type="qcurve" smooth="yes"/>
      <point x="368" y="-127"/>
      <point x="392" y="-124"/>
      <point x="405" y="-122" type="qcurve"/>
      <point x="405" y="-205" type="line"/>
      <point x="386" y="-211"/>
      <point x="345" y="-216"/>
      <point x="323" y="-216" type="qcurve" smooth="yes"/>
      <point x="267" y="-216"/>
      <point x="210" y="-166"/>
      <point x="210" y="-117" type="qcurve"/>
      <point x="210" y="-87"/>
      <point x="244" y="-33"/>
      <point x="276" y="-10" type="qcurve"/>
      <point x="251" y="-10" type="line"/>
      <point x="131" y="-10"/>
      <point x="25" y="111"/>
      <point x="25" y="247" type="qcurve" smooth="yes"/>
      <point x="25" y="380"/>
      <point x="137" y="504"/>
      <point x="258" y="504" type="qcurve"/>
      <point x="376" y="504"/>
      <point x="473" y="411"/>
      <point x="473" y="293" type="qcurve" smooth="yes"/>
      <point x="473" y="261"/>
      <point x="471" y="223"/>
      <point x="468" y="198" type="qcurve"/>
      <point x="176" y="198" type="line"/>
      <point x="177" y="157"/>
      <point x="219" y="125"/>
      <point x="275" y="125" type="qcurve"/>
      <point x="323" y="125"/>
      <point x="423" y="138"/>
    </contour>
    <contour>
      <point x="258" y="376" type="qcurve"/>
      <point x="210" y="376"/>
      <point x="176" y="343"/>
      <point x="176" y="295" type="qcurve"/>
      <point x="337" y="295" type="line"/>
      <point x="337" y="317" type="line"/>
      <point x="336" y="352"/>
      <point x="305" y="376"/>
    </contour>
  </outline>
</glyph>
<glyph name="Hbar" format="1">
  <advance width="688.0"/>
  <unicode hex="0126"/>
  <outline>
    <contour>
      <point x="234" y="0" type="line"/>
      <point x="79" y="0" type="line"/>
      <point x="79" y="447" type="line"/>
      <point x="22" y="447" type="line"/>
      <point x="22" y="545" type="line"/>
      <point x="79" y="545" type="line"/>
      <point x="79" y="627" type="line"/>
      <point x="234" y="627" type="line"/>
      <point x="234" y="545" type="line"/>
      <point x="454" y="545" type="line"/>
      <point x="454" y="627" type="line"/>
      <point x="609" y="627" type="line"/>
      <point x="609" y="545" type="line"/>
      <point x="666" y="545" type="line"/>
      <point x="666" y="447" type="line"/>
      <point x="609" y="447" type="line"/>
      <point x="609" y="0" type="line"/>
      <point x="454" y="0" type="line"/>
      <point x="454" y="248" type="line"/>
      <point x="234" y="248" type="line"/>
    </contour>
    <contour>
      <point x="234" y="447" type="line"/>
      <point x="234" y="388" type="line"/>
      <point x="454" y="388" type="line"/>
      <point x="454" y="447" type="line"/>
    </contour>
  </outline>
</glyph>
<glyph name="hbar" format="1">
  <advance width="553.0"/>
  <unicode hex="0127"/>
  <outline>
    <contour>
      <point x="193" y="0" type="line"/>
      <point x="43" y="0" type="line"/>
      <point x="43" y="536" type="line"/>
      <point x="-27" y="536" type="line"/>
      <point x="-27" y="619" type="line"/>
      <point x="43" y="619" type="line"/>
      <point x="43" y="665" type="line"/>
      <point x="193" y="665" type="line"/>
      <point x="193" y="619" type="line"/>
      <point x="338" y="619" type="line"/>
      <point x="338" y="536" type="line"/>
      <point x="193" y="536" type="line"/>
      <point x="193" y="459" type="line"/>
      <point x="233" y="481"/>
      <point x="310" y="504"/>
      <point x="345" y="504" type="qcurve" smooth="yes"/>
      <point x="429" y="504"/>
      <point x="512" y="424"/>
      <point x="512" y="342" type="qcurve"/>
      <point x="512" y="0" type="line"/>
      <point x="362" y="0" type="line"/>
      <point x="362" y="322" type="line" smooth="yes"/>
      <point x="362" y="347"/>
      <point x="332" y="369"/>
      <point x="299" y="369" type="qcurve" smooth="yes"/>
      <point x="274" y="369"/>
      <point x="218" y="360"/>
      <point x="193" y="353" type="qcurve"/>
    </contour>
  </outline>
</glyph>
<glyph name="Iogonek" format="1">
  <advance width="251.0"/>
  <unicode hex="012E"/>
  <outline>
    <contour>
      <point x="203" y="0" type="line"/>
      <point x="202" y="0" type="line"/>
      <point x="137" y="-12"/>
      <point x="74" y="-51"/>
      <point x="74" y="-78" type="qcurve" smooth="yes"/>
      <point x="74" y="-98"/>
      <point x="98" y="-115"/>
      <point x="126" y="-115" type="qcurve" smooth="yes"/>
      <point x="135" y="-115"/>
      <point x="159" y="-112"/>
      <point x="172" y="-110" type="qcurve"/>
      <point x="172" y="-193" type="line"/>
      <point x="153" y="-199"/>
      <point x="112" y="-204"/>
      <point x="90" y="-204" type="qcurve" smooth="yes"/>
      <point x="33" y="-204"/>
      <point x="-25" y="-154"/>
      <point x="-25" y="-105" type="qcurve"/>
      <point x="-25" y="-68"/>
      <point x="12" y="-13"/>
      <point x="48" y="3" type="qcurve"/>
      <point x="48" y="627" type="line"/>
      <point x="203" y="627" type="line"/>
    </contour>
  </outline>
</glyph>
<glyph name="iogonek" format="1">
  <advance width="237.0"/>
  <unicode hex="012F"/>
  <outline>
    <contour>
      <point x="198" y="548" type="line"/>
      <point x="40" y="548" type="line"/>
      <point x="40" y="665" type="line"/>
      <point x="198" y="665" type="line"/>
    </contour>
    <contour>
      <point x="194" y="494" type="line"/>
      <point x="194" y="0" type="line"/>
      <point x="129" y="-12"/>
      <point x="66" y="-51"/>
      <point x="66" y="-78" type="qcurve" smooth="yes"/>
      <point x="66" y="-98"/>
      <point x="90" y="-115"/>
      <point x="118" y="-115" type="qcurve" smooth="yes"/>
      <point x="127" y="-115"/>
      <point x="151" y="-112"/>
      <point x="164" y="-110" type="qcurve"/>
      <point x="164" y="-193" type="line"/>
      <point x="145" y="-199"/>
      <point x="104" y="-204"/>
      <point x="82" y="-204" type="qcurve" smooth="yes"/>
      <point x="25" y="-204"/>
      <point x="-33" y="-154"/>
      <point x="-33" y="-105" type="qcurve"/>
      <point x="-33" y="-67"/>
      <point x="6" y="-11"/>
      <point x="44" y="5" type="qcurve"/>
      <point x="44" y="494" type="line"/>
    </contour>
  </outline>
</glyph>
<glyph name="Lslash" format="1">
  <advance width="504.0"/>
  <unicode hex="0141"/>
  <outline>
    <contour>
      <point x="491" y="145" type="line"/>
      <point x="491" y="0" type="line"/>
      <point x="91" y="0" type="line"/>
      <point x="91" y="252" type="line"/>
      <point x="21" y="232" type="line"/>
      <point x="21" y="337" type="line"/>
      <point x="91" y="357" type="line"/>
      <point x="91" y="627" type="line"/>
      <point x="246" y="627" type="line"/>
      <point x="246" y="401" type="line"/>
      <point x="386" y="441" type="line"/>
      <point x="386" y="336" type="line"/>
      <point x="246" y="296" type="line"/>
      <point x="246" y="145" type="line"/>
    </contour>
  </outline>
</glyph>
<glyph name="lslash" format="1">
  <advance width="326.0"/>
  <unicode hex="0142"/>
  <outline>
    <contour>
      <point x="231" y="296" type="line"/>
      <point x="231" y="0" type="line"/>
      <point x="81" y="0" type="line"/>
      <point x="81" y="250" type="line"/>
      <point x="21" y="232" type="line"/>
      <point x="21" y="335" type="line"/>
      <point x="81" y="353" type="line"/>
      <point x="81" y="665" type="line"/>
      <point x="231" y="665" type="line"/>
      <point x="231" y="399" type="line"/>
      <point x="314" y="424" type="line"/>
      <point x="314" y="321" type="line"/>
    </contour>
  </outline>
</glyph>
<glyph name="Eng" format="1">
  <advance width="637.0"/>
  <unicode hex="014A"/>
  <outline>
    <contour>
      <point x="589" y="627" type="line"/>
      <point x="589" y="19" type="line" smooth="yes"/>
      <point x="589" y="-65"/>
      <point x="494" y="-167"/>
      <point x="420" y="-167" type="qcurve"/>
      <point x="408" y="-167"/>
      <point x="371" y="-164"/>
      <point x="347" y="-161" type="qcurve"/>
      <point x="347" y="-37" type="line"/>
      <point x="351" y="-38"/>
      <point x="361" y="-38"/>
      <point x="370" y="-38" type="qcurve" smooth="yes"/>
      <point x="408" y="-38"/>
      <point x="438" y="-22"/>
      <point x="441" y="0" type="qcurve"/>
      <point x="193" y="362" type="line"/>
      <point x="193" y="0" type="line"/>
      <point x="48" y="0" type="line"/>
      <point x="48" y="627" type="line"/>
      <point x="195" y="627" type="line"/>
      <point x="444" y="251" type="line"/>
      <point x="444" y="627" type="line"/>
    </contour>
  </outline>
</glyph>
<glyph name="eng" format="1">
  <advance width="553.0"/>
  <unicode hex="014B"/>
  <outline>
    <contour>
      <point x="193" y="0" type="line"/>
      <point x="43" y="0" type="line"/>
      <point x="43" y="494" type="line"/>
      <point x="173" y="494" type="line"/>
      <point x="179" y="442" type="line"/>
      <point x="182" y="442" type="line"/>
      <point x="214" y="475"/>
      <point x="289" y="504"/>
      <point x="342" y="504" type="qcurve"/>
      <point x="426" y="504"/>
      <point x="512" y="422"/>
      <point x="512" y="342" type="qcurve"/>
      <point x="512" y="4" type="line" smooth="yes"/>
      <point x="512" y="-77"/>
      <point x="424" y="-162"/>
      <point x="342" y="-162" type="qcurve"/>
      <point x="328" y="-162"/>
      <point x="305" y="-161"/>
      <point x="267" y="-156" type="qcurve"/>
      <point x="267" y="-32" type="line"/>
      <point x="271" y="-33"/>
      <point x="281" y="-33"/>
      <point x="290" y="-33" type="qcurve" smooth="yes"/>
      <point x="334" y="-33"/>
      <point x="362" y="-10"/>
      <point x="362" y="24" type="qcurve"/>
      <point x="362" y="322" type="line" smooth="yes"/>
      <point x="362" y="345"/>
      <point x="325" y="369"/>
      <point x="289" y="369" type="qcurve" smooth="yes"/>
      <point x="263" y="369"/>
      <point x="214" y="357"/>
      <point x="193" y="346" type="qcurve"/>
    </contour>
  </outline>
</glyph>
<glyph name="OE" format="1">
  <advance width="853.0"/>
  <unicode hex="0152"/>
  <outline>
    <contour>
      <point x="309" y="-10" type="qcurve"/>
      <point x="153" y="-10"/>
      <point x="27" y="135"/>
      <point x="27" y="314" type="qcurve"/>
      <point x="27" y="485"/>
      <point x="160" y="637"/>
      <point x="309" y="637" type="qcurve"/>
      <point x="340" y="637"/>
      <point x="393" y="632"/>
      <point x="415" y="627" type="qcurve"/>
      <point x="819" y="627" type="line"/>
      <point x="819" y="487" type="line"/>
      <point x="570" y="487" type="line"/>
      <point x="578" y="462"/>
      <point x="587" y="410"/>
      <point x="589" y="383" type="qcurve"/>
      <point x="782" y="383" type="line"/>
      <point x="782" y="253" type="line"/>
      <point x="589" y="253" type="line"/>
      <point x="587" y="222"/>
      <point x="576" y="168"/>
      <point x="568" y="145" type="qcurve"/>
      <point x="828" y="145" type="line"/>
      <point x="828" y="0" type="line"/>
      <point x="407" y="0" type="line"/>
      <point x="386" y="-5"/>
      <point x="338" y="-10"/>
    </contour>
    <contour>
      <point x="200" y="185" type="qcurve" smooth="yes"/>
      <point x="211" y="157"/>
      <point x="257" y="135"/>
      <point x="309" y="135" type="qcurve"/>
      <point x="361" y="135"/>
      <point x="407" y="157"/>
      <point x="418" y="185" type="qcurve" smooth="yes"/>
      <point x="426" y="204"/>
      <point x="434" y="266"/>
      <point x="434" y="314" type="qcurve"/>
      <point x="434" y="362"/>
      <point x="427" y="425"/>
      <point x="419" y="445" type="qcurve" smooth="yes"/>
      <point x="408" y="474"/>
      <point x="361" y="497"/>
      <point x="309" y="497" type="qcurve"/>
      <point x="257" y="497"/>
      <point x="210" y="474"/>
      <point x="199" y="445" type="qcurve" smooth="yes"/>
      <point x="191" y="425"/>
      <point x="184" y="362"/>
      <point x="184" y="314" type="qcurve"/>
      <point x="184" y="266"/>
      <point x="192" y="204"/>
    </contour>
  </outline>
</glyph>
<glyph name="oe" format="1">
  <advance width="805.0"/>
  <unicode hex="0153"/>
  <outline>
    <contour>
      <point x="424" y="50" type="qcurve"/>
      <point x="400" y="19"/>
      <point x="321" y="-10"/>
      <point x="263" y="-10" type="qcurve"/>
      <point x="134" y="-10"/>
      <point x="25" y="108"/>
      <point x="25" y="247" type="qcurve"/>
      <point x="25" y="386"/>
      <point x="134" y="504"/>
      <point x="263" y="504" type="qcurve"/>
      <point x="323" y="504"/>
      <point x="403" y="473"/>
      <point x="427" y="441" type="qcurve"/>
      <point x="450" y="473"/>
      <point x="523" y="504"/>
      <point x="574" y="504" type="qcurve"/>
      <point x="687" y="504"/>
      <point x="779" y="411"/>
      <point x="779" y="293" type="qcurve" smooth="yes"/>
      <point x="779" y="261"/>
      <point x="777" y="223"/>
      <point x="774" y="198" type="qcurve"/>
      <point x="502" y="198" type="line"/>
      <point x="503" y="157"/>
      <point x="540" y="125"/>
      <point x="591" y="125" type="qcurve"/>
      <point x="636" y="125"/>
      <point x="732" y="138"/>
      <point x="758" y="146" type="qcurve"/>
      <point x="758" y="27" type="line"/>
      <point x="735" y="12"/>
      <point x="627" y="-10"/>
      <point x="567" y="-10" type="qcurve"/>
      <point x="517" y="-10"/>
      <point x="446" y="20"/>
    </contour>
    <contour>
      <point x="574" y="376" type="qcurve"/>
      <point x="532" y="376"/>
      <point x="502" y="343"/>
      <point x="502" y="295" type="qcurve"/>
      <point x="643" y="295" type="line"/>
      <point x="643" y="317" type="line"/>
      <point x="642" y="352"/>
      <point x="615" y="376"/>
    </contour>
    <contour>
      <point x="175" y="249" type="qcurve"/>
      <point x="175" y="173"/>
      <point x="206" y="129"/>
      <point x="263" y="129" type="qcurve"/>
      <point x="320" y="129"/>
      <point x="351" y="173"/>
      <point x="351" y="249" type="qcurve"/>
      <point x="351" y="325"/>
      <point x="320" y="369"/>
      <point x="263" y="369" type="qcurve"/>
      <point x="206" y="369"/>
      <point x="175" y="325"/>
    </contour>
  </outline>
</glyph>
<glyph name="Scedilla" format="1">
  <advance width="489.0"/>
  <unicode hex="015E"/>
  <outline>
    <contour>
      <point x="286" y="234" type="qcurve"/>
      <point x="159" y="264" type="line" smooth="yes"/>
      <point x="83" y="282"/>
      <point x="28" y="356"/>
      <point x="28" y="425" type="qcurve" smooth="yes"/>
      <point x="28" y="534"/>
      <point x="143" y="637"/>
      <point x="264" y="637" type="qcurve" smooth="yes"/>
      <point x="314" y="637"/>
      <point x="392" y="629"/>
      <point x="425" y="619" type="qcurve"/>
      <point x="425" y="480" type="line"/>
      <point x="349" y="493"/>
      <point x="292" y="497"/>
      <point x="261" y="497" type="qcurve" smooth="yes"/>
      <point x="219" y="497"/>
      <point x="181" y="469"/>
      <point x="181" y="436" type="qcurve" smooth="yes"/>
      <point x="181" y="420"/>
      <point x="193" y="403"/>
      <point x="210" y="399" type="qcurve"/>
      <point x="330" y="371" type="line" smooth="yes"/>
      <point x="382" y="359"/>
      <point x="428" y="336"/>
      <point x="442" y="318" type="qcurve" smooth="yes"/>
      <point x="458" y="299"/>
      <point x="473" y="239"/>
      <point x="473" y="196" type="qcurve" smooth="yes"/>
      <point x="473" y="96"/>
      <point x="377" y="0"/>
      <point x="276" y="-8" type="qcurve"/>
      <point x="271" y="-40" type="line"/>
      <point x="314" y="-40"/>
      <point x="363" y="-76"/>
      <point x="363" y="-109" type="qcurve"/>
      <point x="363" y="-153"/>
      <point x="307" y="-195"/>
      <point x="246" y="-195" type="qcurve" smooth="yes"/>
      <point x="216" y="-195"/>
      <point x="152" y="-187"/>
      <point x="143" y="-184" type="qcurve"/>
      <point x="143" y="-116" type="line"/>
      <point x="149" y="-118"/>
      <point x="202" y="-126"/>
      <point x="220" y="-126" type="qcurve" smooth="yes"/>
      <point x="237" y="-126"/>
      <point x="250" y="-116"/>
      <point x="250" y="-103" type="qcurve"/>
      <point x="250" y="-93"/>
      <point x="232" y="-83"/>
      <point x="212" y="-83" type="qcurve"/>
      <point x="195" y="-83"/>
      <point x="176" y="-83"/>
      <point x="163" y="-84" type="qcurve"/>
      <point x="178" y="-8" type="line"/>
      <point x="132" y="-5"/>
      <point x="54" y="8"/>
      <point x="30" y="16" type="qcurve"/>
      <point x="30" y="163" type="line"/>
      <point x="70" y="150"/>
      <point x="180" y="135"/>
      <point x="235" y="135" type="qcurve" smooth="yes"/>
      <point x="279" y="135"/>
      <point x="313" y="157"/>
      <point x="313" y="190" type="qcurve" smooth="yes"/>
      <point x="313" y="211"/>
      <point x="302" y="230"/>
    </contour>
  </outline>
</glyph>
<glyph name="scedilla" format="1">
  <advance width="440.0"/>
  <unicode hex="015F"/>
  <outline>
    <contour>
      <point x="345" y="-109" type="qcurve"/>
      <point x="345" y="-153"/>
      <point x="289" y="-195"/>
      <point x="228" y="-195" type="qcurve" smooth="yes"/>
      <point x="198" y="-195"/>
      <point x="134" y="-187"/>
      <point x="125" y="-184" type="qcurve"/>
      <point x="125" y="-116" type="line"/>
      <point x="131" y="-118"/>
      <point x="184" y="-126"/>
      <point x="202" y="-126" type="qcurve" smooth="yes"/>
      <point x="219" y="-126"/>
      <point x="232" y="-116"/>
      <point x="232" y="-103" type="qcurve"/>
      <point x="232" y="-93"/>
      <point x="214" y="-83"/>
      <point x="194" y="-83" type="qcurve"/>
      <point x="177" y="-83"/>
      <point x="158" y="-83"/>
      <point x="145" y="-84" type="qcurve"/>
      <point x="160" y="-8" type="line"/>
      <point x="123" y="-7"/>
      <point x="62" y="1"/>
      <point x="38" y="7" type="qcurve"/>
      <point x="38" y="137" type="line"/>
      <point x="63" y="131"/>
      <point x="152" y="122"/>
      <point x="198" y="122" type="qcurve" smooth="yes"/>
      <point x="239" y="122"/>
      <point x="268" y="139"/>
      <point x="268" y="163" type="qcurve" smooth="yes"/>
      <point x="268" y="171"/>
      <point x="258" y="182"/>
      <point x="250" y="183" type="qcurve"/>
      <point x="127" y="199" type="line" smooth="yes"/>
      <point x="73" y="206"/>
      <point x="24" y="271"/>
      <point x="24" y="335" type="qcurve" smooth="yes"/>
      <point x="24" y="419"/>
      <point x="130" y="504"/>
      <point x="234" y="504" type="qcurve" smooth="yes"/>
      <point x="275" y="504"/>
      <point x="345" y="500"/>
      <point x="384" y="494" type="qcurve"/>
      <point x="384" y="369" type="line"/>
      <point x="359" y="373"/>
      <point x="285" y="377"/>
      <point x="244" y="377" type="qcurve" smooth="yes"/>
      <point x="202" y="377"/>
      <point x="173" y="364"/>
      <point x="173" y="341" type="qcurve"/>
      <point x="173" y="332"/>
      <point x="184" y="321"/>
      <point x="194" y="320" type="qcurve"/>
      <point x="313" y="304" type="line" smooth="yes"/>
      <point x="371" y="296"/>
      <point x="418" y="237"/>
      <point x="418" y="173" type="qcurve" smooth="yes"/>
      <point x="418" y="84"/>
      <point x="343" y="-4"/>
      <point x="258" y="-9" type="qcurve"/>
      <point x="253" y="-40" type="line"/>
      <point x="296" y="-40"/>
      <point x="345" y="-76"/>
    </contour>
  </outline>
</glyph>
<glyph name="Tbar" format="1">
  <advance width="533.0"/>
  <unicode hex="0166"/>
  <outline>
    <contour>
      <point x="474" y="345" type="line"/>
      <point x="474" y="242" type="line"/>
      <point x="344" y="242" type="line"/>
      <point x="344" y="0" type="line"/>
      <point x="189" y="0" type="line"/>
      <point x="189" y="242" type="line"/>
      <point x="59" y="242" type="line"/>
      <point x="59" y="345" type="line"/>
      <point x="189" y="345" type="line"/>
      <point x="189" y="487" type="line"/>
      <point x="18" y="487" type="line"/>
      <point x="18" y="627" type="line"/>
      <point x="515" y="627" type="line"/>
      <point x="515" y="487" type="line"/>
      <point x="344" y="487" type="line"/>
      <point x="344" y="345" type="line"/>
    </contour>
  </outline>
</glyph>
<glyph name="tbar" format="1">
  <advance width="391.0"/>
  <unicode hex="0167"/>
  <outline>
    <contour>
      <point x="79" y="369" type="line"/>
      <point x="21" y="369" type="line"/>
      <point x="21" y="494" type="line"/>
      <point x="84" y="494" type="line"/>
      <point x="103" y="609" type="line"/>
      <point x="229" y="609" type="line"/>
      <point x="229" y="494" type="line"/>
      <point x="369" y="494" type="line"/>
      <point x="369" y="369" type="line"/>
      <point x="229" y="369" type="line"/>
      <point x="229" y="310" type="line"/>
      <point x="369" y="310" type="line"/>
      <point x="369" y="207" type="line"/>
      <point x="229" y="207" type="line"/>
      <point x="229" y="177" type="line" smooth="yes"/>
      <point x="229" y="149"/>
      <point x="258" y="130"/>
      <point x="301" y="130" type="qcurve" smooth="yes"/>
      <point x="316" y="130"/>
      <point x="360" y="135"/>
      <point x="375" y="138" type="qcurve"/>
      <point x="375" y="10" type="line"/>
      <point x="359" y="3"/>
      <point x="292" y="-10"/>
      <point x="266" y="-10" type="qcurve"/>
      <point x="166" y="-10"/>
      <point x="79" y="75"/>
      <point x="79" y="171" type="qcurve"/>
      <point x="79" y="207" type="line"/>
      <point x="21" y="207" type="line"/>
      <point x="21" y="310" type="line"/>
      <point x="79" y="310" type="line"/>
    </contour>
  </outline>
</glyph>
<glyph name="Uogonek" format="1">
  <advance width="624.0"/>
  <unicode hex="0172"/>
  <outline>
    <contour>
      <point x="426" y="264" type="qcurve"/>
      <point x="426" y="627" type="line"/>
      <point x="581" y="627" type="line"/>
      <point x="581" y="264" type="line" smooth="yes"/>
      <point x="581" y="180"/>
      <point x="530" y="62"/>
      <point x="480" y="30" type="qcurve"/>
      <point x="415" y="-12"/>
      <point x="379" y="-52"/>
      <point x="379" y="-71" type="qcurve"/>
      <point x="379" y="-89"/>
      <point x="402" y="-105"/>
      <point x="429" y="-105" type="qcurve" smooth="yes"/>
      <point x="438" y="-105"/>
      <point x="462" y="-102"/>
      <point x="475" y="-100" type="qcurve"/>
      <point x="475" y="-183" type="line"/>
      <point x="456" y="-189"/>
      <point x="415" y="-194"/>
      <point x="393" y="-194" type="qcurve" smooth="yes"/>
      <point x="337" y="-194"/>
      <point x="280" y="-144"/>
      <point x="280" y="-95" type="qcurve"/>
      <point x="280" y="-72"/>
      <point x="300" y="-30"/>
      <point x="320" y="-10" type="qcurve"/>
      <point x="313" y="-10" type="line"/>
      <point x="172" y="-10"/>
      <point x="43" y="120"/>
      <point x="43" y="264" type="qcurve"/>
      <point x="43" y="627" type="line"/>
      <point x="198" y="627" type="line"/>
      <point x="198" y="264" type="line" smooth="yes"/>
      <point x="198" y="188"/>
      <point x="245" y="135"/>
      <point x="313" y="135" type="qcurve"/>
      <point x="380" y="135"/>
      <point x="426" y="188"/>
    </contour>
  </outline>
</glyph>
<glyph name="uogonek" format="1">
  <advance width="531.0"/>
  <unicode hex="0173"/>
  <outline>
    <contour>
      <point x="208" y="-10" type="qcurve" smooth="yes"/>
      <point x="124" y="-10"/>
      <point x="41" y="73"/>
      <point x="41" y="157" type="qcurve"/>
      <point x="41" y="494" type="line"/>
      <point x="191" y="494" type="line"/>
      <point x="191" y="177" type="line" smooth="yes"/>
      <point x="191" y="152"/>
      <point x="221" y="130"/>
      <point x="254" y="130" type="qcurve" smooth="yes"/>
      <point x="273" y="130"/>
      <point x="316" y="136"/>
      <point x="338" y="142" type="qcurve"/>
      <point x="338" y="494" type="line"/>
      <point x="488" y="494" type="line"/>
      <point x="488" y="0" type="line"/>
      <point x="423" y="-12"/>
      <point x="360" y="-51"/>
      <point x="360" y="-78" type="qcurve" smooth="yes"/>
      <point x="360" y="-98"/>
      <point x="384" y="-115"/>
      <point x="412" y="-115" type="qcurve" smooth="yes"/>
      <point x="421" y="-115"/>
      <point x="445" y="-112"/>
      <point x="458" y="-110" type="qcurve"/>
      <point x="458" y="-193" type="line"/>
      <point x="439" y="-199"/>
      <point x="398" y="-204"/>
      <point x="376" y="-204" type="qcurve" smooth="yes"/>
      <point x="319" y="-204"/>
      <point x="261" y="-154"/>
      <point x="261" y="-105" type="qcurve"/>
      <point x="261" y="-64"/>
      <point x="304" y="-7"/>
      <point x="347" y="9" type="qcurve"/>
      <point x="344" y="27" type="line"/>
      <point x="342" y="27" type="line"/>
      <point x="307" y="10"/>
      <point x="236" y="-10"/>
    </contour>
  </outline>
</glyph>
<glyph name="uni018F" format="1">
  <advance width="583.0"/>
  <unicode hex="018F"/>
  <outline>
    <contour>
      <point x="266" y="637" type="qcurve"/>
      <point x="418" y="637"/>
      <point x="556" y="485"/>
      <point x="556" y="314" type="qcurve" smooth="yes"/>
      <point x="556" y="145"/>
      <point x="422" y="-10"/>
      <point x="274" y="-10" type="qcurve"/>
      <point x="149" y="-10"/>
      <point x="25" y="119"/>
      <point x="25" y="250" type="qcurve"/>
      <point x="25" y="284"/>
      <point x="28" y="343"/>
      <point x="33" y="381" type="qcurve"/>
      <point x="393" y="381" type="line"/>
      <point x="385" y="446"/>
      <point x="321" y="497"/>
      <point x="247" y="497" type="qcurve"/>
      <point x="213" y="497"/>
      <point x="133" y="488"/>
      <point x="84" y="478" type="qcurve"/>
      <point x="84" y="614" type="line"/>
      <point x="123" y="625"/>
      <point x="218" y="637"/>
    </contour>
    <contour>
      <point x="179" y="231" type="qcurve" smooth="yes"/>
      <point x="179" y="180"/>
      <point x="230" y="130"/>
      <point x="281" y="129" type="qcurve"/>
      <point x="339" y="130"/>
      <point x="389" y="185"/>
      <point x="394" y="256" type="qcurve"/>
      <point x="180" y="256" type="line"/>
      <point x="179" y="248"/>
      <point x="179" y="241"/>
    </contour>
  </outline>
</glyph>
<glyph name="florin" format="1">
  <advance width="439.0"/>
  <unicode hex="0192"/>
  <outline>
    <contour>
      <point x="96" y="288" type="line"/>
      <point x="26" y="288" type="line"/>
      <point x="26" y="380" type="line"/>
      <point x="111" y="380" type="line"/>
      <point x="125" y="467" type="line" smooth="yes"/>
      <point x="140" y="561"/>
      <point x="230" y="637"/>
      <point x="324" y="637" type="qcurve"/>
      <point x="347" y="637"/>
      <point x="401" y="631"/>
      <point x="423" y="627" type="qcurve"/>
      <point x="423" y="496" type="line"/>
      <point x="410" y="498"/>
      <point x="369" y="501"/>
      <point x="352" y="501" type="qcurve"/>
      <point x="314" y="501"/>
      <point x="284" y="477"/>
      <point x="278" y="441" type="qcurve"/>
      <point x="268" y="380" type="line"/>
      <point x="400" y="380" type="line"/>
      <point x="400" y="288" type="line"/>
      <point x="253" y="288" type="line"/>
      <point x="181" y="-152" type="line"/>
      <point x="26" y="-152" type="line"/>
    </contour>
  </outline>
</glyph>
<glyph name="uni01B5" format="1">
  <advance width="511.0"/>
  <unicode hex="01B5"/>
  <outline>
    <contour>
      <point x="488" y="145" type="line"/>
      <point x="488" y="0" type="line"/>
      <point x="21" y="0" type="line"/>
      <point x="21" y="145" type="line"/>
      <point x="119" y="268" type="line"/>
      <point x="44" y="268" type="line"/>
      <point x="44" y="371" type="line"/>
      <point x="201" y="371" type="line"/>
      <point x="294" y="487" type="line"/>
      <point x="50" y="487" type="line"/>
      <point x="50" y="627" type="line"/>
      <point x="469" y="627" type="line"/>
      <point x="469" y="487" type="line"/>
      <point x="377" y="371" type="line"/>
      <point x="472" y="371" type="line"/>
      <point x="472" y="268" type="line"/>
      <point x="295" y="268" type="line"/>
      <point x="197" y="145" type="line"/>
    </contour>
  </outline>
</glyph>
<glyph name="uni01B6" format="1">
  <advance width="432.0"/>
  <unicode hex="01B6"/>
  <outline>
    <contour>
      <point x="409" y="130" type="line"/>
      <point x="409" y="0" type="line"/>
      <point x="25" y="0" type="line"/>
      <point x="25" y="130" type="line"/>
      <point x="89" y="207" type="line"/>
      <point x="43" y="207" type="line"/>
      <point x="43" y="310" type="line"/>
      <point x="175" y="310" type="line"/>
      <point x="224" y="369" type="line"/>
      <point x="43" y="369" type="line"/>
      <point x="43" y="494" type="line"/>
      <point x="392" y="494" type="line"/>
      <point x="392" y="369" type="line"/>
      <point x="344" y="310" type="line"/>
      <point x="392" y="310" type="line"/>
      <point x="392" y="207" type="line"/>
      <point x="259" y="207" type="line"/>
      <point x="196" y="130" type="line"/>
    </contour>
  </outline>
</glyph>
<glyph name="uni0237" format="1">
  <advance width="243.0"/>
  <unicode hex="0237"/>
  <outline>
    <contour>
      <point x="30" y="-162" type="qcurve"/>
      <point x="16" y="-162"/>
      <point x="-7" y="-161"/>
      <point x="-45" y="-156" type="qcurve"/>
      <point x="-45" y="-32" type="line"/>
      <point x="-41" y="-33"/>
      <point x="-31" y="-33"/>
      <point x="-22" y="-33" type="qcurve" smooth="yes"/>
      <point x="22" y="-33"/>
      <point x="50" y="-10"/>
      <point x="50" y="24" type="qcurve"/>
      <point x="50" y="494" type="line"/>
      <point x="200" y="494" type="line"/>
      <point x="200" y="4" type="line" smooth="yes"/>
      <point x="200" y="-77"/>
      <point x="112" y="-162"/>
    </contour>
    <contour>
      <point x="125.0" y="520.0" type="move" name="top"/>
    </contour>
  </outline>
</glyph>
<glyph name="uni0259" format="1">
  <advance width="499.0"/>
  <unicode hex="0259"/>
  <outline>
    <contour>
      <point x="47" y="350" type="qcurve"/>
      <point x="47" y="467" type="line"/>
      <point x="71" y="482"/>
      <point x="185" y="504"/>
      <point x="248" y="504" type="qcurve"/>
      <point x="368" y="504"/>
      <point x="474" y="383"/>
      <point x="474" y="247" type="qcurve" smooth="yes"/>
      <point x="474" y="114"/>
      <point x="362" y="-10"/>
      <point x="241" y="-10" type="qcurve"/>
      <point x="123" y="-10"/>
      <point x="26" y="85"/>
      <point x="26" y="203" type="qcurve" smooth="yes"/>
      <point x="26" y="235"/>
      <point x="28" y="273"/>
      <point x="31" y="298" type="qcurve"/>
      <point x="323" y="298" type="line"/>
      <point x="322" y="339"/>
      <point x="280" y="371"/>
      <point x="224" y="371" type="qcurve"/>
      <point x="176" y="371"/>
      <point x="76" y="358"/>
    </contour>
    <contour>
      <point x="241" y="120" type="qcurve"/>
      <point x="289" y="120"/>
      <point x="323" y="153"/>
      <point x="323" y="201" type="qcurve"/>
      <point x="162" y="201" type="line"/>
      <point x="162" y="179" type="line"/>
      <point x="163" y="144"/>
      <point x="194" y="120"/>
    </contour>
  </outline>
</glyph>
<glyph name="breve" format="1">
  <advance width="385.0"/>
  <unicode hex="02D8"/>
  <outline>
    <contour>
      <point x="248" y="682" type="qcurve"/>
      <point x="335" y="682" type="line"/>
      <point x="335" y="618"/>
      <point x="258" y="544"/>
      <point x="193" y="544" type="qcurve" smooth="yes"/>
      <point x="127" y="544"/>
      <point x="50" y="618"/>
      <point x="50" y="682" type="qcurve"/>
      <point x="137" y="682" type="line"/>
      <point x="137" y="656"/>
      <point x="166" y="629"/>
      <point x="193" y="629" type="qcurve" smooth="yes"/>
      <point x="219" y="629"/>
      <point x="248" y="657"/>
    </contour>
    <contour>
      <point x="193" y="530" type="move" name="_top"/>
    </contour>
  </outline>
</glyph>
<glyph name="ring" format="1">
  <advance width="337.0"/>
  <unicode hex="02DA"/>
  <outline>
    <contour>
      <point x="286" y="647" type="qcurve" smooth="yes"/>
      <point x="286" y="599"/>
      <point x="222" y="543"/>
      <point x="167" y="543" type="qcurve" smooth="yes"/>
      <point x="113" y="543"/>
      <point x="49" y="599"/>
      <point x="49" y="647" type="qcurve" smooth="yes"/>
      <point x="49" y="694"/>
      <point x="112" y="748"/>
      <point x="167" y="748" type="qcurve" smooth="yes"/>
      <point x="222" y="748"/>
      <point x="286" y="694"/>
    </contour>
    <contour>
      <point x="123" y="647" type="qcurve" smooth="yes"/>
      <point x="123" y="631"/>
      <point x="147" y="612"/>
      <point x="167" y="612" type="qcurve" smooth="yes"/>
      <point x="188" y="612"/>
      <point x="212" y="631"/>
      <point x="212" y="647" type="qcurve" smooth="yes"/>
      <point x="212" y="664"/>
      <point x="188" y="683"/>
      <point x="167" y="683" type="qcurve" smooth="yes"/>
      <point x="147" y="683"/>
      <point x="123" y="664"/>
    </contour>
    <contour>
      <point x="167" y="530" type="move" name="_top"/>
    </contour>
  </outline>
</glyph>
<glyph name="ogonek" format="1">
  <advance width="327.0"/>
  <unicode hex="02DB"/>
  <outline>
    <contour>
      <point x="219" y="33" type="qcurve"/>
      <point x="277" y="9" type="line"/>
      <point x="212" y="-3"/>
      <point x="149" y="-42"/>
      <point x="149" y="-69" type="qcurve" smooth="yes"/>
      <point x="149" y="-89"/>
      <point x="173" y="-106"/>
      <point x="201" y="-106" type="qcurve" smooth="yes"/>
      <point x="210" y="-106"/>
      <point x="234" y="-103"/>
      <point x="247" y="-101" type="qcurve"/>
      <point x="247" y="-184" type="line"/>
      <point x="228" y="-190"/>
      <point x="187" y="-195"/>
      <point x="165" y="-195" type="qcurve" smooth="yes"/>
      <point x="108" y="-195"/>
      <point x="50" y="-145"/>
      <point x="50" y="-96" type="qcurve"/>
      <point x="50" y="-64"/>
      <point x="78" y="-14"/>
      <point x="105" y="3" type="qcurve" smooth="yes"/>
      <point x="130" y="18"/>
      <point x="187" y="33"/>
    </contour>
    <contour>
      <point x="277" y="9" type="move" name="_ogonek"/>
    </contour>
  </outline>
</glyph>
<glyph name="tilde" format="1">
  <advance width="403.0"/>
  <unicode hex="02DC"/>
  <outline>
    <contour>
      <point x="269" y="682" type="qcurve"/>
      <point x="353" y="682" type="line"/>
      <point x="353" y="618"/>
      <point x="310" y="547"/>
      <point x="270" y="547" type="qcurve" smooth="yes"/>
      <point x="254" y="547"/>
      <point x="219" y="560"/>
      <point x="189" y="580" type="qcurve" smooth="yes"/>
      <point x="173" y="591"/>
      <point x="159" y="597"/>
      <point x="155" y="597" type="qcurve"/>
      <point x="145" y="597"/>
      <point x="134" y="573"/>
      <point x="134" y="551" type="qcurve"/>
      <point x="50" y="551" type="line"/>
      <point x="50" y="615"/>
      <point x="93" y="686"/>
      <point x="133" y="686" type="qcurve" smooth="yes"/>
      <point x="149" y="686"/>
      <point x="184" y="673"/>
      <point x="214" y="654" type="qcurve" smooth="yes"/>
      <point x="230" y="644"/>
      <point x="244" y="638"/>
      <point x="248" y="638" type="qcurve"/>
      <point x="258" y="638"/>
      <point x="269" y="661"/>
    </contour>
    <contour>
      <point x="202" y="530" type="move" name="_top"/>
    </contour>
  </outline>
</glyph>
<glyph name="uni0326" format="1">
  <advance width="224.0"/>
  <unicode hex="0326"/>
  <outline>
    <contour>
      <point x="174" y="-50" type="line"/>
      <point x="154" y="-169" type="line" smooth="yes"/>
      <point x="150" y="-192"/>
      <point x="118" y="-219"/>
      <point x="93" y="-219" type="qcurve"/>
      <point x="50" y="-219" type="line"/>
      <point x="50" y="-50" type="line"/>
    </contour>
    <contour>
      <point x="114" y="0" type="move" name="_bottom"/>
    </contour>
  </outline>
</glyph>
<glyph name="uni0394" format="1">
  <advance width="614.0"/>
  <unicode hex="0394"/>
  <outline>
    <contour>
      <point x="18" y="0" type="line"/>
      <point x="18" y="145" type="line"/>
      <point x="227" y="627" type="line"/>
      <point x="387" y="627" type="line"/>
      <point x="596" y="145" type="line"/>
      <point x="596" y="0" type="line"/>
    </contour>
    <contour>
      <point x="307" y="454" type="line"/>
      <point x="173" y="145" type="line"/>
      <point x="441" y="145" type="line"/>
    </contour>
  </outline>
</glyph>
<glyph name="uni03A9" format="1">
  <advance width="673.0"/>
  <unicode hex="03A9"/>
  <outline>
    <contour>
      <point x="52" y="0" type="line"/>
      <point x="52" y="145" type="line"/>
      <point x="174" y="145" type="line"/>
      <point x="174" y="158" type="line"/>
      <point x="103" y="187"/>
      <point x="24" y="303"/>
      <point x="24" y="379" type="qcurve"/>
      <point x="24" y="504"/>
      <point x="190" y="647"/>
      <point x="337" y="647" type="qcurve" smooth="yes"/>
      <point x="484" y="647"/>
      <point x="649" y="504"/>
      <point x="649" y="380" type="qcurve"/>
      <point x="649" y="304"/>
      <point x="571" y="188"/>
      <point x="500" y="159" type="qcurve"/>
      <point x="500" y="145" type="line"/>
      <point x="622" y="145" type="line"/>
      <point x="622" y="0" type="line"/>
      <point x="365" y="0" type="line"/>
      <point x="365" y="239" type="line"/>
      <point x="419" y="248"/>
      <point x="483" y="318"/>
      <point x="483" y="372" type="qcurve" smooth="yes"/>
      <point x="483" y="436"/>
      <point x="408" y="502"/>
      <point x="337" y="502" type="qcurve" smooth="yes"/>
      <point x="265" y="502"/>
      <point x="190" y="436"/>
      <point x="190" y="372" type="qcurve" smooth="yes"/>
      <point x="190" y="318"/>
      <point x="258" y="246"/>
      <point x="309" y="239" type="qcurve"/>
      <point x="309" y="0" type="line"/>
    </contour>
  </outline>
</glyph>
<glyph name="uni03BC" format="1">
  <advance width="539.0"/>
  <unicode hex="03BC"/>
  <outline>
    <contour>
      <point x="224" y="-10" type="qcurve"/>
      <point x="214" y="-10"/>
      <point x="200" y="-9"/>
      <point x="193" y="-8" type="qcurve"/>
      <point x="193" y="-54"/>
      <point x="207" y="-124"/>
      <point x="221" y="-152" type="qcurve"/>
      <point x="69" y="-152" type="line"/>
      <point x="55" y="-117"/>
      <point x="43" y="-31"/>
      <point x="43" y="60" type="qcurve"/>
      <point x="43" y="494" type="line"/>
      <point x="193" y="494" type="line"/>
      <point x="193" y="177" type="line" smooth="yes"/>
      <point x="193" y="152"/>
      <point x="221" y="130"/>
      <point x="253" y="130" type="qcurve" smooth="yes"/>
      <point x="275" y="130"/>
      <point x="324" y="137"/>
      <point x="346" y="143" type="qcurve"/>
      <point x="346" y="494" type="line"/>
      <point x="496" y="494" type="line"/>
      <point x="496" y="0" type="line"/>
      <point x="356" y="0" type="line"/>
      <point x="352" y="33" type="line"/>
      <point x="324" y="13"/>
      <point x="256" y="-10"/>
    </contour>
  </outline>
</glyph>
<glyph name="pi" format="1">
  <advance width="587.0"/>
  <unicode hex="03C0"/>
  <outline>
    <contour>
      <point x="196" y="0" type="qcurve"/>
      <point x="29" y="0" type="line"/>
      <point x="73" y="112"/>
      <point x="109" y="276"/>
      <point x="109" y="354" type="qcurve"/>
      <point x="25" y="354" type="line"/>
      <point x="25" y="494" type="line"/>
      <point x="562" y="494" type="line"/>
      <point x="562" y="354" type="line"/>
      <point x="478" y="354" type="line"/>
      <point x="478" y="187" type="line" smooth="yes"/>
      <point x="478" y="163"/>
      <point x="499" y="142"/>
      <point x="523" y="142" type="qcurve"/>
      <point x="539" y="142" type="line"/>
      <point x="539" y="0" type="line"/>
      <point x="472" y="0" type="line" smooth="yes"/>
      <point x="405" y="0"/>
      <point x="328" y="77"/>
      <point x="328" y="144" type="qcurve"/>
      <point x="328" y="354" type="line"/>
      <point x="257" y="354" type="line"/>
      <point x="257" y="265"/>
      <point x="229" y="98"/>
    </contour>
  </outline>
</glyph>
<glyph name="uni1E9E" format="1">
  <advance width="652.0"/>
  <unicode hex="1E9E"/>
  <outline>
    <contour>
      <point x="305" y="637" type="qcurve"/>
      <point x="369" y="637"/>
      <point x="493" y="617"/>
      <point x="547" y="598" type="qcurve"/>
      <point x="494" y="364" type="line"/>
      <point x="543" y="351" type="line" smooth="yes"/>
      <point x="594" y="337"/>
      <point x="632" y="271"/>
      <point x="632" y="200" type="qcurve"/>
      <point x="632" y="94"/>
      <point x="543" y="-10"/>
      <point x="453" y="-10" type="qcurve" smooth="yes"/>
      <point x="409" y="-10"/>
      <point x="331" y="-3"/>
      <point x="302" y="3" type="qcurve"/>
      <point x="302" y="136" type="line"/>
      <point x="328" y="132"/>
      <point x="387" y="127"/>
      <point x="417" y="127" type="qcurve" smooth="yes"/>
      <point x="451" y="127"/>
      <point x="480" y="158"/>
      <point x="480" y="196" type="qcurve" smooth="yes"/>
      <point x="480" y="221"/>
      <point x="468" y="238"/>
      <point x="448" y="243" type="qcurve"/>
      <point x="335" y="270" type="line"/>
      <point x="384" y="495" type="line"/>
      <point x="375" y="498"/>
      <point x="316" y="502"/>
      <point x="294" y="502" type="qcurve"/>
      <point x="243" y="502"/>
      <point x="199" y="465"/>
      <point x="199" y="424" type="qcurve"/>
      <point x="199" y="0" type="line"/>
      <point x="44" y="0" type="line"/>
      <point x="44" y="425" type="line" smooth="yes"/>
      <point x="44" y="534"/>
      <point x="170" y="637"/>
    </contour>
  </outline>
</glyph>
<glyph name="endash" format="1">
  <advance width="473.0"/>
  <unicode hex="2013"/>
  <outline>
    <contour>
      <point x="441" y="375" type="line"/>
      <point x="441" y="262" type="line"/>
      <point x="32" y="262" type="line"/>
      <point x="32" y="375" type="line"/>
    </contour>
  </outline>
</glyph>
<glyph name="emdash" format="1">
  <advance width="753.0"/>
  <unicode hex="2014"/>
  <outline>
    <contour>
      <point x="721" y="375" type="line"/>
      <point x="721" y="262" type="line"/>
      <point x="32" y="262" type="line"/>
      <point x="32" y="375" type="line"/>
    </contour>
  </outline>
</glyph>
<glyph name="quoteright" format="1">
  <advance width="179.0"/>
  <unicode hex="2019"/>
  <outline>
    <contour>
      <point x="166" y="627" type="line"/>
      <point x="136" y="449" type="line" smooth="yes"/>
      <point x="132" y="426"/>
      <point x="100" y="399"/>
      <point x="75" y="399" type="qcurve"/>
      <point x="32" y="399" type="line"/>
      <point x="32" y="627" type="line"/>
    </contour>
  </outline>
</glyph>
<glyph name="quotedblleft" format="1">
  <advance width="364.0"/>
  <unicode hex="201C"/>
  <outline>
    <contour>
      <point x="18" y="399" type="line"/>
      <point x="48" y="577" type="line" smooth="yes"/>
      <point x="52" y="600"/>
      <point x="84" y="627"/>
      <point x="109" y="627" type="qcurve"/>
      <point x="152" y="627" type="line"/>
      <point x="152" y="399" type="line"/>
    </contour>
    <contour>
      <point x="198" y="399" type="line"/>
      <point x="228" y="577" type="line" smooth="yes"/>
      <point x="232" y="600"/>
      <point x="264" y="627"/>
      <point x="289" y="627" type="qcurve"/>
      <point x="332" y="627" type="line"/>
      <point x="332" y="399" type="line"/>
    </contour>
  </outline>
</glyph>
<glyph name="dagger" format="1">
  <advance width="339.0"/>
  <unicode hex="2020"/>
  <outline>
    <contour>
      <point x="215" y="435" type="line"/>
      <point x="227" y="221" type="line"/>
      <point x="112" y="221" type="line"/>
      <point x="125" y="436" type="line"/>
      <point x="17" y="428" type="line"/>
      <point x="17" y="529" type="line"/>
      <point x="123" y="522" type="line"/>
      <point x="115" y="627" type="line"/>
      <point x="224" y="627" type="line"/>
      <point x="217" y="522" type="line"/>
      <point x="322" y="529" type="line"/>
      <point x="322" y="428" type="line"/>
    </contour>
  </outline>
</glyph>
<glyph name="daggerdbl" format="1">
  <advance width="363.0"/>
  <unicode hex="2021"/>
  <outline>
    <contour>
      <point x="334" y="317" type="line"/>
      <point x="334" y="216" type="line"/>
      <point x="228" y="223" type="line"/>
      <point x="236" y="118" type="line"/>
      <point x="127" y="118" type="line"/>
      <point x="134" y="223" type="line"/>
      <point x="29" y="216" type="line"/>
      <point x="29" y="317" type="line"/>
      <point x="139" y="310" type="line"/>
      <point x="139" y="436" type="line"/>
      <point x="29" y="428" type="line"/>
      <point x="29" y="529" type="line"/>
      <point x="135" y="522" type="line"/>
      <point x="127" y="627" type="line"/>
      <point x="236" y="627" type="line"/>
      <point x="229" y="522" type="line"/>
      <point x="334" y="529" type="line"/>
      <point x="334" y="428" type="line"/>
      <point x="225" y="435" type="line"/>
      <point x="225" y="309" type="line"/>
    </contour>
  </outline>
</glyph>
<glyph name="ellipsis" format="1">
  <advance width="623.0"/>
  <unicode hex="2026"/>
  <outline>
    <contour>
      <point x="374" y="0" type="line"/>
      <point x="249" y="0" type="line"/>
      <point x="249" y="138" type="line"/>
      <point x="374" y="138" type="line"/>
    </contour>
    <contour>
      <point x="154" y="0" type="line"/>
      <point x="29" y="0" type="line"/>
      <point x="29" y="138" type="line"/>
      <point x="154" y="138" type="line"/>
    </contour>
    <contour>
      <point x="594" y="0" type="line"/>
      <point x="469" y="0" type="line"/>
      <point x="469" y="138" type="line"/>
      <point x="594" y="138" type="line"/>
    </contour>
  </outline>
</glyph>
<glyph name="perthousand" format="1">
  <advance width="971.0"/>
  <unicode hex="2030"/>
  <outline>
    <contour>
      <point x="287" y="477" type="qcurve"/>
      <point x="287" y="393"/>
      <point x="224" y="320"/>
      <point x="152" y="320" type="qcurve"/>
      <point x="79" y="320"/>
      <point x="16" y="393"/>
      <point x="16" y="477" type="qcurve"/>
      <point x="16" y="561"/>
      <point x="79" y="634"/>
      <point x="152" y="634" type="qcurve"/>
      <point x="224" y="634"/>
      <point x="287" y="561"/>
    </contour>
    <contour>
      <point x="536" y="627" type="line"/>
      <point x="236" y="0" type="line"/>
      <point x="133" y="0" type="line"/>
      <point x="433" y="627" type="line"/>
    </contour>
    <contour>
      <point x="186" y="477" type="qcurve"/>
      <point x="186" y="518"/>
      <point x="171" y="549"/>
      <point x="152" y="549" type="qcurve"/>
      <point x="133" y="549"/>
      <point x="118" y="518"/>
      <point x="118" y="477" type="qcurve"/>
      <point x="118" y="438"/>
      <point x="133" y="409"/>
      <point x="152" y="409" type="qcurve"/>
      <point x="172" y="409"/>
      <point x="186" y="438"/>
    </contour>
    <contour>
      <point x="652" y="151" type="qcurve"/>
      <point x="652" y="67"/>
      <point x="589" y="-6"/>
      <point x="517" y="-6" type="qcurve"/>
      <point x="444" y="-6"/>
      <point x="381" y="67"/>
      <point x="381" y="151" type="qcurve"/>
      <point x="381" y="235"/>
      <point x="444" y="308"/>
      <point x="517" y="308" type="qcurve"/>
      <point x="589" y="308"/>
      <point x="652" y="235"/>
    </contour>
    <contour>
      <point x="955" y="151" type="qcurve"/>
      <point x="955" y="67"/>
      <point x="892" y="-6"/>
      <point x="820" y="-6" type="qcurve"/>
      <point x="747" y="-6"/>
      <point x="684" y="67"/>
      <point x="684" y="151" type="qcurve"/>
      <point x="684" y="235"/>
      <point x="747" y="308"/>
      <point x="820" y="308" type="qcurve"/>
      <point x="892" y="308"/>
      <point x="955" y="235"/>
    </contour>
    <contour>
      <point x="551" y="151" type="qcurve"/>
      <point x="551" y="192"/>
      <point x="536" y="223"/>
      <point x="517" y="223" type="qcurve"/>
      <point x="498" y="223"/>
      <point x="483" y="192"/>
      <point x="483" y="151" type="qcurve"/>
      <point x="483" y="112"/>
      <point x="498" y="83"/>
      <point x="517" y="83" type="qcurve"/>
      <point x="537" y="83"/>
      <point x="551" y="112"/>
    </contour>
    <contour>
      <point x="854" y="151" type="qcurve"/>
      <point x="854" y="192"/>
      <point x="839" y="223"/>
      <point x="820" y="223" type="qcurve"/>
      <point x="801" y="223"/>
      <point x="786" y="192"/>
      <point x="786" y="151" type="qcurve"/>
      <point x="786" y="112"/>
      <point x="801" y="83"/>
      <point x="820" y="83" type="qcurve"/>
      <point x="840" y="83"/>
      <point x="854" y="112"/>
    </contour>
  </outline>
</glyph>
<glyph name="guilsinglleft" format="1">
  <advance width="336.0"/>
  <unicode hex="2039"/>
  <outline>
    <contour>
      <point x="321" y="64" type="line"/>
      <point x="161" y="64" type="line"/>
      <point x="12" y="281" type="line"/>
      <point x="161" y="494" type="line"/>
      <point x="321" y="494" type="line"/>
      <point x="173" y="282" type="line"/>
    </contour>
  </outline>
</glyph>
<glyph name="guilsinglright" format="1">
  <advance width="336.0"/>
  <unicode hex="203A"/>
  <outline>
    <contour>
      <point x="324" y="281" type="line"/>
      <point x="175" y="64" type="line"/>
      <point x="15" y="64" type="line"/>
      <point x="163" y="282" type="line"/>
      <point x="15" y="494" type="line"/>
      <point x="175" y="494" type="line"/>
    </contour>
  </outline>
</glyph>
<glyph name="fraction" format="1">
  <advance width="185.0"/>
  <unicode hex="2044"/>
  <outline>
    <contour>
      <point x="294" y="627" type="line"/>
      <point x="-6" y="0" type="line"/>
      <point x="-109" y="0" type="line"/>
      <point x="191" y="627" type="line"/>
    </contour>
  </outline>
</glyph>
<glyph name="uni2070" format="1">
  <advance width="357.0"/>
  <unicode hex="2070"/>
  <outline>
    <contour>
      <point x="336" y="449" type="qcurve"/>
      <point x="336" y="347"/>
      <point x="268" y="264"/>
      <point x="179" y="264" type="qcurve"/>
      <point x="85" y="264"/>
      <point x="21" y="340"/>
      <point x="21" y="449" type="qcurve"/>
      <point x="21" y="550"/>
      <point x="90" y="633"/>
      <point x="179" y="633" type="qcurve"/>
      <point x="271" y="633"/>
      <point x="336" y="557"/>
    </contour>
    <contour>
      <point x="224" y="449" type="qcurve"/>
      <point x="224" y="503"/>
      <point x="208" y="533"/>
      <point x="179" y="533" type="qcurve"/>
      <point x="148" y="533"/>
      <point x="133" y="503"/>
      <point x="133" y="449" type="qcurve"/>
      <point x="133" y="397"/>
      <point x="149" y="367"/>
      <point x="179" y="367" type="qcurve"/>
      <point x="209" y="367"/>
      <point x="224" y="395"/>
    </contour>
  </outline>
</glyph>
<glyph name="uni2074" format="1">
  <advance width="331.0"/>
  <unicode hex="2074"/>
  <outline>
    <contour>
      <point x="317" y="439" type="line"/>
      <point x="317" y="343" type="line"/>
      <point x="280" y="343" type="line"/>
      <point x="280" y="270" type="line"/>
      <point x="170" y="270" type="line"/>
      <point x="170" y="343" type="line"/>
      <point x="18" y="343" type="line"/>
      <point x="18" y="440" type="line"/>
      <point x="60" y="627" type="line"/>
      <point x="164" y="627" type="line"/>
      <point x="128" y="439" type="line"/>
      <point x="174" y="439" type="line"/>
      <point x="174" y="565" type="line"/>
      <point x="280" y="565" type="line"/>
      <point x="280" y="439" type="line"/>
    </contour>
  </outline>
</glyph>
<glyph name="uni2075" format="1">
  <advance width="286.0"/>
  <unicode hex="2075"/>
  <outline>
    <contour>
      <point x="270" y="379" type="qcurve"/>
      <point x="270" y="325"/>
      <point x="203" y="264"/>
      <point x="146" y="264" type="qcurve"/>
      <point x="100" y="264"/>
      <point x="38" y="270"/>
      <point x="21" y="276" type="qcurve"/>
      <point x="21" y="369" type="line"/>
      <point x="43" y="366"/>
      <point x="84" y="363"/>
      <point x="115" y="363" type="qcurve"/>
      <point x="141" y="363"/>
      <point x="163" y="371"/>
      <point x="163" y="380" type="qcurve"/>
      <point x="163" y="396"/>
      <point x="143" y="405"/>
      <point x="113" y="405" type="qcurve"/>
      <point x="75" y="403"/>
      <point x="46" y="401"/>
      <point x="36" y="400" type="qcurve"/>
      <point x="36" y="627" type="line"/>
      <point x="246" y="627" type="line"/>
      <point x="246" y="532" type="line"/>
      <point x="142" y="532" type="line"/>
      <point x="142" y="490" type="line"/>
      <point x="148" y="491"/>
      <point x="162" y="491"/>
      <point x="175" y="491" type="qcurve" smooth="yes"/>
      <point x="225" y="491"/>
      <point x="270" y="436"/>
    </contour>
  </outline>
</glyph>
<glyph name="uni2076" format="1">
  <advance width="316.0"/>
  <unicode hex="2076"/>
  <outline>
    <contour>
      <point x="170" y="264" type="qcurve"/>
      <point x="85" y="264"/>
      <point x="20" y="339"/>
      <point x="20" y="439" type="qcurve"/>
      <point x="20" y="539"/>
      <point x="109" y="633"/>
      <point x="203" y="633" type="qcurve"/>
      <point x="223" y="633"/>
      <point x="260" y="630"/>
      <point x="268" y="627" type="qcurve"/>
      <point x="268" y="541" type="line"/>
      <point x="252" y="542"/>
      <point x="217" y="544"/>
      <point x="203" y="544" type="qcurve"/>
      <point x="167" y="544"/>
      <point x="135" y="523"/>
      <point x="130" y="496" type="qcurve"/>
      <point x="150" y="504"/>
      <point x="184" y="511"/>
      <point x="204" y="511" type="qcurve"/>
      <point x="254" y="511"/>
      <point x="303" y="453"/>
      <point x="303" y="393" type="qcurve"/>
      <point x="303" y="332"/>
      <point x="232" y="264"/>
    </contour>
    <contour>
      <point x="202" y="387" type="qcurve"/>
      <point x="202" y="408"/>
      <point x="190" y="423"/>
      <point x="166" y="423" type="qcurve"/>
      <point x="162" y="423"/>
      <point x="141" y="421"/>
      <point x="125" y="419" type="qcurve"/>
      <point x="125" y="377"/>
      <point x="140" y="355"/>
      <point x="166" y="355" type="qcurve"/>
      <point x="185" y="355"/>
      <point x="202" y="370"/>
    </contour>
  </outline>
</glyph>
<glyph name="uni2077" format="1">
  <advance width="286.0"/>
  <unicode hex="2077"/>
  <outline>
    <contour>
      <point x="272" y="627" type="line"/>
      <point x="272" y="528" type="line"/>
      <point x="136" y="270" type="line"/>
      <point x="11" y="270" type="line"/>
      <point x="153" y="528" type="line"/>
      <point x="20" y="528" type="line"/>
      <point x="20" y="627" type="line"/>
    </contour>
  </outline>
</glyph>
<glyph name="uni2078" format="1">
  <advance width="322.0"/>
  <unicode hex="2078"/>
  <outline>
    <contour>
      <point x="303" y="368" type="qcurve"/>
      <point x="303" y="313"/>
      <point x="236" y="264"/>
      <point x="161" y="264" type="qcurve"/>
      <point x="83" y="264"/>
      <point x="19" y="312"/>
      <point x="19" y="370" type="qcurve"/>
      <point x="19" y="400"/>
      <point x="51" y="446"/>
      <point x="79" y="455" type="qcurve"/>
      <point x="51" y="467"/>
      <point x="25" y="507"/>
      <point x="26" y="537" type="qcurve"/>
      <point x="26" y="588"/>
      <point x="90" y="633"/>
      <point x="161" y="633" type="qcurve"/>
      <point x="236" y="633"/>
      <point x="296" y="590"/>
      <point x="296" y="536" type="qcurve"/>
      <point x="296" y="506"/>
      <point x="270" y="466"/>
      <point x="243" y="455" type="qcurve"/>
      <point x="271" y="446"/>
      <point x="303" y="400"/>
    </contour>
    <contour>
      <point x="200" y="519" type="qcurve"/>
      <point x="200" y="533"/>
      <point x="184" y="544"/>
      <point x="161" y="544" type="qcurve"/>
      <point x="139" y="544"/>
      <point x="123" y="534"/>
      <point x="123" y="520" type="qcurve"/>
      <point x="123" y="505"/>
      <point x="138" y="493"/>
      <point x="161" y="493" type="qcurve"/>
      <point x="184" y="493"/>
      <point x="200" y="504"/>
    </contour>
    <contour>
      <point x="201" y="384" type="qcurve"/>
      <point x="201" y="398"/>
      <point x="183" y="409"/>
      <point x="161" y="409" type="qcurve"/>
      <point x="138" y="409"/>
      <point x="121" y="399"/>
      <point x="121" y="386" type="qcurve"/>
      <point x="121" y="369"/>
      <point x="138" y="356"/>
      <point x="161" y="356" type="qcurve"/>
      <point x="183" y="356"/>
      <point x="201" y="369"/>
    </contour>
  </outline>
</glyph>
<glyph name="uni2079" format="1">
  <advance width="320.0"/>
  <unicode hex="2079"/>
  <outline>
    <contour>
      <point x="153" y="633" type="qcurve"/>
      <point x="237" y="633"/>
      <point x="300" y="557"/>
      <point x="300" y="457" type="qcurve"/>
      <point x="300" y="358"/>
      <point x="210" y="264"/>
      <point x="115" y="264" type="qcurve"/>
      <point x="97" y="264"/>
      <point x="55" y="267"/>
      <point x="47" y="269" type="qcurve"/>
      <point x="47" y="358" type="line"/>
      <point x="59" y="357"/>
      <point x="93" y="355"/>
      <point x="115" y="355" type="qcurve"/>
      <point x="151" y="355"/>
      <point x="183" y="375"/>
      <point x="189" y="401" type="qcurve"/>
      <point x="168" y="392"/>
      <point x="135" y="385"/>
      <point x="117" y="385" type="qcurve"/>
      <point x="66" y="385"/>
      <point x="14" y="444"/>
      <point x="14" y="503" type="qcurve"/>
      <point x="14" y="564"/>
      <point x="88" y="633"/>
    </contour>
    <contour>
      <point x="153" y="541" type="qcurve"/>
      <point x="134" y="541"/>
      <point x="117" y="526"/>
      <point x="117" y="509" type="qcurve"/>
      <point x="117" y="487"/>
      <point x="129" y="473"/>
      <point x="153" y="473" type="qcurve"/>
      <point x="159" y="473"/>
      <point x="179" y="476"/>
      <point x="194" y="478" type="qcurve"/>
      <point x="193" y="519"/>
      <point x="178" y="541"/>
    </contour>
  </outline>
</glyph>
